<svg width="36" height="26" viewBox="0 0 36 26" fill="none" xmlns="http://www.w3.org/2000/svg">
<path d="M22.2433 12.715C22.2433 14.5117 21.975 16.18 21.4383 17.72C20.925 19.26 20.19 20.6017 19.2333 21.745C18.2766 22.8883 17.1216 23.7867 15.7683 24.44C14.4383 25.0933 12.9566 25.42 11.3233 25.42C9.68998 25.42 8.19665 25.105 6.84331 24.475C5.51331 23.8217 4.36998 22.9233 3.41331 21.78C2.47998 20.6367 1.75665 19.3067 1.24331 17.79C0.72998 16.25 0.473313 14.5817 0.473313 12.785C0.473313 11.0117 0.72998 9.355 1.24331 7.815C1.77998 6.25167 2.52665 4.89833 3.48331 3.755C4.43998 2.61167 5.58331 1.71333 6.91331 1.06C8.26665 0.406666 9.75998 0.0799996 11.3933 0.0799996C13.0266 0.0799996 14.5083 0.406666 15.8383 1.06C17.1916 1.69 18.335 2.57667 19.2683 3.72C20.225 4.86333 20.96 6.205 21.4733 7.745C21.9866 9.285 22.2433 10.9417 22.2433 12.715ZM16.7133 12.785C16.7133 11.665 16.585 10.6267 16.3283 9.67C16.0716 8.71333 15.71 7.885 15.2433 7.185C14.7766 6.485 14.205 5.93667 13.5283 5.54C12.875 5.14333 12.14 4.945 11.3233 4.945C10.5066 4.945 9.77165 5.14333 9.11831 5.54C8.46498 5.91333 7.90498 6.45 7.43831 7.15C6.97165 7.82667 6.60998 8.64333 6.35331 9.6C6.11998 10.5567 6.00331 11.595 6.00331 12.715C6.00331 13.835 6.13165 14.8733 6.38831 15.83C6.64498 16.7867 7.00665 17.615 7.47331 18.315C7.93998 19.015 8.49998 19.5633 9.15331 19.96C9.82998 20.3567 10.5766 20.555 11.3933 20.555C12.21 20.555 12.945 20.3683 13.5983 19.995C14.2516 19.5983 14.8116 19.05 15.2783 18.35C15.745 17.65 16.095 16.8333 16.3283 15.9C16.585 14.9433 16.7133 13.905 16.7133 12.785ZM24.9897 2.425L32.0247 0.324998H35.6997V25H30.3797V5.785L26.1097 6.835L24.9897 2.425Z" fill="#0F0F0F"/>
</svg>
