<svg width="44" height="26" viewBox="0 0 44 26" fill="none" xmlns="http://www.w3.org/2000/svg">
<mask id="path-1-outside-1_202_667" maskUnits="userSpaceOnUse" x="-1.75" y="-1" width="47" height="28" fill="black">
<rect fill="white" x="-1.75" y="-1" width="47" height="28"/>
<path d="M21.91 12.715C21.91 14.5117 21.6417 16.18 21.105 17.72C20.5917 19.26 19.8567 20.6017 18.9 21.745C17.9433 22.8883 16.7883 23.7867 15.435 24.44C14.105 25.0933 12.6233 25.42 10.99 25.42C9.35667 25.42 7.86333 25.105 6.51 24.475C5.18 23.8217 4.03667 22.9233 3.08 21.78C2.14667 20.6367 1.42333 19.3067 0.91 17.79C0.396667 16.25 0.14 14.5817 0.14 12.785C0.14 11.0117 0.396667 9.355 0.91 7.815C1.44667 6.25167 2.19333 4.89833 3.15 3.755C4.10667 2.61167 5.25 1.71333 6.58 1.06C7.93333 0.406666 9.42667 0.0799996 11.06 0.0799996C12.6933 0.0799996 14.175 0.406666 15.505 1.06C16.8583 1.69 18.0017 2.57667 18.935 3.72C19.8917 4.86333 20.6267 6.205 21.14 7.745C21.6533 9.285 21.91 10.9417 21.91 12.715ZM16.38 12.785C16.38 11.665 16.2517 10.6267 15.995 9.67C15.7383 8.71333 15.3767 7.885 14.91 7.185C14.4433 6.485 13.8717 5.93667 13.195 5.54C12.5417 5.14333 11.8067 4.945 10.99 4.945C10.1733 4.945 9.43833 5.14333 8.785 5.54C8.13167 5.91333 7.57167 6.45 7.105 7.15C6.63833 7.82667 6.27667 8.64333 6.02 9.6C5.78667 10.5567 5.67 11.595 5.67 12.715C5.67 13.835 5.79833 14.8733 6.055 15.83C6.31167 16.7867 6.67333 17.615 7.14 18.315C7.60667 19.015 8.16667 19.5633 8.82 19.96C9.49667 20.3567 10.2433 20.555 11.06 20.555C11.8767 20.555 12.6117 20.3683 13.265 19.995C13.9183 19.5983 14.4783 19.05 14.945 18.35C15.4117 17.65 15.7617 16.8333 15.995 15.9C16.2517 14.9433 16.38 13.905 16.38 12.785ZM34.6314 4.98C33.6747 4.98 32.8231 5.24833 32.0764 5.785C31.3531 6.32167 30.5364 7.15 29.6264 8.27L25.8464 5.225C26.4531 4.40833 27.0597 3.685 27.6664 3.055C28.2964 2.425 28.9614 1.9 29.6614 1.48C30.3847 1.03667 31.1781 0.709998 32.0414 0.499998C32.9047 0.266665 33.8847 0.149999 34.9814 0.149999C36.2881 0.149999 37.4547 0.336666 38.4814 0.71C39.5314 1.06 40.4181 1.57333 41.1414 2.25C41.8881 2.90333 42.4481 3.69667 42.8214 4.63C43.2181 5.56333 43.4164 6.60167 43.4164 7.745C43.4164 8.77167 43.2764 9.69333 42.9964 10.51C42.7397 11.3033 42.3431 12.0617 41.8064 12.785C41.2931 13.5083 40.6281 14.2317 39.8114 14.955C38.9947 15.655 38.0497 16.425 36.9764 17.265L32.9864 20.345H43.6614V25H25.5314V20.73L33.6864 14.045C34.4564 13.415 35.1097 12.855 35.6464 12.365C36.1831 11.8517 36.6147 11.3733 36.9414 10.93C37.2914 10.4633 37.5364 10.02 37.6764 9.6C37.8397 9.15667 37.9214 8.67833 37.9214 8.165C37.9214 7.115 37.6181 6.32167 37.0114 5.785C36.4047 5.24833 35.6114 4.98 34.6314 4.98Z"/>
</mask>
<path d="M21.105 17.72L20.1606 17.3909L20.1563 17.4038L21.105 17.72ZM18.9 21.745L19.6669 22.3867L19.6669 22.3867L18.9 21.745ZM15.435 24.44L15.0002 23.5394L14.9941 23.5424L15.435 24.44ZM6.51 24.475L6.0691 25.3726L6.07849 25.3772L6.08797 25.3816L6.51 24.475ZM3.08 21.78L2.30528 22.4124L2.31306 22.4217L3.08 21.78ZM0.91 17.79L-0.0386932 18.1062L-0.0372158 18.1106L0.91 17.79ZM0.91 7.815L-0.0358597 7.4903L-0.0386831 7.49877L0.91 7.815ZM3.15 3.755L2.38306 3.11328L2.38306 3.11328L3.15 3.755ZM6.58 1.06L6.14524 0.159427L6.1391 0.162445L6.58 1.06ZM15.505 1.06L15.0641 1.95755L15.0735 1.96217L15.083 1.96658L15.505 1.06ZM18.935 3.72L18.1603 4.35242L18.1681 4.36172L18.935 3.72ZM21.14 7.745L22.0887 7.42877L22.0887 7.42877L21.14 7.745ZM15.995 9.67L16.9608 9.41087L16.9608 9.41087L15.995 9.67ZM14.91 7.185L14.0779 7.7397L14.078 7.7397L14.91 7.185ZM13.195 5.54L12.676 6.39479L12.6826 6.39879L12.6893 6.4027L13.195 5.54ZM8.785 5.54L9.28114 6.40824L9.29265 6.40166L9.30398 6.39479L8.785 5.54ZM7.105 7.15L7.92821 7.71773L7.93268 7.71125L7.93705 7.7047L7.105 7.15ZM6.02 9.6L5.05416 9.34087L5.05119 9.35192L5.04848 9.36304L6.02 9.6ZM6.055 15.83L5.08916 16.0891L5.08916 16.0891L6.055 15.83ZM7.14 18.315L6.30795 18.8697L6.30795 18.8697L7.14 18.315ZM8.82 19.96L8.30102 20.8148L8.30762 20.8188L8.31428 20.8227L8.82 19.96ZM13.265 19.995L13.7611 20.8632L13.7726 20.8567L13.784 20.8498L13.265 19.995ZM14.945 18.35L15.7771 18.9047L15.7771 18.9047L14.945 18.35ZM15.995 15.9L15.0292 15.6409L15.0269 15.6491L15.0249 15.6575L15.995 15.9ZM20.91 12.715C20.91 14.411 20.6569 15.9669 20.1607 17.3909L22.0493 18.0491C22.6264 16.3931 22.91 14.6124 22.91 12.715H20.91ZM20.1563 17.4038C19.6791 18.8355 19.0024 20.0643 18.1331 21.1033L19.6669 22.3867C20.7109 21.139 21.5042 19.6845 22.0537 18.0362L20.1563 17.4038ZM18.1331 21.1033C17.2683 22.1368 16.2268 22.9473 15.0003 23.5394L15.8698 25.3406C17.3499 24.626 18.6184 23.6398 19.6669 22.3867L18.1331 21.1033ZM14.9941 23.5424C13.8149 24.1217 12.4863 24.42 10.99 24.42V26.42C12.7604 26.42 14.3952 26.0649 15.8759 25.3376L14.9941 23.5424ZM10.99 24.42C9.48858 24.42 8.14114 24.1313 6.93203 23.5684L6.08797 25.3816C7.58553 26.0787 9.22476 26.42 10.99 26.42V24.42ZM6.9509 23.5774C5.74703 22.9861 4.71454 22.1752 3.84694 21.1383L2.31306 22.4217C3.35879 23.6715 4.61297 24.6573 6.0691 25.3726L6.9509 23.5774ZM3.85466 21.1476C3.00324 20.1046 2.33543 18.8823 1.85722 17.4694L-0.0372158 18.1106C0.511238 19.731 1.2901 21.1687 2.30534 22.4124L3.85466 21.1476ZM1.85868 17.4738C1.38276 16.046 1.14 14.4856 1.14 12.785H-0.86C-0.86 14.6778 -0.58943 16.454 -0.0386831 18.1062L1.85868 17.4738ZM1.14 12.785C1.14 11.1093 1.38233 9.56028 1.85868 8.13123L-0.0386831 7.49877C-0.588999 9.14972 -0.86 10.9141 -0.86 12.785H1.14ZM1.85582 8.13968C2.35707 6.67953 3.04688 5.43654 3.91694 4.39672L2.38306 3.11328C1.33978 4.36012 0.536264 5.8238 -0.035822 7.49031L1.85582 8.13968ZM3.91694 4.39672C4.78454 3.35983 5.81703 2.54893 7.0209 1.95755L6.1391 0.162445C4.68297 0.877737 3.42879 1.8635 2.38306 3.11328L3.91694 4.39672ZM7.01475 1.96055C8.22102 1.37822 9.56393 1.08 11.06 1.08V-0.92C9.28941 -0.92 7.64565 -0.564883 6.14525 0.159448L7.01475 1.96055ZM11.06 1.08C12.5563 1.08 13.8849 1.37827 15.0641 1.95755L15.9459 0.162445C14.4652 -0.564943 12.8304 -0.92 11.06 -0.92V1.08ZM15.083 1.96658C16.3012 2.53369 17.3235 3.32724 18.1603 4.35238L19.7097 3.08762C18.6798 1.82609 17.4155 0.846307 15.927 0.153418L15.083 1.96658ZM18.1681 4.36172C19.0374 5.40068 19.7141 6.62954 20.1913 8.06123L22.0887 7.42877C21.5392 5.78046 20.7459 4.32598 19.7019 3.07828L18.1681 4.36172ZM20.1913 8.06123C20.6677 9.49028 20.91 11.0393 20.91 12.715H22.91C22.91 10.8441 22.639 9.07972 22.0887 7.42877L20.1913 8.06123ZM17.38 12.785C17.38 11.5887 17.2429 10.4622 16.9608 9.41087L15.0292 9.92913C15.2604 10.7911 15.38 11.7413 15.38 12.785H17.38ZM16.9608 9.41087C16.6808 8.36724 16.2787 7.43532 15.7421 6.6303L14.078 7.7397C14.4746 8.33468 14.7958 9.05943 15.0292 9.92913L16.9608 9.41087ZM15.7421 6.6303C15.1976 5.81358 14.5174 5.15607 13.7007 4.6773L12.6893 6.4027C13.2259 6.71726 13.6891 7.15642 14.0779 7.7397L15.7421 6.6303ZM13.714 4.68521C12.8934 4.18701 11.9767 3.945 10.99 3.945V5.945C11.6367 5.945 12.1899 6.09965 12.676 6.39479L13.714 4.68521ZM10.99 3.945C10.0034 3.945 9.08658 4.18701 8.26602 4.68521L9.30398 6.39479C9.79009 6.09965 10.3433 5.945 10.99 5.945V3.945ZM8.28886 4.67176C7.48553 5.1308 6.81546 5.78154 6.27295 6.5953L7.93705 7.7047C8.32788 7.11846 8.77781 6.69586 9.28114 6.40824L8.28886 4.67176ZM6.28179 6.58227C5.73857 7.36994 5.33452 8.29588 5.05416 9.34087L6.98584 9.85913C7.21881 8.99079 7.5381 8.28339 7.92821 7.71773L6.28179 6.58227ZM5.04848 9.36304C4.79385 10.407 4.67 11.5259 4.67 12.715H6.67C6.67 11.6641 6.77949 10.7063 6.99152 9.83696L5.04848 9.36304ZM4.67 12.715C4.67 13.9113 4.80709 15.0378 5.08916 16.0891L7.02084 15.5709C6.78958 14.7089 6.67 13.7587 6.67 12.715H4.67ZM5.08916 16.0891C5.36916 17.1328 5.77127 18.0647 6.30795 18.8697L7.97205 17.7603C7.5754 17.1653 7.25418 16.4406 7.02084 15.5709L5.08916 16.0891ZM6.30795 18.8697C6.84751 19.679 7.5105 20.3348 8.30102 20.8148L9.33898 19.1052C8.82283 18.7918 8.36583 18.351 7.97205 17.7603L6.30795 18.8697ZM8.31428 20.8227C9.15078 21.3131 10.0732 21.555 11.06 21.555V19.555C10.4135 19.555 9.84255 19.4003 9.32572 19.0973L8.31428 20.8227ZM11.06 21.555C12.0354 21.555 12.944 21.3302 13.7611 20.8632L12.7689 19.1268C12.2794 19.4065 11.7179 19.555 11.06 19.555V21.555ZM13.784 20.8498C14.5745 20.3698 15.2375 19.714 15.7771 18.9047L14.113 17.7953C13.7192 18.386 13.2622 18.8268 12.746 19.1402L13.784 20.8498ZM15.7771 18.9047C16.3157 18.0967 16.7079 17.1713 16.9651 16.1425L15.0249 15.6575C14.8154 16.4953 14.5076 17.2033 14.113 17.7953L15.7771 18.9047ZM16.9608 16.1591C17.2429 15.1078 17.38 13.9813 17.38 12.785H15.38C15.38 13.8287 15.2604 14.7789 15.0292 15.6409L16.9608 16.1591ZM32.0764 5.785L31.4928 4.97298L31.4866 4.9774L31.4806 4.9819L32.0764 5.785ZM29.6264 8.27L28.9991 9.04875L29.7746 9.67346L30.4025 8.90059L29.6264 8.27ZM25.8464 5.225L25.0437 4.62868L24.4703 5.40055L25.2191 6.00375L25.8464 5.225ZM27.6664 3.055L26.9593 2.34789L26.9526 2.35456L26.9461 2.36136L27.6664 3.055ZM29.6614 1.48L30.1759 2.33753L30.184 2.3326L29.6614 1.48ZM32.0414 0.499998L32.2778 1.47167L32.2901 1.46867L32.3023 1.46536L32.0414 0.499998ZM38.4814 0.71L38.1397 1.64979L38.1524 1.65441L38.1652 1.65868L38.4814 0.71ZM41.1414 2.25L40.4583 2.98027L40.4704 2.99163L40.4829 3.00258L41.1414 2.25ZM42.8214 4.63L41.8929 5.00139L41.8969 5.01131L41.9011 5.02114L42.8214 4.63ZM42.9964 10.51L42.0505 10.1857L42.0476 10.1939L42.045 10.2022L42.9964 10.51ZM41.8064 12.785L41.0033 12.1892L40.997 12.1976L40.9909 12.2063L41.8064 12.785ZM39.8114 14.955L40.4622 15.7143L40.4684 15.709L40.4744 15.7036L39.8114 14.955ZM36.9764 17.265L37.5875 18.0566L37.5927 18.0525L36.9764 17.265ZM32.9864 20.345L32.3754 19.5534L30.0544 21.345H32.9864V20.345ZM43.6614 20.345H44.6614V19.345H43.6614V20.345ZM43.6614 25V26H44.6614V25H43.6614ZM25.5314 25H24.5314V26H25.5314V25ZM25.5314 20.73L24.8974 19.9566L24.5314 20.2567V20.73H25.5314ZM33.6864 14.045L33.0532 13.271L33.0524 13.2716L33.6864 14.045ZM35.6464 12.365L36.3207 13.1035L36.3292 13.0957L36.3376 13.0876L35.6464 12.365ZM36.9414 10.93L36.1414 10.33L36.1364 10.3368L36.9414 10.93ZM37.6764 9.6L36.7381 9.25429L36.7327 9.26895L36.7277 9.28377L37.6764 9.6ZM37.0114 5.785L36.3488 6.534L36.3488 6.534L37.0114 5.785ZM34.6314 3.98C33.4743 3.98 32.4167 4.30892 31.4928 4.97298L32.66 6.59701C33.2295 6.18774 33.8751 5.98 34.6314 5.98V3.98ZM31.4806 4.9819C30.6624 5.58891 29.7854 6.48845 28.8503 7.63941L30.4025 8.90059C31.2874 7.81155 32.0437 7.05442 32.6723 6.5881L31.4806 4.9819ZM30.2537 7.49125L26.4737 4.44625L25.2191 6.00375L28.9991 9.04875L30.2537 7.49125ZM26.6492 5.82132C27.2344 5.03345 27.8139 4.34352 28.3867 3.74864L26.9461 2.36136C26.3056 3.02647 25.6717 3.78321 25.0437 4.62868L26.6492 5.82132ZM28.3735 3.76211C28.9509 3.1847 29.5521 2.71179 30.1759 2.33749L29.1469 0.622505C28.3707 1.08821 27.6419 1.6653 26.9593 2.34789L28.3735 3.76211ZM30.184 2.3326C30.8145 1.94612 31.5106 1.65826 32.2778 1.47167L31.8051 -0.471669C30.8455 -0.238268 29.9549 0.127213 29.1388 0.627397L30.184 2.3326ZM32.3023 1.46536C33.064 1.25951 33.9538 1.15 34.9814 1.15V-0.850001C33.8157 -0.850001 32.7455 -0.726182 31.7805 -0.465365L32.3023 1.46536ZM34.9814 1.15C36.1938 1.15 37.2417 1.32324 38.1397 1.64979L38.8232 -0.229793C37.6678 -0.649911 36.3824 -0.850001 34.9814 -0.850001V1.15ZM38.1652 1.65868C39.0947 1.96852 39.8518 2.41296 40.4583 2.98027L41.8246 1.51973C40.9843 0.733702 39.9681 0.151477 38.7976 -0.238684L38.1652 1.65868ZM40.4829 3.00258C41.1091 3.55052 41.5774 4.21264 41.8929 5.00139L43.7499 4.25861C43.3187 3.18069 42.667 2.25614 41.7999 1.49742L40.4829 3.00258ZM41.9011 5.02114C42.2389 5.81595 42.4164 6.71898 42.4164 7.745H44.4164C44.4164 6.48435 44.1973 5.31071 43.7417 4.23886L41.9011 5.02114ZM42.4164 7.745C42.4164 8.68162 42.2886 9.49101 42.0505 10.1857L43.9424 10.8343C44.2642 9.89565 44.4164 8.86171 44.4164 7.745H42.4164ZM42.045 10.2022C41.8243 10.8841 41.4804 11.5461 41.0033 12.1892L42.6095 13.3808C43.2058 12.5772 43.6551 11.7226 43.9479 10.8178L42.045 10.2022ZM40.9909 12.2063C40.5305 12.855 39.9204 13.5226 39.1484 14.2064L40.4744 15.7036C41.3357 14.9407 42.0557 14.1616 42.6219 13.3637L40.9909 12.2063ZM39.1606 14.1957C38.3577 14.8839 37.4247 15.6444 36.3601 16.4775L37.5927 18.0525C38.6748 17.2056 39.6317 16.4261 40.4622 15.7143L39.1606 14.1957ZM36.3654 16.4734L32.3754 19.5534L33.5975 21.1366L37.5875 18.0566L36.3654 16.4734ZM32.9864 21.345H43.6614V19.345H32.9864V21.345ZM42.6614 20.345V25H44.6614V20.345H42.6614ZM43.6614 24H25.5314V26H43.6614V24ZM26.5314 25V20.73H24.5314V25H26.5314ZM26.1654 21.5034L34.3204 14.8184L33.0524 13.2716L24.8974 19.9566L26.1654 21.5034ZM34.3196 14.819C35.0989 14.1814 35.7668 13.6092 36.3207 13.1035L34.9721 11.6265C34.4527 12.1008 33.8139 12.6486 33.0532 13.271L34.3196 14.819ZM36.3376 13.0876C36.9026 12.5473 37.3762 12.0257 37.7465 11.5232L36.1364 10.3368C35.8533 10.721 35.4636 11.1561 34.9552 11.6424L36.3376 13.0876ZM37.7414 11.53C38.1366 11.003 38.4423 10.4647 38.6251 9.91623L36.7277 9.28377C36.6306 9.57527 36.4462 9.92365 36.1414 10.33L37.7414 11.53ZM38.6148 9.9457C38.8223 9.38247 38.9214 8.78608 38.9214 8.165H36.9214C36.9214 8.57058 36.8572 8.93086 36.7381 9.25429L38.6148 9.9457ZM38.9214 8.165C38.9214 6.91887 38.5547 5.81509 37.674 5.036L36.3488 6.534C36.6815 6.82824 36.9214 7.31112 36.9214 8.165H38.9214ZM37.674 5.036C36.8479 4.30525 35.8018 3.98 34.6314 3.98V5.98C35.421 5.98 35.9616 6.19142 36.3488 6.534L37.674 5.036Z" fill="#9D1C21" mask="url(#path-1-outside-1_202_667)"/>
</svg>
