<svg width="44" height="26" viewBox="0 0 44 26" fill="none" xmlns="http://www.w3.org/2000/svg">
<mask id="path-1-outside-1_202_663" maskUnits="userSpaceOnUse" x="-1.58337" y="-1" width="47" height="28" fill="black">
<rect fill="white" x="-1.58337" y="-1" width="47" height="28"/>
<path d="M22.0766 12.715C22.0766 14.5117 21.8083 16.18 21.2716 17.72C20.7583 19.26 20.0233 20.6017 19.0666 21.745C18.11 22.8883 16.955 23.7867 15.6016 24.44C14.2716 25.0933 12.79 25.42 11.1566 25.42C9.52329 25.42 8.02996 25.105 6.67663 24.475C5.34663 23.8217 4.20329 22.9233 3.24663 21.78C2.31329 20.6367 1.58996 19.3067 1.07663 17.79C0.563293 16.25 0.306626 14.5817 0.306626 12.785C0.306626 11.0117 0.563293 9.355 1.07663 7.815C1.61329 6.25167 2.35996 4.89833 3.31663 3.755C4.27329 2.61167 5.41663 1.71333 6.74663 1.06C8.09996 0.406666 9.59329 0.0799996 11.2266 0.0799996C12.86 0.0799996 14.3416 0.406666 15.6716 1.06C17.025 1.69 18.1683 2.57667 19.1016 3.72C20.0583 4.86333 20.7933 6.205 21.3066 7.745C21.82 9.285 22.0766 10.9417 22.0766 12.715ZM16.5466 12.785C16.5466 11.665 16.4183 10.6267 16.1616 9.67C15.905 8.71333 15.5433 7.885 15.0766 7.185C14.61 6.485 14.0383 5.93667 13.3616 5.54C12.7083 5.14333 11.9733 4.945 11.1566 4.945C10.34 4.945 9.60496 5.14333 8.95163 5.54C8.29829 5.91333 7.73829 6.45 7.27163 7.15C6.80496 7.82667 6.44329 8.64333 6.18663 9.6C5.95329 10.5567 5.83663 11.595 5.83663 12.715C5.83663 13.835 5.96496 14.8733 6.22163 15.83C6.47829 16.7867 6.83996 17.615 7.30663 18.315C7.77329 19.015 8.33329 19.5633 8.98663 19.96C9.66329 20.3567 10.41 20.555 11.2266 20.555C12.0433 20.555 12.7783 20.3683 13.4316 19.995C14.085 19.5983 14.645 19.05 15.1116 18.35C15.5783 17.65 15.9283 16.8333 16.1616 15.9C16.4183 14.9433 16.5466 13.905 16.5466 12.785ZM36.373 5.12H26.748V0.499998H43.303V4.56L37.108 10.475C37.948 10.615 38.7647 10.8367 39.558 11.14C40.3514 11.4433 41.0514 11.875 41.658 12.435C42.2647 12.9717 42.7547 13.6483 43.128 14.465C43.5014 15.2583 43.688 16.2267 43.688 17.37C43.688 18.5367 43.478 19.61 43.058 20.59C42.6614 21.57 42.078 22.4217 41.308 23.145C40.5614 23.8683 39.6397 24.4283 38.543 24.825C37.4464 25.2217 36.2214 25.42 34.868 25.42C32.6514 25.42 30.7614 25.035 29.198 24.265C27.658 23.4717 26.363 22.445 25.313 21.185L29.023 17.65C29.863 18.6067 30.738 19.3417 31.648 19.855C32.5814 20.345 33.678 20.59 34.938 20.59C35.9647 20.59 36.793 20.3217 37.423 19.785C38.0764 19.2483 38.403 18.5133 38.403 17.58C38.403 16.5533 37.983 15.7717 37.143 15.235C36.3264 14.6983 35.148 14.43 33.608 14.43H31.368L30.528 11L36.373 5.12Z"/>
</mask>
<path d="M21.2716 17.72L20.3272 17.3909L20.3229 17.4038L21.2716 17.72ZM19.0666 21.745L19.8336 22.3867L19.8336 22.3867L19.0666 21.745ZM15.6016 24.44L15.1669 23.5394L15.1607 23.5424L15.6016 24.44ZM6.67663 24.475L6.23572 25.3726L6.24511 25.3772L6.2546 25.3816L6.67663 24.475ZM3.24663 21.78L2.47191 22.4124L2.47969 22.4217L3.24663 21.78ZM1.07663 17.79L0.127933 18.1062L0.12941 18.1106L1.07663 17.79ZM1.07663 7.815L0.130766 7.4903L0.127943 7.49877L1.07663 7.815ZM3.31663 3.755L2.54969 3.11328L2.54969 3.11328L3.31663 3.755ZM6.74663 1.06L6.31187 0.159427L6.30572 0.162445L6.74663 1.06ZM15.6716 1.06L15.2307 1.95755L15.2401 1.96217L15.2496 1.96658L15.6716 1.06ZM19.1016 3.72L18.3269 4.35242L18.3347 4.36172L19.1016 3.72ZM21.3066 7.745L22.2553 7.42877L22.2553 7.42877L21.3066 7.745ZM16.1616 9.67L17.1275 9.41087L17.1275 9.41087L16.1616 9.67ZM15.0766 7.185L14.2446 7.7397L14.2446 7.7397L15.0766 7.185ZM13.3616 5.54L12.8426 6.39479L12.8492 6.39879L12.8559 6.4027L13.3616 5.54ZM8.95163 5.54L9.44777 6.40824L9.45927 6.40166L9.4706 6.39479L8.95163 5.54ZM7.27163 7.15L8.09484 7.71773L8.09931 7.71125L8.10368 7.7047L7.27163 7.15ZM6.18663 9.6L5.22078 9.34087L5.21782 9.35192L5.21511 9.36304L6.18663 9.6ZM6.22163 15.83L5.25578 16.0891L5.25578 16.0891L6.22163 15.83ZM7.30663 18.315L6.47458 18.8697L6.47458 18.8697L7.30663 18.315ZM8.98663 19.96L8.46765 20.8148L8.47425 20.8188L8.48091 20.8227L8.98663 19.96ZM13.4316 19.995L13.9278 20.8632L13.9393 20.8567L13.9506 20.8498L13.4316 19.995ZM15.1116 18.35L15.9437 18.9047L15.9437 18.9047L15.1116 18.35ZM16.1616 15.9L15.1958 15.6409L15.1936 15.6491L15.1915 15.6575L16.1616 15.9ZM21.0766 12.715C21.0766 14.411 20.8236 15.9669 20.3273 17.3909L22.2159 18.0491C22.793 16.3931 23.0766 14.6124 23.0766 12.715H21.0766ZM20.3229 17.4038C19.8457 18.8355 19.169 20.0643 18.2997 21.1033L19.8336 22.3867C20.8776 21.139 21.6709 19.6845 22.2203 18.0362L20.3229 17.4038ZM18.2997 21.1033C17.4349 22.1368 16.3934 22.9473 15.1669 23.5394L16.0364 25.3406C17.5165 24.626 18.785 23.6398 19.8336 22.3867L18.2997 21.1033ZM15.1607 23.5424C13.9815 24.1217 12.6529 24.42 11.1566 24.42V26.42C12.927 26.42 14.5618 26.0649 16.0425 25.3376L15.1607 23.5424ZM11.1566 24.42C9.6552 24.42 8.30776 24.1313 7.09866 23.5684L6.2546 25.3816C7.75216 26.0787 9.39138 26.42 11.1566 26.42V24.42ZM7.11753 23.5774C5.91366 22.9861 4.88117 22.1752 4.01356 21.1383L2.47969 22.4217C3.52542 23.6715 4.77959 24.6573 6.23572 25.3726L7.11753 23.5774ZM4.02129 21.1476C3.16986 20.1046 2.50205 18.8823 2.02384 17.4694L0.12941 18.1106C0.677864 19.731 1.45672 21.1687 2.47197 22.4124L4.02129 21.1476ZM2.02531 17.4738C1.54939 16.046 1.30663 14.4856 1.30663 12.785H-0.693374C-0.693374 14.6778 -0.422804 16.454 0.127943 18.1062L2.02531 17.4738ZM1.30663 12.785C1.30663 11.1093 1.54896 9.56028 2.02531 8.13123L0.127943 7.49877C-0.422373 9.14972 -0.693374 10.9141 -0.693374 12.785H1.30663ZM2.02245 8.13968C2.5237 6.67953 3.21351 5.43654 4.08356 4.39672L2.54969 3.11328C1.50641 4.36012 0.70289 5.8238 0.130804 7.49031L2.02245 8.13968ZM4.08356 4.39672C4.95117 3.35983 5.98366 2.54893 7.18753 1.95755L6.30572 0.162445C4.84959 0.877737 3.59542 1.8635 2.54969 3.11328L4.08356 4.39672ZM7.18138 1.96055C8.38764 1.37822 9.73055 1.08 11.2266 1.08V-0.92C9.45603 -0.92 7.81228 -0.564883 6.31188 0.159448L7.18138 1.96055ZM11.2266 1.08C12.7229 1.08 14.0515 1.37827 15.2307 1.95755L16.1125 0.162445C14.6318 -0.564943 12.997 -0.92 11.2266 -0.92V1.08ZM15.2496 1.96658C16.4678 2.53369 17.4901 3.32724 18.327 4.35238L19.8763 3.08762C18.8465 1.82609 17.5821 0.846307 16.0937 0.153418L15.2496 1.96658ZM18.3347 4.36172C19.204 5.40068 19.8807 6.62954 20.3579 8.06123L22.2553 7.42877C21.7059 5.78046 20.9126 4.32598 19.8686 3.07828L18.3347 4.36172ZM20.3579 8.06123C20.8343 9.49028 21.0766 11.0393 21.0766 12.715H23.0766C23.0766 10.8441 22.8056 9.07972 22.2553 7.42877L20.3579 8.06123ZM17.5466 12.785C17.5466 11.5887 17.4095 10.4622 17.1275 9.41087L15.1958 9.92913C15.427 10.7911 15.5466 11.7413 15.5466 12.785H17.5466ZM17.1275 9.41087C16.8475 8.36724 16.4454 7.43532 15.9087 6.6303L14.2446 7.7397C14.6412 8.33468 14.9624 9.05943 15.1958 9.92913L17.1275 9.41087ZM15.9087 6.6303C15.3642 5.81358 14.6841 5.15607 13.8673 4.6773L12.8559 6.4027C13.3925 6.71726 13.8557 7.15642 14.2446 7.7397L15.9087 6.6303ZM13.8806 4.68521C13.06 4.18701 12.1433 3.945 11.1566 3.945V5.945C11.8033 5.945 12.3565 6.09965 12.8426 6.39479L13.8806 4.68521ZM11.1566 3.945C10.17 3.945 9.25321 4.18701 8.43265 4.68521L9.4706 6.39479C9.95671 6.09965 10.5099 5.945 11.1566 5.945V3.945ZM8.45549 4.67176C7.65215 5.1308 6.98208 5.78154 6.43958 6.5953L8.10368 7.7047C8.4945 7.11846 8.94443 6.69586 9.44777 6.40824L8.45549 4.67176ZM6.44841 6.58227C5.90519 7.36994 5.50115 8.29588 5.22078 9.34087L7.15247 9.85913C7.38544 8.99079 7.70473 8.28339 8.09484 7.71773L6.44841 6.58227ZM5.21511 9.36304C4.96048 10.407 4.83663 11.5259 4.83663 12.715H6.83663C6.83663 11.6641 6.94611 10.7063 7.15815 9.83696L5.21511 9.36304ZM4.83663 12.715C4.83663 13.9113 4.97371 15.0378 5.25578 16.0891L7.18747 15.5709C6.95621 14.7089 6.83663 13.7587 6.83663 12.715H4.83663ZM5.25578 16.0891C5.53578 17.1328 5.93789 18.0647 6.47458 18.8697L8.13868 17.7603C7.74203 17.1653 7.4208 16.4406 7.18747 15.5709L5.25578 16.0891ZM6.47458 18.8697C7.01413 19.679 7.67713 20.3348 8.46765 20.8148L9.5056 19.1052C8.98946 18.7918 8.53245 18.351 8.13868 17.7603L6.47458 18.8697ZM8.48091 20.8227C9.31741 21.3131 10.2398 21.555 11.2266 21.555V19.555C10.5801 19.555 10.0092 19.4003 9.49235 19.0973L8.48091 20.8227ZM11.2266 21.555C12.202 21.555 13.1106 21.3302 13.9278 20.8632L12.9355 19.1268C12.446 19.4065 11.8846 19.555 11.2266 19.555V21.555ZM13.9506 20.8498C14.7411 20.3698 15.4041 19.714 15.9437 18.9047L14.2796 17.7953C13.8858 18.386 13.4288 18.8268 12.9126 19.1402L13.9506 20.8498ZM15.9437 18.9047C16.4823 18.0967 16.8746 17.1713 17.1318 16.1425L15.1915 15.6575C14.982 16.4953 14.6742 17.2033 14.2796 17.7953L15.9437 18.9047ZM17.1275 16.1591C17.4095 15.1078 17.5466 13.9813 17.5466 12.785H15.5466C15.5466 13.8287 15.427 14.7789 15.1958 15.6409L17.1275 16.1591ZM36.373 5.12L37.0822 5.82499L38.7771 4.12H36.373V5.12ZM26.748 5.12H25.748V6.12H26.748V5.12ZM26.748 0.499998V-0.500002H25.748V0.499998H26.748ZM43.303 0.499998H44.303V-0.500002H43.303V0.499998ZM43.303 4.56L43.9936 5.28326L44.303 4.98782V4.56H43.303ZM37.108 10.475L36.4175 9.75174L34.9712 11.1326L36.9436 11.4614L37.108 10.475ZM39.558 11.14L39.9152 10.2059L39.9152 10.2059L39.558 11.14ZM41.658 12.435L40.9798 13.1698L40.9875 13.177L40.9955 13.184L41.658 12.435ZM43.128 14.465L42.2185 14.8808L42.2232 14.8908L43.128 14.465ZM43.058 20.59L42.1389 20.1961L42.1349 20.2054L42.1311 20.2148L43.058 20.59ZM41.308 23.145L40.6234 22.4162L40.6178 22.4214L40.6122 22.4268L41.308 23.145ZM38.543 24.825L38.2029 23.8846L38.2029 23.8846L38.543 24.825ZM29.198 24.265L28.7401 25.154L28.7481 25.1581L28.7562 25.1621L29.198 24.265ZM25.313 21.185L24.6232 20.461L23.9458 21.1064L24.5448 21.8252L25.313 21.185ZM29.023 17.65L29.7745 16.9902L29.0873 16.2075L28.3332 16.926L29.023 17.65ZM31.648 19.855L31.1567 20.726L31.1698 20.7334L31.1832 20.7404L31.648 19.855ZM37.423 19.785L36.7883 19.0123L36.7814 19.018L36.7746 19.0238L37.423 19.785ZM37.143 15.235L36.5938 16.0708L36.6046 16.0777L37.143 15.235ZM31.368 14.43L30.3967 14.6679L30.5834 15.43H31.368V14.43ZM30.528 11L29.8188 10.295L29.4233 10.6929L29.5567 11.2379L30.528 11ZM36.373 4.12H26.748V6.12H36.373V4.12ZM27.748 5.12V0.499998H25.748V5.12H27.748ZM26.748 1.5H43.303V-0.500002H26.748V1.5ZM42.303 0.499998V4.56H44.303V0.499998H42.303ZM42.6125 3.83674L36.4175 9.75174L37.7986 11.1983L43.9936 5.28326L42.6125 3.83674ZM36.9436 11.4614C37.718 11.5905 38.4701 11.7946 39.2009 12.0741L39.9152 10.2059C39.0593 9.87872 38.1781 9.63955 37.2724 9.48861L36.9436 11.4614ZM39.2009 12.0741C39.879 12.3333 40.4692 12.6985 40.9798 13.1698L42.3363 11.7002C41.6335 11.0515 40.8238 10.5533 39.9152 10.2059L39.2009 12.0741ZM40.9955 13.184C41.4866 13.6185 41.897 14.1773 42.2186 14.8808L44.0375 14.0492C43.6124 13.1193 43.0428 12.3249 42.3206 11.686L40.9955 13.184ZM42.2232 14.8908C42.5178 15.5169 42.688 16.3309 42.688 17.37H44.688C44.688 16.1224 44.4849 14.9998 44.0329 14.0392L42.2232 14.8908ZM42.688 17.37C42.688 18.4141 42.5007 19.3519 42.1389 20.1961L43.9772 20.9839C44.4554 19.8681 44.688 18.6592 44.688 17.37H42.688ZM42.1311 20.2148C41.7886 21.0609 41.2879 21.7919 40.6234 22.4162L41.9927 23.8738C42.8682 23.0515 43.5341 22.0791 43.985 20.9652L42.1311 20.2148ZM40.6122 22.4268C39.9788 23.0404 39.1829 23.5302 38.2029 23.8846L38.8832 25.7654C40.0965 25.3265 41.1439 24.6963 42.0038 23.8632L40.6122 22.4268ZM38.2029 23.8846C37.2312 24.2361 36.1237 24.42 34.868 24.42V26.42C36.3191 26.42 37.6615 26.2073 38.8832 25.7654L38.2029 23.8846ZM34.868 24.42C32.7641 24.42 31.0336 24.0544 29.6399 23.3679L28.7562 25.1621C30.4892 26.0156 32.5386 26.42 34.868 26.42V24.42ZM29.656 23.376C28.2282 22.6405 27.0408 21.6962 26.0813 20.5448L24.5448 21.8252C25.6853 23.1938 27.0878 24.3028 28.7401 25.154L29.656 23.376ZM26.0029 21.909L29.7129 18.374L28.3332 16.926L24.6232 20.461L26.0029 21.909ZM28.2716 18.3098C29.1701 19.3331 30.13 20.1468 31.1567 20.726L32.1394 18.984C31.3461 18.5365 30.5559 17.8802 29.7745 16.9902L28.2716 18.3098ZM31.1832 20.7404C32.2854 21.319 33.5475 21.59 34.938 21.59V19.59C33.8085 19.59 32.8773 19.371 32.1129 18.9696L31.1832 20.7404ZM34.938 21.59C36.1432 21.59 37.2202 21.2715 38.0715 20.5462L36.7746 19.0238C36.3659 19.3719 35.7862 19.59 34.938 19.59V21.59ZM38.0578 20.5577C38.9683 19.8098 39.403 18.7773 39.403 17.58H37.403C37.403 18.2493 37.1844 18.6869 36.7883 19.0123L38.0578 20.5577ZM39.403 17.58C39.403 16.2245 38.8193 15.1193 37.6814 14.3923L36.6046 16.0777C37.1468 16.4241 37.403 16.8822 37.403 17.58H39.403ZM37.6922 14.3993C36.6435 13.7101 35.24 13.43 33.608 13.43V15.43C35.0561 15.43 36.0092 15.6865 36.5939 16.0707L37.6922 14.3993ZM33.608 13.43H31.368V15.43H33.608V13.43ZM32.3393 14.1921L31.4993 10.7621L29.5567 11.2379L30.3967 14.6679L32.3393 14.1921ZM31.2372 11.705L37.0822 5.82499L35.6638 4.41501L29.8188 10.295L31.2372 11.705Z" fill="#9D1C21" mask="url(#path-1-outside-1_202_663)"/>
</svg>
