<svg width="47" height="26" viewBox="0 0 47 26" fill="none" xmlns="http://www.w3.org/2000/svg">
<mask id="path-1-outside-1_202_659" maskUnits="userSpaceOnUse" x="-1.41663" y="-1" width="49" height="28" fill="black">
<rect fill="white" x="-1.41663" y="-1" width="49" height="28"/>
<path d="M22.2434 12.715C22.2434 14.5117 21.975 16.18 21.4384 17.72C20.925 19.26 20.19 20.6017 19.2334 21.745C18.2767 22.8883 17.1217 23.7867 15.7684 24.44C14.4384 25.0933 12.9567 25.42 11.3234 25.42C9.69004 25.42 8.19671 25.105 6.84337 24.475C5.51337 23.8217 4.37004 22.9233 3.41337 21.78C2.48004 20.6367 1.75671 19.3067 1.24337 17.79C0.730041 16.25 0.473374 14.5817 0.473374 12.785C0.473374 11.0117 0.730041 9.355 1.24337 7.815C1.78004 6.25167 2.52671 4.89833 3.48337 3.755C4.44004 2.61167 5.58337 1.71333 6.91337 1.06C8.26671 0.406666 9.76004 0.0799996 11.3934 0.0799996C13.0267 0.0799996 14.5084 0.406666 15.8384 1.06C17.1917 1.69 18.335 2.57667 19.2684 3.72C20.225 4.86333 20.96 6.205 21.4734 7.745C21.9867 9.285 22.2434 10.9417 22.2434 12.715ZM16.7134 12.785C16.7134 11.665 16.585 10.6267 16.3284 9.67C16.0717 8.71333 15.71 7.885 15.2434 7.185C14.7767 6.485 14.205 5.93667 13.5284 5.54C12.875 5.14333 12.14 4.945 11.3234 4.945C10.5067 4.945 9.77171 5.14333 9.11838 5.54C8.46504 5.91333 7.90504 6.45 7.43837 7.15C6.97171 7.82667 6.61004 8.64333 6.35337 9.6C6.12004 10.5567 6.00337 11.595 6.00337 12.715C6.00337 13.835 6.13171 14.8733 6.38837 15.83C6.64504 16.7867 7.00671 17.615 7.47337 18.315C7.94004 19.015 8.50004 19.5633 9.15337 19.96C9.83004 20.3567 10.5767 20.555 11.3934 20.555C12.21 20.555 12.945 20.3683 13.5984 19.995C14.2517 19.5983 14.8117 19.05 15.2784 18.35C15.745 17.65 16.095 16.8333 16.3284 15.9C16.585 14.9433 16.7134 13.905 16.7134 12.785ZM38.6748 0.324998H43.2248V15.34H46.5148V19.715H43.2248V25H38.0798V19.715H26.1098L25.2348 15.9L38.6748 0.324998ZM38.0798 15.34V7.71L31.5698 15.34H38.0798Z"/>
</mask>
<path d="M21.4384 17.72L20.494 17.3909L20.4897 17.4038L21.4384 17.72ZM19.2334 21.745L20.0003 22.3867L20.0003 22.3867L19.2334 21.745ZM15.7684 24.44L15.3336 23.5394L15.3275 23.5424L15.7684 24.44ZM6.84337 24.475L6.40247 25.3726L6.41186 25.3772L6.42134 25.3816L6.84337 24.475ZM3.41337 21.78L2.63866 22.4124L2.64644 22.4217L3.41337 21.78ZM1.24337 17.79L0.294681 18.1062L0.296158 18.1106L1.24337 17.79ZM1.24337 7.815L0.297514 7.4903L0.294691 7.49877L1.24337 7.815ZM3.48337 3.755L2.71644 3.11328L2.71644 3.11328L3.48337 3.755ZM6.91337 1.06L6.47861 0.159427L6.47247 0.162445L6.91337 1.06ZM15.8384 1.06L15.3975 1.95755L15.4069 1.96217L15.4163 1.96658L15.8384 1.06ZM19.2684 3.72L18.4937 4.35242L18.5014 4.36172L19.2684 3.72ZM21.4734 7.745L22.4221 7.42877L22.4221 7.42877L21.4734 7.745ZM16.3284 9.67L17.2942 9.41087L17.2942 9.41087L16.3284 9.67ZM15.2434 7.185L14.4113 7.7397L14.4113 7.7397L15.2434 7.185ZM13.5284 5.54L13.0094 6.39479L13.016 6.39879L13.0227 6.4027L13.5284 5.54ZM9.11838 5.54L9.61451 6.40824L9.62602 6.40166L9.63735 6.39479L9.11838 5.54ZM7.43837 7.15L8.26159 7.71773L8.26606 7.71125L8.27043 7.7047L7.43837 7.15ZM6.35337 9.6L5.38753 9.34087L5.38457 9.35192L5.38185 9.36304L6.35337 9.6ZM6.38837 15.83L5.42253 16.0891L5.42253 16.0891L6.38837 15.83ZM7.47337 18.315L6.64132 18.8697L6.64132 18.8697L7.47337 18.315ZM9.15337 19.96L8.6344 20.8148L8.641 20.8188L8.64766 20.8227L9.15337 19.96ZM13.5984 19.995L14.0945 20.8632L14.106 20.8567L14.1174 20.8498L13.5984 19.995ZM15.2784 18.35L16.1104 18.9047L16.1104 18.9047L15.2784 18.35ZM16.3284 15.9L15.3625 15.6409L15.3603 15.6491L15.3582 15.6575L16.3284 15.9ZM21.2434 12.715C21.2434 14.411 20.9903 15.9669 20.4941 17.3909L22.3827 18.0491C22.9598 16.3931 23.2434 14.6124 23.2434 12.715H21.2434ZM20.4897 17.4038C20.0125 18.8355 19.3358 20.0643 18.4664 21.1033L20.0003 22.3867C21.0443 21.139 21.8376 19.6845 22.3871 18.0362L20.4897 17.4038ZM18.4664 21.1033C17.6016 22.1368 16.5602 22.9473 15.3336 23.5394L16.2031 25.3406C17.6832 24.626 18.9518 23.6398 20.0003 22.3867L18.4664 21.1033ZM15.3275 23.5424C14.1482 24.1217 12.8197 24.42 11.3234 24.42V26.42C13.0937 26.42 14.7285 26.0649 16.2093 25.3376L15.3275 23.5424ZM11.3234 24.42C9.82195 24.42 8.47451 24.1313 7.2654 23.5684L6.42134 25.3816C7.91891 26.0787 9.55813 26.42 11.3234 26.42V24.42ZM7.28428 23.5774C6.08041 22.9861 5.04792 22.1752 4.18031 21.1383L2.64644 22.4217C3.69216 23.6715 4.94634 24.6573 6.40247 25.3726L7.28428 23.5774ZM4.18804 21.1476C3.33661 20.1046 2.6688 18.8823 2.19059 17.4694L0.296158 18.1106C0.844612 19.731 1.62347 21.1687 2.63871 22.4124L4.18804 21.1476ZM2.19206 17.4738C1.71614 16.046 1.47337 14.4856 1.47337 12.785H-0.526626C-0.526626 14.6778 -0.256056 16.454 0.294691 18.1062L2.19206 17.4738ZM1.47337 12.785C1.47337 11.1093 1.71571 9.56028 2.19206 8.13123L0.294691 7.49877C-0.255625 9.14972 -0.526626 10.9141 -0.526626 12.785H1.47337ZM2.1892 8.13968C2.69044 6.67953 3.38026 5.43654 4.25031 4.39672L2.71644 3.11328C1.67316 4.36012 0.869638 5.8238 0.297552 7.49031L2.1892 8.13968ZM4.25031 4.39672C5.11792 3.35983 6.15041 2.54893 7.35428 1.95755L6.47247 0.162445C5.01634 0.877737 3.76217 1.8635 2.71644 3.11328L4.25031 4.39672ZM7.34812 1.96055C8.55439 1.37822 9.8973 1.08 11.3934 1.08V-0.92C9.62278 -0.92 7.97903 -0.564883 6.47863 0.159448L7.34812 1.96055ZM11.3934 1.08C12.8897 1.08 14.2182 1.37827 15.3975 1.95755L16.2793 0.162445C14.7985 -0.564943 13.1637 -0.92 11.3934 -0.92V1.08ZM15.4163 1.96658C16.6346 2.53369 17.6569 3.32724 18.4937 4.35238L20.043 3.08762C19.0132 1.82609 17.7488 0.846307 16.2604 0.153418L15.4163 1.96658ZM18.5014 4.36172C19.3708 5.40068 20.0475 6.62954 20.5247 8.06123L22.4221 7.42877C21.8726 5.78046 21.0793 4.32598 20.0353 3.07828L18.5014 4.36172ZM20.5247 8.06123C21.001 9.49028 21.2434 11.0393 21.2434 12.715H23.2434C23.2434 10.8441 22.9724 9.07972 22.4221 7.42877L20.5247 8.06123ZM17.7134 12.785C17.7134 11.5887 17.5763 10.4622 17.2942 9.41087L15.3625 9.92913C15.5938 10.7911 15.7134 11.7413 15.7134 12.785H17.7134ZM17.2942 9.41087C17.0142 8.36724 16.6121 7.43532 16.0754 6.6303L14.4113 7.7397C14.808 8.33468 15.1292 9.05943 15.3625 9.92913L17.2942 9.41087ZM16.0754 6.6303C15.5309 5.81358 14.8508 5.15607 14.0341 4.6773L13.0227 6.4027C13.5593 6.71726 14.0225 7.15642 14.4113 7.7397L16.0754 6.6303ZM14.0474 4.68521C13.2268 4.18701 12.31 3.945 11.3234 3.945V5.945C11.9701 5.945 12.5233 6.09965 13.0094 6.39479L14.0474 4.68521ZM11.3234 3.945C10.3367 3.945 9.41996 4.18701 8.5994 4.68521L9.63735 6.39479C10.1235 6.09965 10.6767 5.945 11.3234 5.945V3.945ZM8.62224 4.67176C7.8189 5.1308 7.14883 5.78154 6.60632 6.5953L8.27043 7.7047C8.66125 7.11846 9.11118 6.69586 9.61451 6.40824L8.62224 4.67176ZM6.61516 6.58227C6.07194 7.36994 5.6679 8.29588 5.38753 9.34087L7.31922 9.85913C7.55219 8.99079 7.87148 8.28339 8.26159 7.71773L6.61516 6.58227ZM5.38185 9.36304C5.12722 10.407 5.00337 11.5259 5.00337 12.715H7.00337C7.00337 11.6641 7.11286 10.7063 7.32489 9.83696L5.38185 9.36304ZM5.00337 12.715C5.00337 13.9113 5.14046 15.0378 5.42253 16.0891L7.35422 15.5709C7.12296 14.7089 7.00337 13.7587 7.00337 12.715H5.00337ZM5.42253 16.0891C5.70253 17.1328 6.10464 18.0647 6.64132 18.8697L8.30542 17.7603C7.90877 17.1653 7.58755 16.4406 7.35422 15.5709L5.42253 16.0891ZM6.64132 18.8697C7.18088 19.679 7.84388 20.3348 8.6344 20.8148L9.67235 19.1052C9.1562 18.7918 8.6992 18.351 8.30542 17.7603L6.64132 18.8697ZM8.64766 20.8227C9.48416 21.3131 10.4066 21.555 11.3934 21.555V19.555C10.7468 19.555 10.1759 19.4003 9.65909 19.0973L8.64766 20.8227ZM11.3934 21.555C12.3688 21.555 13.2773 21.3302 14.0945 20.8632L13.1022 19.1268C12.6127 19.4065 12.0513 19.555 11.3934 19.555V21.555ZM14.1174 20.8498C14.9079 20.3698 15.5709 19.714 16.1104 18.9047L14.4463 17.7953C14.0525 18.386 13.5955 18.8268 13.0794 19.1402L14.1174 20.8498ZM16.1104 18.9047C16.6491 18.0967 17.0413 17.1713 17.2985 16.1425L15.3582 15.6575C15.1488 16.4953 14.841 17.2033 14.4463 17.7953L16.1104 18.9047ZM17.2942 16.1591C17.5763 15.1078 17.7134 13.9813 17.7134 12.785H15.7134C15.7134 13.8287 15.5938 14.7789 15.3625 15.6409L17.2942 16.1591ZM38.6748 0.324998V-0.675002H38.2169L37.9177 -0.328311L38.6748 0.324998ZM43.2248 0.324998H44.2248V-0.675002H43.2248V0.324998ZM43.2248 15.34H42.2248V16.34H43.2248V15.34ZM46.5148 15.34H47.5148V14.34H46.5148V15.34ZM46.5148 19.715V20.715H47.5148V19.715H46.5148ZM43.2248 19.715V18.715H42.2248V19.715H43.2248ZM43.2248 25V26H44.2248V25H43.2248ZM38.0798 25H37.0798V26H38.0798V25ZM38.0798 19.715H39.0798V18.715H38.0798V19.715ZM26.1098 19.715L25.1351 19.9386L25.3132 20.715H26.1098V19.715ZM25.2348 15.9L24.4777 15.2467L24.1469 15.63L24.2601 16.1236L25.2348 15.9ZM38.0798 15.34V16.34H39.0798V15.34H38.0798ZM38.0798 7.71H39.0798V4.99728L37.319 7.06093L38.0798 7.71ZM31.5698 15.34L30.809 14.6909L29.402 16.34H31.5698V15.34ZM38.6748 1.325H43.2248V-0.675002H38.6748V1.325ZM42.2248 0.324998V15.34H44.2248V0.324998H42.2248ZM43.2248 16.34H46.5148V14.34H43.2248V16.34ZM45.5148 15.34V19.715H47.5148V15.34H45.5148ZM46.5148 18.715H43.2248V20.715H46.5148V18.715ZM42.2248 19.715V25H44.2248V19.715H42.2248ZM43.2248 24H38.0798V26H43.2248V24ZM39.0798 25V19.715H37.0798V25H39.0798ZM38.0798 18.715H26.1098V20.715H38.0798V18.715ZM27.0845 19.4914L26.2095 15.6764L24.2601 16.1236L25.1351 19.9386L27.0845 19.4914ZM25.9919 16.5533L39.4319 0.978308L37.9177 -0.328311L24.4777 15.2467L25.9919 16.5533ZM39.0798 15.34V7.71H37.0798V15.34H39.0798ZM37.319 7.06093L30.809 14.6909L32.3305 15.9891L38.8405 8.35906L37.319 7.06093ZM31.5698 16.34H38.0798V14.34H31.5698V16.34Z" fill="#9D1C21" mask="url(#path-1-outside-1_202_659)"/>
</svg>
