<svg width="45" height="26" viewBox="0 0 45 26" fill="none" xmlns="http://www.w3.org/2000/svg">
<mask id="path-1-outside-1_202_665" maskUnits="userSpaceOnUse" x="-1.25" y="-1" width="47" height="28" fill="black">
<rect fill="white" x="-1.25" y="-1" width="47" height="28"/>
<path d="M22.41 12.715C22.41 14.5117 22.1417 16.18 21.605 17.72C21.0917 19.26 20.3567 20.6017 19.4 21.745C18.4433 22.8883 17.2883 23.7867 15.935 24.44C14.605 25.0933 13.1233 25.42 11.49 25.42C9.85667 25.42 8.36333 25.105 7.01 24.475C5.68 23.8217 4.53667 22.9233 3.58 21.78C2.64667 20.6367 1.92333 19.3067 1.41 17.79C0.896667 16.25 0.64 14.5817 0.64 12.785C0.64 11.0117 0.896667 9.355 1.41 7.815C1.94667 6.25167 2.69333 4.89833 3.65 3.755C4.60667 2.61167 5.75 1.71333 7.08 1.06C8.43333 0.406666 9.92667 0.0799996 11.56 0.0799996C13.1933 0.0799996 14.675 0.406666 16.005 1.06C17.3583 1.69 18.5017 2.57667 19.435 3.72C20.3917 4.86333 21.1267 6.205 21.64 7.745C22.1533 9.285 22.41 10.9417 22.41 12.715ZM16.88 12.785C16.88 11.665 16.7517 10.6267 16.495 9.67C16.2383 8.71333 15.8767 7.885 15.41 7.185C14.9433 6.485 14.3717 5.93667 13.695 5.54C13.0417 5.14333 12.3067 4.945 11.49 4.945C10.6733 4.945 9.93833 5.14333 9.285 5.54C8.63167 5.91333 8.07167 6.45 7.605 7.15C7.13833 7.82667 6.77667 8.64333 6.52 9.6C6.28667 10.5567 6.17 11.595 6.17 12.715C6.17 13.835 6.29833 14.8733 6.555 15.83C6.81167 16.7867 7.17333 17.615 7.64 18.315C8.10667 19.015 8.66667 19.5633 9.32 19.96C9.99667 20.3567 10.7433 20.555 11.56 20.555C12.3767 20.555 13.1117 20.3683 13.765 19.995C14.4183 19.5983 14.9783 19.05 15.445 18.35C15.9117 17.65 16.2617 16.8333 16.495 15.9C16.7517 14.9433 16.88 13.905 16.88 12.785ZM27.4664 12.575L28.1664 0.499998H43.2164V5.225H32.7864L32.5064 9.46C32.9964 9.34333 33.4864 9.25 33.9764 9.18C34.4664 9.08667 35.0497 9.04 35.7264 9.04C36.9397 9.04 38.0597 9.19167 39.0864 9.495C40.1364 9.79833 41.0464 10.265 41.8164 10.895C42.5864 11.525 43.1931 12.3417 43.6364 13.345C44.0797 14.325 44.3014 15.515 44.3014 16.915C44.3014 18.2217 44.0797 19.4 43.6364 20.45C43.1931 21.5 42.5631 22.3983 41.7464 23.145C40.9531 23.8683 39.9731 24.4283 38.8064 24.825C37.6631 25.2217 36.3914 25.42 34.9914 25.42C33.0081 25.42 31.2814 25.0933 29.8114 24.44C28.3414 23.7867 27.0114 22.8883 25.8214 21.745L29.0764 17.86C30.0097 18.7 30.9431 19.3533 31.8764 19.82C32.8097 20.2867 33.8247 20.52 34.9214 20.52C36.1814 20.52 37.1731 20.2283 37.8964 19.645C38.6431 19.0617 39.0164 18.21 39.0164 17.09C39.0164 16.0167 38.6197 15.1883 37.8264 14.605C37.0564 14.0217 36.0064 13.73 34.6764 13.73C33.9064 13.73 33.1714 13.8233 32.4714 14.01C31.7947 14.1733 31.1647 14.3833 30.5814 14.64L27.4664 12.575Z"/>
</mask>
<path d="M21.605 17.72L20.6606 17.3909L20.6563 17.4038L21.605 17.72ZM19.4 21.745L20.1669 22.3867L20.1669 22.3867L19.4 21.745ZM15.935 24.44L15.5002 23.5394L15.4941 23.5424L15.935 24.44ZM7.01 24.475L6.5691 25.3726L6.57849 25.3772L6.58797 25.3816L7.01 24.475ZM3.58 21.78L2.80528 22.4124L2.81306 22.4217L3.58 21.78ZM1.41 17.79L0.461307 18.1062L0.462784 18.1106L1.41 17.79ZM1.41 7.815L0.46414 7.4903L0.461317 7.49877L1.41 7.815ZM3.65 3.755L2.88306 3.11328L2.88306 3.11328L3.65 3.755ZM7.08 1.06L6.64524 0.159427L6.6391 0.162445L7.08 1.06ZM16.005 1.06L15.5641 1.95755L15.5735 1.96217L15.583 1.96658L16.005 1.06ZM19.435 3.72L18.6603 4.35242L18.6681 4.36172L19.435 3.72ZM21.64 7.745L22.5887 7.42877L22.5887 7.42877L21.64 7.745ZM16.495 9.67L17.4608 9.41087L17.4608 9.41087L16.495 9.67ZM15.41 7.185L14.5779 7.7397L14.578 7.7397L15.41 7.185ZM13.695 5.54L13.176 6.39479L13.1826 6.39879L13.1893 6.4027L13.695 5.54ZM9.285 5.54L9.78114 6.40824L9.79265 6.40166L9.80398 6.39479L9.285 5.54ZM7.605 7.15L8.42821 7.71773L8.43268 7.71125L8.43705 7.7047L7.605 7.15ZM6.52 9.6L5.55416 9.34087L5.55119 9.35192L5.54848 9.36304L6.52 9.6ZM6.555 15.83L5.58916 16.0891L5.58916 16.0891L6.555 15.83ZM7.64 18.315L6.80795 18.8697L6.80795 18.8697L7.64 18.315ZM9.32 19.96L8.80102 20.8148L8.80762 20.8188L8.81428 20.8227L9.32 19.96ZM13.765 19.995L14.2611 20.8632L14.2726 20.8567L14.284 20.8498L13.765 19.995ZM15.445 18.35L16.2771 18.9047L16.2771 18.9047L15.445 18.35ZM16.495 15.9L15.5292 15.6409L15.5269 15.6491L15.5249 15.6575L16.495 15.9ZM21.41 12.715C21.41 14.411 21.1569 15.9669 20.6607 17.3909L22.5493 18.0491C23.1264 16.3931 23.41 14.6124 23.41 12.715H21.41ZM20.6563 17.4038C20.1791 18.8355 19.5024 20.0643 18.6331 21.1033L20.1669 22.3867C21.2109 21.139 22.0042 19.6845 22.5537 18.0362L20.6563 17.4038ZM18.6331 21.1033C17.7683 22.1368 16.7268 22.9473 15.5003 23.5394L16.3698 25.3406C17.8499 24.626 19.1184 23.6398 20.1669 22.3867L18.6331 21.1033ZM15.4941 23.5424C14.3149 24.1217 12.9863 24.42 11.49 24.42V26.42C13.2604 26.42 14.8952 26.0649 16.3759 25.3376L15.4941 23.5424ZM11.49 24.42C9.98858 24.42 8.64114 24.1313 7.43203 23.5684L6.58797 25.3816C8.08553 26.0787 9.72476 26.42 11.49 26.42V24.42ZM7.4509 23.5774C6.24703 22.9861 5.21454 22.1752 4.34694 21.1383L2.81306 22.4217C3.85879 23.6715 5.11297 24.6573 6.5691 25.3726L7.4509 23.5774ZM4.35466 21.1476C3.50324 20.1046 2.83543 18.8823 2.35722 17.4694L0.462784 18.1106C1.01124 19.731 1.7901 21.1687 2.80534 22.4124L4.35466 21.1476ZM2.35868 17.4738C1.88276 16.046 1.64 14.4856 1.64 12.785H-0.36C-0.36 14.6778 -0.08943 16.454 0.461317 18.1062L2.35868 17.4738ZM1.64 12.785C1.64 11.1093 1.88233 9.56028 2.35868 8.13123L0.461317 7.49877C-0.0889994 9.14972 -0.36 10.9141 -0.36 12.785H1.64ZM2.35582 8.13968C2.85707 6.67953 3.54688 5.43654 4.41694 4.39672L2.88306 3.11328C1.83978 4.36012 1.03626 5.8238 0.464178 7.49031L2.35582 8.13968ZM4.41694 4.39672C5.28454 3.35983 6.31703 2.54893 7.5209 1.95755L6.6391 0.162445C5.18297 0.877737 3.92879 1.8635 2.88306 3.11328L4.41694 4.39672ZM7.51475 1.96055C8.72102 1.37822 10.0639 1.08 11.56 1.08V-0.92C9.78941 -0.92 8.14565 -0.564883 6.64525 0.159448L7.51475 1.96055ZM11.56 1.08C13.0563 1.08 14.3849 1.37827 15.5641 1.95755L16.4459 0.162445C14.9652 -0.564943 13.3304 -0.92 11.56 -0.92V1.08ZM15.583 1.96658C16.8012 2.53369 17.8235 3.32724 18.6603 4.35238L20.2097 3.08762C19.1798 1.82609 17.9155 0.846307 16.427 0.153418L15.583 1.96658ZM18.6681 4.36172C19.5374 5.40068 20.2141 6.62954 20.6913 8.06123L22.5887 7.42877C22.0392 5.78046 21.2459 4.32598 20.2019 3.07828L18.6681 4.36172ZM20.6913 8.06123C21.1677 9.49028 21.41 11.0393 21.41 12.715H23.41C23.41 10.8441 23.139 9.07972 22.5887 7.42877L20.6913 8.06123ZM17.88 12.785C17.88 11.5887 17.7429 10.4622 17.4608 9.41087L15.5292 9.92913C15.7604 10.7911 15.88 11.7413 15.88 12.785H17.88ZM17.4608 9.41087C17.1808 8.36724 16.7787 7.43532 16.2421 6.6303L14.578 7.7397C14.9746 8.33468 15.2958 9.05943 15.5292 9.92913L17.4608 9.41087ZM16.2421 6.6303C15.6976 5.81358 15.0174 5.15607 14.2007 4.6773L13.1893 6.4027C13.7259 6.71726 14.1891 7.15642 14.5779 7.7397L16.2421 6.6303ZM14.214 4.68521C13.3934 4.18701 12.4767 3.945 11.49 3.945V5.945C12.1367 5.945 12.6899 6.09965 13.176 6.39479L14.214 4.68521ZM11.49 3.945C10.5034 3.945 9.58658 4.18701 8.76602 4.68521L9.80398 6.39479C10.2901 6.09965 10.8433 5.945 11.49 5.945V3.945ZM8.78886 4.67176C7.98553 5.1308 7.31546 5.78154 6.77295 6.5953L8.43705 7.7047C8.82788 7.11846 9.27781 6.69586 9.78114 6.40824L8.78886 4.67176ZM6.78179 6.58227C6.23857 7.36994 5.83452 8.29588 5.55416 9.34087L7.48584 9.85913C7.71881 8.99079 8.0381 8.28339 8.42821 7.71773L6.78179 6.58227ZM5.54848 9.36304C5.29385 10.407 5.17 11.5259 5.17 12.715H7.17C7.17 11.6641 7.27949 10.7063 7.49152 9.83696L5.54848 9.36304ZM5.17 12.715C5.17 13.9113 5.30709 15.0378 5.58916 16.0891L7.52084 15.5709C7.28958 14.7089 7.17 13.7587 7.17 12.715H5.17ZM5.58916 16.0891C5.86916 17.1328 6.27127 18.0647 6.80795 18.8697L8.47205 17.7603C8.0754 17.1653 7.75418 16.4406 7.52084 15.5709L5.58916 16.0891ZM6.80795 18.8697C7.34751 19.679 8.0105 20.3348 8.80102 20.8148L9.83898 19.1052C9.32283 18.7918 8.86583 18.351 8.47205 17.7603L6.80795 18.8697ZM8.81428 20.8227C9.65078 21.3131 10.5732 21.555 11.56 21.555V19.555C10.9135 19.555 10.3426 19.4003 9.82572 19.0973L8.81428 20.8227ZM11.56 21.555C12.5354 21.555 13.444 21.3302 14.2611 20.8632L13.2689 19.1268C12.7794 19.4065 12.2179 19.555 11.56 19.555V21.555ZM14.284 20.8498C15.0745 20.3698 15.7375 19.714 16.2771 18.9047L14.613 17.7953C14.2192 18.386 13.7622 18.8268 13.246 19.1402L14.284 20.8498ZM16.2771 18.9047C16.8157 18.0967 17.2079 17.1713 17.4651 16.1425L15.5249 15.6575C15.3154 16.4953 15.0076 17.2033 14.613 17.7953L16.2771 18.9047ZM17.4608 16.1591C17.7429 15.1078 17.88 13.9813 17.88 12.785H15.88C15.88 13.8287 15.7604 14.7789 15.5292 15.6409L17.4608 16.1591ZM27.4664 12.575L26.4681 12.5171L26.4348 13.0909L26.9139 13.4085L27.4664 12.575ZM28.1664 0.499998V-0.500002H27.2227L27.1681 0.442124L28.1664 0.499998ZM43.2164 0.499998H44.2164V-0.500002H43.2164V0.499998ZM43.2164 5.225V6.225H44.2164V5.225H43.2164ZM32.7864 5.225V4.225H31.8503L31.7886 5.15903L32.7864 5.225ZM32.5064 9.46L31.5086 9.39403L31.4191 10.7468L32.738 10.4328L32.5064 9.46ZM33.9764 9.18L34.1178 10.1699L34.1408 10.1667L34.1635 10.1623L33.9764 9.18ZM39.0864 9.495L38.8031 10.454L38.8089 10.4557L39.0864 9.495ZM41.8164 10.895L41.1832 11.669L41.1832 11.669L41.8164 10.895ZM43.6364 13.345L42.7217 13.7492L42.7253 13.7572L43.6364 13.345ZM43.6364 20.45L42.7152 20.061L42.7152 20.061L43.6364 20.45ZM41.7464 23.145L42.4202 23.884L42.4212 23.883L41.7464 23.145ZM38.8064 24.825L38.4845 23.8782L38.4786 23.8802L38.8064 24.825ZM29.8114 24.44L29.4053 25.3538L29.4053 25.3538L29.8114 24.44ZM25.8214 21.745L25.0549 21.1028L24.4549 21.8189L25.1286 22.4661L25.8214 21.745ZM29.0764 17.86L29.7454 17.1167L28.9753 16.4236L28.3099 17.2178L29.0764 17.86ZM31.8764 19.82L31.4292 20.7144L31.4292 20.7144L31.8764 19.82ZM37.8964 19.645L37.2808 18.857L37.2747 18.8617L37.2687 18.8666L37.8964 19.645ZM37.8264 14.605L37.2225 15.4021L37.2283 15.4064L37.234 15.4107L37.8264 14.605ZM32.4714 14.01L32.706 14.9821L32.7176 14.9793L32.7291 14.9762L32.4714 14.01ZM30.5814 14.64L30.0289 15.4735L30.4842 15.7753L30.9841 15.5553L30.5814 14.64ZM28.4647 12.6329L29.1647 0.557872L27.1681 0.442124L26.4681 12.5171L28.4647 12.6329ZM28.1664 1.5H43.2164V-0.500002H28.1664V1.5ZM42.2164 0.499998V5.225H44.2164V0.499998H42.2164ZM43.2164 4.225H32.7864V6.225H43.2164V4.225ZM31.7886 5.15903L31.5086 9.39403L33.5042 9.52597L33.7842 5.29097L31.7886 5.15903ZM32.738 10.4328C33.1988 10.3231 33.6587 10.2355 34.1178 10.1699L33.835 8.19005C33.3141 8.26446 32.7941 8.36356 32.2748 8.48719L32.738 10.4328ZM34.1635 10.1623C34.5745 10.0841 35.092 10.04 35.7264 10.04V8.04C35.0075 8.04 34.3583 8.08927 33.7893 8.19766L34.1635 10.1623ZM35.7264 10.04C36.8564 10.04 37.8797 10.1812 38.8031 10.454L39.3698 8.53598C38.2398 8.20212 37.0231 8.04 35.7264 8.04V10.04ZM38.8089 10.4557C39.7418 10.7252 40.5278 11.1327 41.1832 11.669L42.4496 10.121C41.565 9.39726 40.531 8.87145 39.3639 8.53429L38.8089 10.4557ZM41.1832 11.669C41.8196 12.1896 42.3353 12.8745 42.7217 13.7492L44.5511 12.9408C44.0509 11.8088 43.3533 10.8604 42.4496 10.121L41.1832 11.669ZM42.7253 13.7572C43.0952 14.5749 43.3014 15.6161 43.3014 16.915H45.3014C45.3014 15.4139 45.0643 14.0751 44.5475 12.9328L42.7253 13.7572ZM43.3014 16.915C43.3014 18.1075 43.0995 19.1508 42.7152 20.061L44.5577 20.839C45.06 19.6492 45.3014 18.3359 45.3014 16.915H43.3014ZM42.7152 20.061C42.3261 20.9824 41.7787 21.7605 41.0716 22.407L42.4212 23.883C43.3474 23.0362 44.06 22.0176 44.5577 20.839L42.7152 20.061ZM41.0727 22.406C40.395 23.0239 39.54 23.5194 38.4845 23.8782L39.1283 25.7718C40.4062 25.3373 41.5111 24.7128 42.4202 23.884L41.0727 22.406ZM38.4786 23.8802C37.4558 24.2351 36.297 24.42 34.9914 24.42V26.42C36.4858 26.42 37.8703 26.2082 39.1342 25.7698L38.4786 23.8802ZM34.9914 24.42C33.1163 24.42 31.5336 24.1111 30.2175 23.5262L29.4053 25.3538C31.0293 26.0756 32.8999 26.42 34.9914 26.42V24.42ZM30.2175 23.5262C28.8563 22.9212 27.6228 22.089 26.5142 21.0239L25.1286 22.4661C26.4 23.6877 27.8265 24.6521 29.4053 25.3538L30.2175 23.5262ZM26.5879 22.3872L29.8429 18.5022L28.3099 17.2178L25.0549 21.1028L26.5879 22.3872ZM28.4074 18.6033C29.3945 19.4916 30.4011 20.2004 31.4292 20.7144L32.3236 18.9256C31.485 18.5063 30.625 17.9084 29.7454 17.1167L28.4074 18.6033ZM31.4292 20.7144C32.5085 21.2541 33.6776 21.52 34.9214 21.52V19.52C33.9719 19.52 33.111 19.3193 32.3236 18.9256L31.4292 20.7144ZM34.9214 21.52C36.3288 21.52 37.5688 21.1938 38.5242 20.4234L37.2687 18.8666C36.7773 19.2628 36.034 19.52 34.9214 19.52V21.52ZM38.5121 20.433C39.5468 19.6246 40.0164 18.455 40.0164 17.09H38.0164C38.0164 17.965 37.7393 18.4987 37.2808 18.857L38.5121 20.433ZM40.0164 17.09C40.0164 15.7318 39.4941 14.59 38.4188 13.7993L37.234 15.4107C37.7454 15.7867 38.0164 16.3015 38.0164 17.09H40.0164ZM38.4303 13.8079C37.4316 13.0513 36.1437 12.73 34.6764 12.73V14.73C35.8691 14.73 36.6812 14.992 37.2225 15.4021L38.4303 13.8079ZM34.6764 12.73C33.8249 12.73 33.0029 12.8333 32.2137 13.0438L32.7291 14.9762C33.3399 14.8133 33.9879 14.73 34.6764 14.73V12.73ZM32.2368 13.0379C31.5077 13.2139 30.8209 13.4421 30.1787 13.7247L30.9841 15.5553C31.5085 15.3246 32.0818 15.1328 32.706 14.9821L32.2368 13.0379ZM31.1339 13.8065L28.0189 11.7415L26.9139 13.4085L30.0289 15.4735L31.1339 13.8065Z" fill="#9D1C21" mask="url(#path-1-outside-1_202_665)"/>
</svg>
