<svg width="46" height="26" viewBox="0 0 46 26" fill="none" xmlns="http://www.w3.org/2000/svg">
<mask id="path-1-outside-1_202_657" maskUnits="userSpaceOnUse" x="-1.58337" y="-1" width="48" height="28" fill="black">
<rect fill="white" x="-1.58337" y="-1" width="48" height="28"/>
<path d="M22.0766 12.715C22.0766 14.5117 21.8083 16.18 21.2716 17.72C20.7583 19.26 20.0233 20.6017 19.0666 21.745C18.11 22.8883 16.955 23.7867 15.6016 24.44C14.2716 25.0933 12.79 25.42 11.1566 25.42C9.52329 25.42 8.02996 25.105 6.67663 24.475C5.34663 23.8217 4.20329 22.9233 3.24663 21.78C2.31329 20.6367 1.58996 19.3067 1.07663 17.79C0.563293 16.25 0.306626 14.5817 0.306626 12.785C0.306626 11.0117 0.563293 9.355 1.07663 7.815C1.61329 6.25167 2.35996 4.89833 3.31663 3.755C4.27329 2.61167 5.41663 1.71333 6.74663 1.06C8.09996 0.406666 9.59329 0.0799996 11.2266 0.0799996C12.86 0.0799996 14.3416 0.406666 15.6716 1.06C17.025 1.69 18.1683 2.57667 19.1016 3.72C20.0583 4.86333 20.7933 6.205 21.3066 7.745C21.82 9.285 22.0766 10.9417 22.0766 12.715ZM16.5466 12.785C16.5466 11.665 16.4183 10.6267 16.1616 9.67C15.905 8.71333 15.5433 7.885 15.0766 7.185C14.61 6.485 14.0383 5.93667 13.3616 5.54C12.7083 5.14333 11.9733 4.945 11.1566 4.945C10.34 4.945 9.60496 5.14333 8.95163 5.54C8.29829 5.91333 7.73829 6.45 7.27163 7.15C6.80496 7.82667 6.44329 8.64333 6.18663 9.6C5.95329 10.5567 5.83663 11.595 5.83663 12.715C5.83663 13.835 5.96496 14.8733 6.22163 15.83C6.47829 16.7867 6.83996 17.615 7.30663 18.315C7.77329 19.015 8.33329 19.5633 8.98663 19.96C9.66329 20.3567 10.41 20.555 11.2266 20.555C12.0433 20.555 12.7783 20.3683 13.4316 19.995C14.085 19.5983 14.645 19.05 15.1116 18.35C15.5783 17.65 15.9283 16.8333 16.1616 15.9C16.4183 14.9433 16.5466 13.905 16.5466 12.785ZM44.283 2.775L41.448 6.94C41.0514 6.63667 40.6664 6.36833 40.293 6.135C39.9197 5.87833 39.5347 5.66833 39.138 5.505C38.7414 5.34167 38.3214 5.21333 37.878 5.12C37.4347 5.02667 36.9564 4.98 36.443 4.98C35.673 4.98 34.9964 5.13167 34.413 5.435C33.853 5.715 33.363 6.11167 32.943 6.625C32.5464 7.115 32.2314 7.71 31.998 8.41C31.7647 9.11 31.6014 9.85667 31.508 10.65C32.1147 10.2533 32.803 9.89167 33.573 9.565C34.3664 9.23833 35.3697 9.075 36.583 9.075C37.7964 9.075 38.928 9.25 39.978 9.6C41.028 9.92667 41.938 10.4167 42.708 11.07C43.478 11.7233 44.0847 12.54 44.528 13.52C44.9714 14.5 45.193 15.6317 45.193 16.915C45.193 18.175 44.948 19.33 44.458 20.38C43.9914 21.4067 43.338 22.305 42.498 23.075C41.6814 23.8217 40.7014 24.405 39.558 24.825C38.4147 25.2217 37.178 25.42 35.848 25.42C34.238 25.42 32.873 25.1983 31.753 24.755C30.633 24.3117 29.6414 23.6583 28.778 22.795C27.8914 21.9083 27.1797 20.7533 26.643 19.33C26.1297 17.8833 25.873 15.935 25.873 13.485C25.873 11.595 26.083 9.83333 26.503 8.2C26.9464 6.56667 27.6114 5.155 28.498 3.965C29.3847 2.75167 30.5047 1.80666 31.858 1.13C33.2114 0.429999 34.798 0.0799996 36.618 0.0799996C37.458 0.0799996 38.228 0.138333 38.928 0.254999C39.628 0.371666 40.2814 0.546666 40.888 0.779999C41.4947 1.01333 42.078 1.305 42.638 1.655C43.198 1.98166 43.7464 2.355 44.283 2.775ZM39.838 17.16C39.838 16.11 39.453 15.2467 38.683 14.57C37.9364 13.8933 36.898 13.555 35.568 13.555C34.238 13.555 33.1997 13.8933 32.453 14.57C31.7297 15.2233 31.368 16.075 31.368 17.125C31.368 18.1983 31.7414 19.085 32.488 19.785C33.258 20.4617 34.308 20.8 35.638 20.8C36.968 20.8 37.9947 20.4617 38.718 19.785C39.4647 19.1083 39.838 18.2333 39.838 17.16Z"/>
</mask>
<path d="M21.2716 17.72L20.3272 17.3909L20.3229 17.4038L21.2716 17.72ZM19.0666 21.745L19.8336 22.3867L19.8336 22.3867L19.0666 21.745ZM15.6016 24.44L15.1669 23.5394L15.1607 23.5424L15.6016 24.44ZM6.67663 24.475L6.23572 25.3726L6.24511 25.3772L6.2546 25.3816L6.67663 24.475ZM3.24663 21.78L2.47191 22.4124L2.47969 22.4217L3.24663 21.78ZM1.07663 17.79L0.127933 18.1062L0.12941 18.1106L1.07663 17.79ZM1.07663 7.815L0.130766 7.4903L0.127943 7.49877L1.07663 7.815ZM3.31663 3.755L2.54969 3.11328L2.54969 3.11328L3.31663 3.755ZM6.74663 1.06L6.31187 0.159427L6.30572 0.162445L6.74663 1.06ZM15.6716 1.06L15.2307 1.95755L15.2401 1.96217L15.2496 1.96658L15.6716 1.06ZM19.1016 3.72L18.3269 4.35242L18.3347 4.36172L19.1016 3.72ZM21.3066 7.745L22.2553 7.42877L22.2553 7.42877L21.3066 7.745ZM16.1616 9.67L17.1275 9.41087L17.1275 9.41087L16.1616 9.67ZM15.0766 7.185L14.2446 7.7397L14.2446 7.7397L15.0766 7.185ZM13.3616 5.54L12.8426 6.39479L12.8492 6.39879L12.8559 6.4027L13.3616 5.54ZM8.95163 5.54L9.44777 6.40824L9.45927 6.40166L9.4706 6.39479L8.95163 5.54ZM7.27163 7.15L8.09484 7.71773L8.09931 7.71125L8.10368 7.7047L7.27163 7.15ZM6.18663 9.6L5.22078 9.34087L5.21782 9.35192L5.21511 9.36304L6.18663 9.6ZM6.22163 15.83L5.25578 16.0891L5.25578 16.0891L6.22163 15.83ZM7.30663 18.315L6.47458 18.8697L6.47458 18.8697L7.30663 18.315ZM8.98663 19.96L8.46765 20.8148L8.47425 20.8188L8.48091 20.8227L8.98663 19.96ZM13.4316 19.995L13.9278 20.8632L13.9393 20.8567L13.9506 20.8498L13.4316 19.995ZM15.1116 18.35L15.9437 18.9047L15.9437 18.9047L15.1116 18.35ZM16.1616 15.9L15.1958 15.6409L15.1936 15.6491L15.1915 15.6575L16.1616 15.9ZM21.0766 12.715C21.0766 14.411 20.8236 15.9669 20.3273 17.3909L22.2159 18.0491C22.793 16.3931 23.0766 14.6124 23.0766 12.715H21.0766ZM20.3229 17.4038C19.8457 18.8355 19.169 20.0643 18.2997 21.1033L19.8336 22.3867C20.8776 21.139 21.6709 19.6845 22.2203 18.0362L20.3229 17.4038ZM18.2997 21.1033C17.4349 22.1368 16.3934 22.9473 15.1669 23.5394L16.0364 25.3406C17.5165 24.626 18.785 23.6398 19.8336 22.3867L18.2997 21.1033ZM15.1607 23.5424C13.9815 24.1217 12.6529 24.42 11.1566 24.42V26.42C12.927 26.42 14.5618 26.0649 16.0425 25.3376L15.1607 23.5424ZM11.1566 24.42C9.6552 24.42 8.30776 24.1313 7.09866 23.5684L6.2546 25.3816C7.75216 26.0787 9.39138 26.42 11.1566 26.42V24.42ZM7.11753 23.5774C5.91366 22.9861 4.88117 22.1752 4.01356 21.1383L2.47969 22.4217C3.52542 23.6715 4.77959 24.6573 6.23572 25.3726L7.11753 23.5774ZM4.02129 21.1476C3.16986 20.1046 2.50205 18.8823 2.02384 17.4694L0.12941 18.1106C0.677864 19.731 1.45672 21.1687 2.47197 22.4124L4.02129 21.1476ZM2.02531 17.4738C1.54939 16.046 1.30663 14.4856 1.30663 12.785H-0.693374C-0.693374 14.6778 -0.422804 16.454 0.127943 18.1062L2.02531 17.4738ZM1.30663 12.785C1.30663 11.1093 1.54896 9.56028 2.02531 8.13123L0.127943 7.49877C-0.422373 9.14972 -0.693374 10.9141 -0.693374 12.785H1.30663ZM2.02245 8.13968C2.5237 6.67953 3.21351 5.43654 4.08356 4.39672L2.54969 3.11328C1.50641 4.36012 0.70289 5.8238 0.130804 7.49031L2.02245 8.13968ZM4.08356 4.39672C4.95117 3.35983 5.98366 2.54893 7.18753 1.95755L6.30572 0.162445C4.84959 0.877737 3.59542 1.8635 2.54969 3.11328L4.08356 4.39672ZM7.18138 1.96055C8.38764 1.37822 9.73055 1.08 11.2266 1.08V-0.92C9.45603 -0.92 7.81228 -0.564883 6.31188 0.159448L7.18138 1.96055ZM11.2266 1.08C12.7229 1.08 14.0515 1.37827 15.2307 1.95755L16.1125 0.162445C14.6318 -0.564943 12.997 -0.92 11.2266 -0.92V1.08ZM15.2496 1.96658C16.4678 2.53369 17.4901 3.32724 18.327 4.35238L19.8763 3.08762C18.8465 1.82609 17.5821 0.846307 16.0937 0.153418L15.2496 1.96658ZM18.3347 4.36172C19.204 5.40068 19.8807 6.62954 20.3579 8.06123L22.2553 7.42877C21.7059 5.78046 20.9126 4.32598 19.8686 3.07828L18.3347 4.36172ZM20.3579 8.06123C20.8343 9.49028 21.0766 11.0393 21.0766 12.715H23.0766C23.0766 10.8441 22.8056 9.07972 22.2553 7.42877L20.3579 8.06123ZM17.5466 12.785C17.5466 11.5887 17.4095 10.4622 17.1275 9.41087L15.1958 9.92913C15.427 10.7911 15.5466 11.7413 15.5466 12.785H17.5466ZM17.1275 9.41087C16.8475 8.36724 16.4454 7.43532 15.9087 6.6303L14.2446 7.7397C14.6412 8.33468 14.9624 9.05943 15.1958 9.92913L17.1275 9.41087ZM15.9087 6.6303C15.3642 5.81358 14.6841 5.15607 13.8673 4.6773L12.8559 6.4027C13.3925 6.71726 13.8557 7.15642 14.2446 7.7397L15.9087 6.6303ZM13.8806 4.68521C13.06 4.18701 12.1433 3.945 11.1566 3.945V5.945C11.8033 5.945 12.3565 6.09965 12.8426 6.39479L13.8806 4.68521ZM11.1566 3.945C10.17 3.945 9.25321 4.18701 8.43265 4.68521L9.4706 6.39479C9.95671 6.09965 10.5099 5.945 11.1566 5.945V3.945ZM8.45549 4.67176C7.65215 5.1308 6.98208 5.78154 6.43958 6.5953L8.10368 7.7047C8.4945 7.11846 8.94443 6.69586 9.44777 6.40824L8.45549 4.67176ZM6.44841 6.58227C5.90519 7.36994 5.50115 8.29588 5.22078 9.34087L7.15247 9.85913C7.38544 8.99079 7.70473 8.28339 8.09484 7.71773L6.44841 6.58227ZM5.21511 9.36304C4.96048 10.407 4.83663 11.5259 4.83663 12.715H6.83663C6.83663 11.6641 6.94611 10.7063 7.15815 9.83696L5.21511 9.36304ZM4.83663 12.715C4.83663 13.9113 4.97371 15.0378 5.25578 16.0891L7.18747 15.5709C6.95621 14.7089 6.83663 13.7587 6.83663 12.715H4.83663ZM5.25578 16.0891C5.53578 17.1328 5.93789 18.0647 6.47458 18.8697L8.13868 17.7603C7.74203 17.1653 7.4208 16.4406 7.18747 15.5709L5.25578 16.0891ZM6.47458 18.8697C7.01413 19.679 7.67713 20.3348 8.46765 20.8148L9.5056 19.1052C8.98946 18.7918 8.53245 18.351 8.13868 17.7603L6.47458 18.8697ZM8.48091 20.8227C9.31741 21.3131 10.2398 21.555 11.2266 21.555V19.555C10.5801 19.555 10.0092 19.4003 9.49235 19.0973L8.48091 20.8227ZM11.2266 21.555C12.202 21.555 13.1106 21.3302 13.9278 20.8632L12.9355 19.1268C12.446 19.4065 11.8846 19.555 11.2266 19.555V21.555ZM13.9506 20.8498C14.7411 20.3698 15.4041 19.714 15.9437 18.9047L14.2796 17.7953C13.8858 18.386 13.4288 18.8268 12.9126 19.1402L13.9506 20.8498ZM15.9437 18.9047C16.4823 18.0967 16.8746 17.1713 17.1318 16.1425L15.1915 15.6575C14.982 16.4953 14.6742 17.2033 14.2796 17.7953L15.9437 18.9047ZM17.1275 16.1591C17.4095 15.1078 17.5466 13.9813 17.5466 12.785H15.5466C15.5466 13.8287 15.427 14.7789 15.1958 15.6409L17.1275 16.1591ZM44.283 2.775L45.1097 3.33769L45.6362 2.56417L44.8993 1.98749L44.283 2.775ZM41.448 6.94L40.8406 7.73436L41.6801 8.37631L42.2747 7.50269L41.448 6.94ZM40.293 6.135L39.7265 6.95904L39.7445 6.97142L39.763 6.983L40.293 6.135ZM39.138 5.505L39.5188 4.58032L39.5188 4.58032L39.138 5.505ZM34.413 5.435L34.8602 6.32943L34.8673 6.32588L34.8744 6.32222L34.413 5.435ZM32.943 6.625L32.1691 5.99175L32.1658 5.9958L32.943 6.625ZM31.998 8.41L32.9467 8.72623L32.9467 8.72623L31.998 8.41ZM31.508 10.65L30.5149 10.5332L30.265 12.6576L32.0553 11.487L31.508 10.65ZM33.573 9.565L33.1923 8.64027L33.1825 8.64442L33.573 9.565ZM39.978 9.6L39.6618 10.5487L39.6714 10.5519L39.681 10.5549L39.978 9.6ZM42.708 11.07L43.355 10.3075L43.355 10.3075L42.708 11.07ZM44.458 20.38L43.5518 19.9571L43.5477 19.9662L44.458 20.38ZM42.498 23.075L43.1728 23.813L43.1738 23.8122L42.498 23.075ZM39.558 24.825L39.8858 25.7698L39.8944 25.7668L39.9029 25.7637L39.558 24.825ZM31.753 24.755L32.1211 23.8252L32.1211 23.8252L31.753 24.755ZM26.643 19.33L25.7006 19.6644L25.7039 19.6736L25.7073 19.6828L26.643 19.33ZM26.503 8.2L25.5379 7.93803L25.5345 7.95096L26.503 8.2ZM28.498 3.965L29.2999 4.56251L29.3054 4.55502L28.498 3.965ZM31.858 1.13L32.3053 2.02451L32.3175 2.01822L31.858 1.13ZM42.638 1.655L42.108 2.503L42.121 2.51109L42.1342 2.51878L42.638 1.655ZM38.683 14.57L38.0115 15.311L38.0172 15.3161L38.0229 15.3212L38.683 14.57ZM32.453 14.57L33.1233 15.3121L33.1246 15.311L32.453 14.57ZM32.488 19.785L31.8041 20.5145L31.8158 20.5255L31.8279 20.5362L32.488 19.785ZM38.718 19.785L38.0465 19.044L38.0407 19.0493L38.0349 19.0547L38.718 19.785ZM43.4564 2.21231L40.6214 6.37731L42.2747 7.50269L45.1097 3.33769L43.4564 2.21231ZM42.0555 6.14564C41.6371 5.8257 41.2263 5.53902 40.823 5.287L39.763 6.983C40.1065 7.19764 40.4656 7.44763 40.8406 7.73436L42.0555 6.14564ZM40.8596 5.31096C40.4313 5.01651 39.9843 4.77201 39.5188 4.58032L38.7573 6.42968C39.0851 6.56466 39.4081 6.74015 39.7265 6.95904L40.8596 5.31096ZM39.5188 4.58032C39.0626 4.39247 38.5838 4.24667 38.084 4.14145L37.672 6.09855C38.0589 6.18 38.4202 6.29086 38.7573 6.42968L39.5188 4.58032ZM38.084 4.14145C37.5647 4.03212 37.0166 3.98 36.443 3.98V5.98C36.8961 5.98 37.3047 6.02121 37.672 6.09855L38.084 4.14145ZM36.443 3.98C35.5399 3.98 34.7 4.15863 33.9517 4.54778L34.8744 6.32222C35.2927 6.1047 35.8062 5.98 36.443 5.98V3.98ZM33.9658 4.54057C33.2723 4.88733 32.673 5.3759 32.1691 5.99176L33.717 7.25824C34.0531 6.84743 34.4338 6.54267 34.8602 6.32943L33.9658 4.54057ZM32.1658 5.9958C31.682 6.59341 31.3143 7.29903 31.0493 8.09377L32.9467 8.72623C33.1485 8.12097 33.4107 7.63659 33.7203 7.2542L32.1658 5.9958ZM31.0493 8.09377C30.7927 8.86362 30.6155 9.67755 30.5149 10.5332L32.5012 10.7668C32.5872 10.0358 32.7367 9.35638 32.9467 8.72623L31.0493 8.09377ZM32.0553 11.487C32.6054 11.1273 33.2401 10.7925 33.9636 10.4856L33.1825 8.64442C32.366 8.9908 31.624 9.3794 30.9608 9.81303L32.0553 11.487ZM33.9538 10.4897C34.5874 10.2288 35.4503 10.075 36.583 10.075V8.075C35.2891 8.075 34.1454 8.24787 33.1923 8.64032L33.9538 10.4897ZM36.583 10.075C37.6992 10.075 38.7231 10.2358 39.6618 10.5487L40.2943 8.65132C39.133 8.26422 37.8936 8.075 36.583 8.075V10.075ZM39.681 10.5549C40.6141 10.8452 41.4024 11.2736 42.0611 11.8325L43.355 10.3075C42.4737 9.5597 41.442 9.00817 40.2751 8.64514L39.681 10.5549ZM42.0611 11.8325C42.7109 12.3839 43.2306 13.0781 43.6169 13.9322L45.4391 13.1078C44.9388 12.0019 44.2452 11.0628 43.355 10.3075L42.0611 11.8325ZM43.6169 13.9322C43.9915 14.7601 44.193 15.7468 44.193 16.915H46.193C46.193 15.5166 45.9513 14.2399 45.4391 13.1078L43.6169 13.9322ZM44.193 16.915C44.193 18.0418 43.9748 19.0508 43.5519 19.9571L45.3642 20.8029C45.9213 19.6092 46.193 18.3082 46.193 16.915H44.193ZM43.5477 19.9662C43.1373 20.8691 42.5642 21.6578 41.8223 22.3378L43.1738 23.8122C44.1119 22.9522 44.8455 21.9442 45.3684 20.7938L43.5477 19.9662ZM41.8233 22.337C41.1117 22.9875 40.2469 23.5066 39.2132 23.8863L39.9029 25.7637C41.1558 25.3034 42.251 24.6558 43.1728 23.813L41.8233 22.337ZM39.2303 23.8802C38.2023 24.2369 37.0775 24.42 35.848 24.42V26.42C37.2786 26.42 38.6271 26.2064 39.8858 25.7698L39.2303 23.8802ZM35.848 24.42C34.3241 24.42 33.0918 24.2094 32.1211 23.8252L31.385 25.6848C32.6543 26.1872 34.152 26.42 35.848 26.42V24.42ZM32.1211 23.8252C31.1299 23.4328 30.2532 22.856 29.4851 22.0879L28.0709 23.5021C29.0295 24.4607 30.1362 25.1905 31.385 25.6848L32.1211 23.8252ZM29.4851 22.0879C28.718 21.3208 28.0757 20.2953 27.5787 18.9772L25.7073 19.6828C26.2837 21.2114 27.0647 22.4959 28.0709 23.5021L29.4851 22.0879ZM27.5855 18.9956C27.126 17.7009 26.873 15.8806 26.873 13.485H24.873C24.873 15.9894 25.1334 18.0658 25.7006 19.6644L27.5855 18.9956ZM26.873 13.485C26.873 11.6691 27.0748 9.99191 27.4715 8.44904L25.5345 7.95096C25.0913 9.67476 24.873 11.5209 24.873 13.485H26.873ZM27.4681 8.46195C27.8832 6.93285 28.498 5.63875 29.2999 4.56248L27.6961 3.36752C26.7247 4.67125 26.0096 6.20048 25.538 7.93805L27.4681 8.46195ZM29.3054 4.55502C30.0973 3.47133 31.0935 2.6303 32.3052 2.02443L31.4108 0.235571C29.9159 0.983034 28.6721 2.032 27.6906 3.37498L29.3054 4.55502ZM32.3175 2.01822C33.5037 1.40466 34.927 1.08 36.618 1.08V-0.92C34.6691 -0.92 32.9191 -0.544658 31.3986 0.241781L32.3175 2.01822ZM36.618 1.08C37.4127 1.08 38.1268 1.13525 38.7636 1.24139L39.0924 -0.731395C38.3293 -0.858583 37.5034 -0.92 36.618 -0.92V1.08ZM38.7636 1.24139C39.4032 1.34798 39.9907 1.5063 40.5291 1.71334L41.247 -0.153347C40.572 -0.412968 39.8529 -0.604649 39.0924 -0.731395L38.7636 1.24139ZM40.5291 1.71334C41.0752 1.92339 41.6013 2.1863 42.108 2.503L43.168 0.806999C42.5547 0.423698 41.9142 0.103274 41.247 -0.153347L40.5291 1.71334ZM42.1342 2.51878C42.6531 2.82147 43.164 3.16903 43.6667 3.5625L44.8993 1.98749C44.3288 1.54096 43.743 1.14186 43.1419 0.791219L42.1342 2.51878ZM40.838 17.16C40.838 15.8304 40.3351 14.6906 39.3431 13.8188L38.0229 15.3212C38.5709 15.8028 38.838 16.3896 38.838 17.16H40.838ZM39.3546 13.829C38.3716 12.9382 37.0651 12.555 35.568 12.555V14.555C36.7309 14.555 37.5011 14.8485 38.0115 15.311L39.3546 13.829ZM35.568 12.555C34.0709 12.555 32.7645 12.9382 31.7815 13.829L33.1246 15.311C33.6349 14.8485 34.4051 14.555 35.568 14.555V12.555ZM31.7827 13.8279C30.8319 14.6867 30.368 15.8167 30.368 17.125H32.368C32.368 16.3333 32.6275 15.76 33.1233 15.3121L31.7827 13.8279ZM30.368 17.125C30.368 18.4596 30.845 19.6154 31.8041 20.5145L33.172 19.0555C32.6377 18.5546 32.368 17.9371 32.368 17.125H30.368ZM31.8279 20.5362C32.8292 21.4161 34.139 21.8 35.638 21.8V19.8C34.477 19.8 33.6868 19.5072 33.1481 19.0338L31.8279 20.5362ZM35.638 21.8C37.133 21.8 38.4366 21.4176 39.4012 20.5153L38.0349 19.0547C37.5528 19.5057 36.8031 19.8 35.638 19.8V21.8ZM39.3896 20.526C40.3603 19.6463 40.838 18.4949 40.838 17.16H38.838C38.838 17.9718 38.5691 18.5704 38.0465 19.044L39.3896 20.526Z" fill="#9D1C21" mask="url(#path-1-outside-1_202_657)"/>
</svg>
