<svg width="113" height="113" viewBox="0 0 113 113" fill="none" xmlns="http://www.w3.org/2000/svg">
<g clip-path="url(#clip0_56_146)">
<path d="M90.4177 45.0234L88.9699 47.5483C88.4402 48.484 87.3102 48.8725 86.3038 48.5017C84.2203 47.7248 82.3135 46.6125 80.6361 45.2176C79.8239 44.5467 79.612 43.3637 80.1417 42.4456L81.5895 39.9208C80.3713 38.5083 79.4178 36.8662 78.7822 35.083H75.8689C74.8095 35.083 73.8914 34.3237 73.7149 33.2644C73.3617 31.1456 73.3441 28.9209 73.7149 26.7139C73.8914 25.6545 74.8095 24.8776 75.8689 24.8776H78.7822C79.4178 23.0944 80.3713 21.4523 81.5895 20.0398L80.1417 17.515C79.612 16.5969 79.8063 15.4139 80.6361 14.743C82.3135 13.3481 84.238 12.2358 86.3038 11.4589C87.3102 11.0881 88.4402 11.4765 88.9699 12.4123L90.4177 14.9372C92.2716 14.6017 94.1608 14.6017 96.0147 14.9372L97.4625 12.4123C97.9922 11.4765 99.1222 11.0881 100.129 11.4589C102.212 12.2358 104.119 13.3481 105.796 14.743C106.608 15.4139 106.82 16.5969 106.291 17.515L104.843 20.0398C106.061 21.4523 107.015 23.0944 107.65 24.8776H110.563C111.623 24.8776 112.541 25.6369 112.718 26.6962C113.071 28.815 113.088 31.0397 112.718 33.2467C112.541 34.3061 111.623 35.083 110.563 35.083H107.65C107.015 36.8662 106.061 38.5083 104.843 39.9208L106.291 42.4456C106.82 43.3637 106.626 44.5467 105.796 45.2176C104.119 46.6125 102.194 47.7248 100.129 48.5017C99.1222 48.8725 97.9922 48.484 97.4625 47.5483L96.0147 45.0234C94.1784 45.3589 92.2716 45.3589 90.4177 45.0234ZM88.5638 34.6415C95.3614 39.8678 103.113 32.1167 97.8863 25.319C91.0886 20.0751 83.3375 27.8439 88.5638 34.6415ZM68.2061 61.8145L74.1563 64.7808C75.9395 65.8048 76.7164 67.9765 76.0102 69.9187C74.4388 74.1915 71.3489 78.1112 68.4886 81.5365C67.182 83.1079 64.922 83.4964 63.1388 82.4723L58.0008 79.5061C55.1758 81.925 51.8917 83.8495 48.3075 85.1031V91.0356C48.3075 93.0837 46.842 94.8494 44.8292 95.2025C40.4858 95.944 35.9305 95.9794 31.4281 95.2025C29.3977 94.8494 27.8969 93.1014 27.8969 91.0356V85.1031C24.3127 83.8319 21.0286 81.925 18.2036 79.5061L13.0656 82.4547C11.3 83.4787 9.02235 83.0903 7.71579 81.5189C4.85548 78.0936 1.83626 74.1739 0.264854 69.9187C-0.441396 67.9942 0.335479 65.8225 2.11876 64.7808L7.99829 61.8145C7.3097 58.1244 7.3097 54.3283 7.99829 50.6205L2.11876 47.6365C0.335479 46.6125 -0.459053 44.4408 0.264854 42.5162C1.83626 38.2434 4.85548 34.3237 7.71579 30.8984C9.02235 29.327 11.2824 28.9386 13.0656 29.9626L18.2036 32.9289C21.0286 30.51 24.3127 28.5855 27.8969 27.3319V21.3817C27.8969 19.3512 29.3447 17.5856 31.3575 17.2325C35.7009 16.4909 40.2739 16.4556 44.7763 17.2148C46.8067 17.568 48.3075 19.3159 48.3075 21.3817V27.3142C51.8917 28.5855 55.1758 30.4923 58.0008 32.9112L63.1388 29.945C64.9044 28.9209 67.182 29.3094 68.4886 30.8808C71.3489 34.3061 74.3505 38.2258 75.9219 42.4986C76.6281 44.4231 75.9395 46.5948 74.1563 47.6365L68.2061 50.6028C68.8947 54.3106 68.8947 58.1067 68.2061 61.8145ZM47.4424 65.54C57.8949 51.9447 42.375 36.4248 28.7797 46.8773C18.3272 60.4726 33.847 75.9925 47.4424 65.54ZM90.4177 97.7979L88.9699 100.323C88.4402 101.259 87.3102 101.647 86.3038 101.276C84.2203 100.499 82.3135 99.387 80.6361 97.9922C79.8239 97.3212 79.612 96.1383 80.1417 95.2201L81.5895 92.6953C80.3713 91.2828 79.4178 89.6408 78.7822 87.8575H75.8689C74.8095 87.8575 73.8914 87.0983 73.7149 86.0389C73.3617 83.9201 73.3441 81.6955 73.7149 79.4884C73.8914 78.429 74.8095 77.6522 75.8689 77.6522H78.7822C79.4178 75.8689 80.3713 74.2269 81.5895 72.8144L80.1417 70.2895C79.612 69.3714 79.8063 68.1884 80.6361 67.5175C82.3135 66.1226 84.238 65.0103 86.3038 64.2334C87.3102 63.8626 88.4402 64.2511 88.9699 65.1869L90.4177 67.7117C92.2716 67.3762 94.1608 67.3762 96.0147 67.7117L97.4625 65.1869C97.9922 64.2511 99.1222 63.8626 100.129 64.2334C102.212 65.0103 104.119 66.1226 105.796 67.5175C106.608 68.1884 106.82 69.3714 106.291 70.2895L104.843 72.8144C106.061 74.2269 107.015 75.8689 107.65 77.6522H110.563C111.623 77.6522 112.541 78.4114 112.718 79.4708C113.071 81.5895 113.088 83.8142 112.718 86.0212C112.541 87.0806 111.623 87.8575 110.563 87.8575H107.65C107.015 89.6408 106.061 91.2828 104.843 92.6953L106.291 95.2201C106.82 96.1383 106.626 97.3212 105.796 97.9922C104.119 99.387 102.194 100.499 100.129 101.276C99.1222 101.647 97.9922 101.259 97.4625 100.323L96.0147 97.7979C94.1784 98.1334 92.2716 98.1334 90.4177 97.7979ZM88.5638 87.3984C95.3614 92.6247 103.113 84.8736 97.8863 78.0759C91.0886 72.8497 83.3375 80.6008 88.5638 87.3984Z" fill="white"/>
</g>
<defs>
<clipPath id="clip0_56_146">
<rect width="113" height="113" fill="white"/>
</clipPath>
</defs>
</svg>
