<svg width="101" height="100" viewBox="0 0 101 100" fill="none" xmlns="http://www.w3.org/2000/svg">
<g clip-path="url(#clip0_56_166)">
<path d="M99.666 21.3085C99.2285 19.5449 97.0215 18.9472 95.7363 20.2324L81.2129 34.7558L67.9551 32.5468L65.7461 19.289L80.2695 4.76558C81.5625 3.47261 80.9395 1.26949 79.1641 0.82808C69.9102 -1.46489 59.7207 1.00581 52.4883 8.23628C44.7461 15.9785 42.6152 27.2011 45.8379 36.9863L4.16016 78.664C-0.720703 83.5449 -0.720703 91.4589 4.16016 96.3398C9.04102 101.221 16.9551 101.221 21.8359 96.3398L63.4785 54.6972C73.2676 57.9609 84.4688 55.8066 92.2617 48.0136C99.502 40.7734 101.969 30.5683 99.666 21.3085ZM13 92.1875C10.4121 92.1875 8.3125 90.0878 8.3125 87.5C8.3125 84.9101 10.4121 82.8125 13 82.8125C15.5879 82.8125 17.6875 84.9101 17.6875 87.5C17.6875 90.0878 15.5879 92.1875 13 92.1875Z" fill="white"/>
</g>
<defs>
<clipPath id="clip0_56_166">
<rect width="100" height="100" fill="white" transform="translate(0.5)"/>
</clipPath>
</defs>
</svg>
