<svg width="101" height="110" viewBox="0 0 101 110" fill="none" xmlns="http://www.w3.org/2000/svg">
<g clip-path="url(#clip0_56_155)">
<path d="M89.7598 73.9965C84.8672 78.3643 79.4805 81.9844 73.6387 84.5346L84.2598 104.771L94.7969 109.721C96.7129 110.621 98.877 109.246 99.127 106.971L100.498 94.4561L89.7598 73.9965ZM98.0586 53.6809C99.0078 52.033 98.4277 49.8158 96.877 48.8705L91.3945 45.5254C89.9336 44.6338 88.1504 45.2117 87.2422 46.7543C79.2129 60.4033 65.3926 68.75 50.5 68.75C45.8262 68.75 41.2754 67.8369 36.9434 66.2729L50.0996 41.2049C50.2363 41.2092 50.3613 41.25 50.498 41.25C50.6348 41.25 50.7617 41.2092 50.8965 41.2049L60.875 60.2186C66.9746 58.2936 72.5078 54.6863 77.0098 49.7084L66.8945 30.4348C68.3496 27.5064 69.25 24.1979 69.25 20.625C69.25 9.23398 60.8555 0 50.5 0C40.1445 0 31.75 9.23398 31.75 20.625C31.75 24.1979 32.6504 27.5064 34.1035 30.4348L20.7637 55.8529C18.3125 53.3586 16.084 50.5699 14.1855 47.474C13.25 45.9486 11.457 45.4072 10.0098 46.3289L4.58984 49.7814C3.05664 50.7568 2.51367 52.9826 3.48828 54.609C6.5293 59.6879 10.2637 64.1072 14.4219 67.9336L0.5 94.4582L1.87109 106.973C2.12109 109.248 4.28516 110.623 6.20117 109.723L16.7383 104.773L30.5664 78.4266C36.8535 81.0563 43.5898 82.5 50.5 82.5C69.8457 82.5 87.7812 71.5408 98.0586 53.6809ZM50.5 13.75C53.9512 13.75 56.75 16.8287 56.75 20.625C56.75 24.4213 53.9512 27.5 50.5 27.5C47.0488 27.5 44.25 24.4213 44.25 20.625C44.25 16.8287 47.0488 13.75 50.5 13.75Z" fill="white"/>
</g>
<defs>
<clipPath id="clip0_56_155">
<rect width="100" height="110" fill="white" transform="translate(0.5)"/>
</clipPath>
</defs>
</svg>
