<svg width="113" height="113" viewBox="0 0 113 113" fill="none" xmlns="http://www.w3.org/2000/svg">
<path d="M107.791 71.5609C108.25 69.0714 108.25 66.5289 107.791 64.0393L112.347 61.4086C112.876 61.1084 113.106 60.4904 112.929 59.9078C111.746 56.094 109.716 52.6334 107.068 49.7731C106.661 49.3317 106.008 49.2257 105.478 49.5259L100.923 52.1567C98.9986 50.5146 96.7916 49.2434 94.408 48.3959V43.1343C94.408 42.534 93.9842 42.0043 93.4016 41.8807C89.4642 40.9979 85.4563 41.0332 81.7131 41.8807C81.1305 42.0043 80.7067 42.534 80.7067 43.1343V48.3959C78.3231 49.2434 76.1161 50.5146 74.1916 52.1567L69.6363 49.5259C69.1242 49.2257 68.4533 49.3317 68.0472 49.7731C65.3988 52.6334 63.3683 56.094 62.1853 59.9078C62.0088 60.4904 62.2559 61.1084 62.768 61.4086L67.3233 64.0393C66.8642 66.5289 66.8642 69.0714 67.3233 71.5609L62.768 74.1917C62.2383 74.4918 62.0088 75.1098 62.1853 75.6925C63.3683 79.5062 65.3988 82.9492 68.0472 85.8271C68.4533 86.2686 69.1066 86.3745 69.6363 86.0743L74.1916 83.4436C76.1161 85.0856 78.3231 86.3568 80.7067 87.2043V92.4659C80.7067 93.0662 81.1305 93.5959 81.7131 93.7195C85.6505 94.6023 89.6584 94.567 93.4016 93.7195C93.9842 93.5959 94.408 93.0662 94.408 92.4659V87.2043C96.7916 86.3568 98.9986 85.0856 100.923 83.4436L105.478 86.0743C105.99 86.3745 106.661 86.2686 107.068 85.8271C109.716 82.9668 111.746 79.5062 112.929 75.6925C113.106 75.1098 112.859 74.4918 112.347 74.1917L107.791 71.5609ZM87.575 76.3634C82.8431 76.3634 79.0117 72.5143 79.0117 67.8001C79.0117 63.0859 82.8608 59.2368 87.575 59.2368C92.2892 59.2368 96.1383 63.0859 96.1383 67.8001C96.1383 72.5143 92.3069 76.3634 87.575 76.3634ZM16.95 50.8501C23.1827 50.8501 28.25 45.7828 28.25 39.5501C28.25 33.3175 23.1827 28.2501 16.95 28.2501C10.7173 28.2501 5.65 33.3175 5.65 39.5501C5.65 45.7828 10.7173 50.8501 16.95 50.8501ZM56.5 56.5001C56.8355 56.5001 57.1533 56.4118 57.4888 56.3942C58.9542 52.5628 61.1083 48.9609 63.898 45.9417C65.2045 44.5292 67.0584 43.717 69.0006 43.717C70.2189 43.717 71.4195 44.0348 72.4613 44.6528L73.8561 45.465C73.9973 45.3767 74.1386 45.3061 74.2798 45.2178C75.5158 42.64 76.2573 39.7796 76.2573 36.7428C76.2573 25.8136 67.4116 16.9678 56.4823 16.9678C45.5531 16.9678 36.725 25.7959 36.725 36.7251C36.725 47.6543 45.5708 56.5001 56.5 56.5001ZM75.0744 90.8415C74.6683 90.6296 74.2622 90.3825 73.8737 90.1529C72.4259 91.0004 71.1723 91.8832 69.0183 91.8832C67.0938 91.8832 65.2398 91.0711 63.9156 89.6586C60.6845 86.1626 58.2127 81.9075 56.8178 77.3698C54.9286 71.2784 61.2142 68.5946 61.3731 68.4887C61.3555 68.0296 61.3555 67.5706 61.3731 67.1115L59.9783 66.2993C59.3073 65.9109 58.7423 65.4165 58.248 64.8692C57.6653 64.9045 57.1003 64.9751 56.5177 64.9751C52.1742 64.9751 48.1133 63.9157 44.4231 62.1501H42.9577C31.7106 62.1501 22.6 71.2607 22.6 82.4901V87.5751C22.6 92.254 26.3961 96.0501 31.075 96.0501H76.1691C75.5158 94.9907 75.0744 93.7901 75.0744 92.4659V90.8415ZM30.563 59.7842C28.5148 57.7537 25.7075 56.5001 22.6 56.5001H11.3C5.06734 56.5001 0 61.5675 0 67.8001V73.4501C0 76.5753 2.52484 79.1001 5.65 79.1001H17.2855C18.3978 70.7311 23.4475 63.6862 30.563 59.7842Z" fill="white"/>
</svg>
