<svg width="57" height="57" viewBox="0 0 57 57" fill="none" xmlns="http://www.w3.org/2000/svg">
<path d="M11.1606 42.6665C11.1606 42.4883 11.1328 42.3158 11.0771 42.1543H21.876V23.2341C21.876 22.928 22.1265 22.6775 22.4326 22.6775C22.7388 22.6775 22.9893 22.928 22.9893 23.2341V43.2676H11.0438C11.1161 43.0839 11.1606 42.878 11.1606 42.6665Z" fill="white"/>
<path d="M44.1861 44.0693C44.381 43.585 44.8541 43.2399 45.4107 43.2399C46.1399 43.2399 46.73 43.8299 46.73 44.5591C46.73 45.2883 46.1399 45.8783 45.4107 45.8783C44.8819 45.8783 44.4255 45.5666 44.214 45.1157C44.136 44.9488 44.0915 44.7595 44.0915 44.5591C44.0915 44.3865 44.1249 44.2196 44.1861 44.0693Z" fill="#E6E6E6"/>
<path d="M9.5631 41.0745C10.2645 41.0745 10.8601 41.5254 11.0716 42.1544C11.1273 42.3158 11.1551 42.4883 11.1551 42.6665C11.1551 42.878 11.1161 43.0784 11.0382 43.2676C10.7988 43.8521 10.2311 44.264 9.55753 44.264C8.67804 44.264 7.95997 43.5515 7.95997 42.6665C7.96554 41.787 8.68361 41.0745 9.5631 41.0745ZM18.0352 14.3446C17.9183 14.0607 18.0519 13.7323 18.3358 13.6154C22.6776 11.8174 25.8671 12.747 27.7764 13.8436C29.8471 15.0293 30.8769 16.6379 30.9158 16.7103C31.0773 16.9719 30.9993 17.3115 30.7433 17.4785C30.6486 17.5341 30.5485 17.562 30.4483 17.562C30.2646 17.562 30.0809 17.4729 29.9751 17.3059C29.964 17.2892 29.0233 15.8364 27.1808 14.7899C24.726 13.4039 21.8983 13.3538 18.7644 14.6507C18.4805 14.7621 18.1521 14.6285 18.0352 14.3446Z" fill="white"/>
<path d="M9.56308 45.6333C10.2533 45.6333 10.8378 46.0675 11.0604 46.6798H27.2476V39.9278H22.9893V37.7012H27.2476V29.9416C27.2476 29.6355 27.498 29.385 27.8042 29.385C28.1103 29.385 28.3608 29.6355 28.3608 29.9416V37.7012H32.0848V29.9416C32.0848 29.6355 32.3352 29.385 32.6414 29.385C32.9475 29.385 33.198 29.6355 33.198 29.9416V37.7012H39.232C44.1639 37.7012 48.1772 33.6878 48.1772 28.756C48.1772 23.8242 44.1639 19.8108 39.232 19.8108C36.3987 19.8108 33.7046 21.1746 32.0235 23.4624C31.6617 23.9578 30.9603 24.0635 30.4649 23.7017C29.9695 23.3399 29.8638 22.6385 30.2256 22.1431C31.2442 20.7626 32.5857 19.616 34.1054 18.8311C34.5451 18.6029 35.0016 18.4025 35.4691 18.2355C33.2815 13.1701 28.2718 9.84136 22.6775 9.84136C14.9959 9.84136 8.74481 16.0924 8.74481 23.7741C8.74481 31.183 14.5561 37.2559 21.8648 37.679V39.9111C17.8515 39.7163 14.1108 38.0575 11.2497 35.1963C8.19931 32.1459 6.51825 28.088 6.51825 23.7741C6.51825 19.4601 8.19931 15.4022 11.2497 12.3518C14.3001 9.30142 18.358 7.62036 22.672 7.62036C29.2849 7.62036 35.1908 11.6337 37.6512 17.7067C38.1688 17.6343 38.6976 17.5954 39.2209 17.5954C45.3829 17.5954 50.3927 22.6051 50.3927 28.7671C50.3927 34.9291 45.3829 39.9389 39.2209 39.9389H33.1869V44.0525H43.0339C43.2732 42.9615 44.2474 42.1376 45.4107 42.1376C46.7522 42.1376 47.8433 43.2287 47.8433 44.5702C47.8433 45.9117 46.7522 47.0027 45.4107 47.0027C44.2752 47.0027 43.3178 46.2178 43.0506 45.1658H32.0848V39.9389H28.3608V47.8042H11.0549C10.8267 48.4054 10.2422 48.834 9.56308 48.834C8.68358 48.834 7.96552 48.1215 7.96552 47.2365C7.96552 46.3458 8.68358 45.6333 9.56308 45.6333ZM44.214 45.1157C44.4255 45.5665 44.8819 45.8783 45.4107 45.8783C46.1399 45.8783 46.73 45.2882 46.73 44.559C46.73 43.8298 46.1399 43.2398 45.4107 43.2398C44.8597 43.2398 44.381 43.5849 44.1861 44.0692C44.1249 44.2195 44.0915 44.3865 44.0915 44.559C44.0915 44.7594 44.136 44.9487 44.214 45.1157Z" fill="white"/>
</svg>
