<svg width="99" height="100" viewBox="0 0 99 100" fill="none" xmlns="http://www.w3.org/2000/svg">
<path d="M95.8886 12.551L95.8887 12.551C96.7669 12.1631 97.7406 12.7933 97.7406 13.7807C97.7406 54.918 85.4804 76.241 73.3649 87.2885C67.2968 92.8217 61.2345 95.8062 56.6978 97.4073C54.4292 98.2079 52.5427 98.6623 51.2292 98.9161C50.5726 99.043 50.0594 99.1197 49.7138 99.1644C49.5409 99.1868 49.41 99.2011 49.3239 99.2098C49.2991 99.2123 49.278 99.2143 49.2607 99.2159C49.2435 99.2143 49.2224 99.2123 49.1976 99.2098C49.1115 99.2011 48.9806 99.1868 48.8077 99.1644C48.4621 99.1197 47.9489 99.043 47.2923 98.9161C45.9788 98.6623 44.0924 98.2079 41.8238 97.4073C37.2871 95.8062 31.2248 92.8217 25.1568 87.2885C13.0414 76.241 0.78125 54.918 0.78125 13.7807C0.78125 12.7932 1.75508 12.1632 2.63274 12.551L2.63296 12.5511C10.6688 16.098 21.3666 16.6087 31.3497 12.4705C33.7528 11.4745 37.4839 9.7534 41.0528 7.65565C44.2124 5.7985 47.3353 3.59495 49.2608 1.28468C51.1865 3.59493 54.3095 5.79849 57.4691 7.65567C61.038 9.75344 64.7691 11.4746 67.1721 12.4707L67.4713 11.749L67.1721 12.4707C77.1548 16.6087 87.8533 16.0982 95.8886 12.551ZM49.7042 12.5511L49.2605 12.245L48.8169 12.5511C43.5754 16.167 37.6591 18.8423 34.5286 20.14L34.8277 20.8617L34.5286 20.14C28.8338 22.5008 22.8276 23.6973 16.674 23.6973C14.5124 23.6973 12.3629 23.5438 10.2555 23.2426L9.31117 23.1077L9.36491 24.06C10.9892 52.8409 19.4105 69.3007 28.2354 78.6933C37.0557 88.0808 46.2014 90.3261 49.1301 90.823L49.2607 90.8451L49.3914 90.823C52.3203 90.3262 61.4661 88.081 70.2863 78.6934C79.1112 69.3009 87.5325 52.8411 89.1568 24.0602L89.2105 23.1081L88.2664 23.2428C86.1588 23.5434 84.0094 23.6973 81.8479 23.6973C75.6947 23.6976 69.6887 22.501 63.9929 20.14C60.8625 18.8423 54.9459 16.1669 49.7042 12.5511Z" fill="white" stroke="#9D1C21" stroke-width="1.5625"/>
<path d="M49.2607 79.9372C55.1084 78.2407 72.6365 70.1952 77.5177 34.1813C71.4719 33.7267 65.5681 32.3175 59.9168 29.9745C57.5039 28.9743 53.5127 27.1989 49.2607 24.7983C45.0092 27.1989 41.0183 28.9743 38.6052 29.9745C32.9545 32.3171 27.0513 33.7263 21.0043 34.1813C25.8853 70.1952 43.4133 78.2409 49.2607 79.9372Z" fill="white"/>
</svg>
