<svg width="100" height="100" viewBox="0 0 100 100" fill="none" xmlns="http://www.w3.org/2000/svg">
<g clip-path="url(#clip0_231_612)">
<mask id="path-1-inside-1_231_612" fill="white">
<path d="M50 0C22.3875 0 0 22.3844 0 50C0 77.6156 22.3844 100 50 100C77.6156 100 100 77.6156 100 50C100 22.3844 77.6156 0 50 0ZM50 93.85C25.875 93.85 6.25 74.125 6.25 50C6.25 25.875 25.875 6.25 50 6.25C74.125 6.25 93.75 25.875 93.75 50C93.75 74.125 74.125 93.85 50 93.85ZM69.9562 31.7062L40.6188 61.225L27.4063 48.0156C26.1875 46.7969 24.2063 46.7969 22.9844 48.0156C21.7625 49.2344 21.7625 51.2125 22.9844 52.4344L38.4531 67.9031C39.6719 69.1219 41.6531 69.1219 42.875 67.9031C43.0156 67.7625 43.1375 67.6094 43.2469 67.45L74.3781 36.125C75.5969 34.9063 75.5969 32.925 74.3781 31.7031C73.1594 30.4813 71.1781 30.4875 69.9562 31.7062Z"/>
</mask>
<path d="M50 0C22.3875 0 0 22.3844 0 50C0 77.6156 22.3844 100 50 100C77.6156 100 100 77.6156 100 50C100 22.3844 77.6156 0 50 0ZM50 93.85C25.875 93.85 6.25 74.125 6.25 50C6.25 25.875 25.875 6.25 50 6.25C74.125 6.25 93.75 25.875 93.75 50C93.75 74.125 74.125 93.85 50 93.85ZM69.9562 31.7062L40.6188 61.225L27.4063 48.0156C26.1875 46.7969 24.2063 46.7969 22.9844 48.0156C21.7625 49.2344 21.7625 51.2125 22.9844 52.4344L38.4531 67.9031C39.6719 69.1219 41.6531 69.1219 42.875 67.9031C43.0156 67.7625 43.1375 67.6094 43.2469 67.45L74.3781 36.125C75.5969 34.9063 75.5969 32.925 74.3781 31.7031C73.1594 30.4813 71.1781 30.4875 69.9562 31.7062Z" fill="white"/>
<path d="M69.9562 31.7062L52.3012 14.006L52.2626 14.0444L52.2242 14.0831L69.9562 31.7062ZM40.6188 61.225L22.9432 78.9048L40.6754 96.6328L58.3508 78.8481L40.6188 61.225ZM27.4063 48.0156L9.72858 65.6933L9.73067 65.6954L27.4063 48.0156ZM22.9844 52.4344L40.662 34.7567L40.662 34.7567L22.9844 52.4344ZM38.4531 67.9031L20.7755 85.5808L20.7755 85.5808L38.4531 67.9031ZM42.875 67.9031L60.53 85.6034L60.5414 85.5921L60.5527 85.5808L42.875 67.9031ZM43.2469 67.45L25.5145 49.8273L23.9166 51.435L22.634 53.3039L43.2469 67.45ZM74.3781 36.125L56.7005 18.4473L56.673 18.4748L56.6457 18.5023L74.3781 36.125ZM50 -25C8.5814 -25 -25 8.57624 -25 50H25C25 36.1925 36.1936 25 50 25V-25ZM-25 50C-25 91.4227 8.57726 125 50 125V75C36.1915 75 25 63.8085 25 50H-25ZM50 125C91.4227 125 125 91.4227 125 50H75C75 63.8085 63.8085 75 50 75V125ZM125 50C125 8.57726 91.4227 -25 50 -25V25C63.8085 25 75 36.1915 75 50H125ZM50 68.85C39.7563 68.85 31.25 60.3922 31.25 50H-18.75C-18.75 87.8578 11.9937 118.85 50 118.85V68.85ZM31.25 50C31.25 39.6821 39.6821 31.25 50 31.25V-18.75C12.0679 -18.75 -18.75 12.0679 -18.75 50H31.25ZM50 31.25C60.3179 31.25 68.75 39.6821 68.75 50H118.75C118.75 12.0679 87.9321 -18.75 50 -18.75V31.25ZM68.75 50C68.75 60.3922 60.2437 68.85 50 68.85V118.85C88.0063 118.85 118.75 87.8578 118.75 50H68.75ZM52.2242 14.0831L22.8867 43.6018L58.3508 78.8481L87.6883 49.3294L52.2242 14.0831ZM58.2943 43.5452L45.0818 30.3359L9.73067 65.6954L22.9432 78.9048L58.2943 43.5452ZM45.0839 30.338C34.0896 19.3436 16.2966 19.3761 5.32936 30.3153L40.6394 65.7159C32.1159 74.2176 18.2854 74.2501 9.72858 65.6933L45.0839 30.338ZM5.32936 30.3153C-5.69835 41.3148 -5.66576 59.1396 5.30671 70.112L40.662 34.7567C49.1908 43.2854 49.2233 57.1539 40.6394 65.7159L5.32936 30.3153ZM5.3067 70.112L20.7755 85.5808L56.1308 50.2255L40.662 34.7567L5.3067 70.112ZM20.7755 85.5808C31.7698 96.5751 49.5628 96.5426 60.53 85.6034L25.22 50.2028C33.7435 41.7011 47.574 41.6686 56.1308 50.2255L20.7755 85.5808ZM60.5527 85.5808C62.0008 84.1327 63.081 82.7307 63.8597 81.5961L22.634 53.3039C23.194 52.4881 24.0304 51.3923 25.1973 50.2255L60.5527 85.5808ZM60.9793 85.0727L92.1105 53.7477L56.6457 18.5023L25.5145 49.8273L60.9793 85.0727ZM92.0558 53.8027C103.05 42.8083 103.018 25.0154 92.0784 14.0481L56.6778 49.3581C48.1761 40.8346 48.1436 27.0042 56.7005 18.4473L92.0558 53.8027ZM92.0784 14.0481C81.0178 2.95917 63.207 3.12809 52.3012 14.006L87.6113 49.4065C79.1493 57.8469 65.3009 58.0033 56.6778 49.3581L92.0784 14.0481Z" fill="white" mask="url(#path-1-inside-1_231_612)"/>
</g>
<defs>
<clipPath id="clip0_231_612">
<rect width="100" height="100" fill="white"/>
</clipPath>
</defs>
</svg>
