<svg width="100" height="100" viewBox="0 0 100 100" fill="none" xmlns="http://www.w3.org/2000/svg">
<path d="M58.3334 8.3335C65.9584 8.32985 73.354 10.9404 79.2871 15.7299C85.22 20.5193 89.3317 27.1981 90.9363 34.652C92.5409 42.1062 91.5413 49.8852 88.1044 56.6916C84.6677 63.4979 79.0011 68.9204 72.05 72.0543C69.8284 76.9664 66.4482 81.2664 62.1996 84.5854C57.9511 87.9041 52.9609 90.1431 47.6569 91.11C42.3532 92.0768 36.8938 91.7427 31.7475 90.1364C26.6011 88.53 21.9211 85.6993 18.1089 81.8872C14.2967 78.075 11.4661 73.395 9.85978 68.2487C8.25345 63.1022 7.91939 57.6431 8.88622 52.3391C9.85305 47.0354 12.0919 42.0452 15.4108 37.7966C18.7298 33.5481 23.0296 30.1679 27.9419 27.946C30.584 22.0997 34.8567 17.1397 40.2473 13.661C45.6382 10.1823 51.9177 8.33252 58.3334 8.3335ZM45.8334 37.5002H37.5002V41.6668C34.7923 41.6602 32.1884 42.7083 30.24 44.5891C28.2919 46.4697 27.1525 49.0352 27.0638 51.7416C26.9748 54.4481 27.9434 57.0827 29.764 59.0872C31.5846 61.0916 34.1144 62.3083 36.8169 62.4793L37.5002 62.5002H45.8334L46.2084 62.5335C46.6888 62.6204 47.1234 62.8733 47.4363 63.2481C47.7492 63.6227 47.9207 64.0954 47.9207 64.5835C47.9207 65.0716 47.7492 65.5443 47.4363 65.9189C47.1234 66.2937 46.6888 66.5466 46.2084 66.6335L45.8334 66.6668H29.1669V75.0002H37.5002V79.1668H45.8334V75.0002C48.5413 75.0068 51.1452 73.9587 53.0936 72.0779C55.0417 70.1973 56.1811 67.6318 56.2698 64.9254C56.3588 62.2189 55.3902 59.5843 53.5696 57.58C51.749 55.5754 49.2192 54.3587 46.5167 54.1877L45.8334 54.1668H37.5002L37.1252 54.1335C36.6448 54.0466 36.2102 53.7937 35.8973 53.4189C35.5844 53.0443 35.4129 52.5716 35.4129 52.0835C35.4129 51.5954 35.5844 51.1227 35.8973 50.7481C36.2102 50.3733 36.6448 50.1204 37.1252 50.0335L37.5002 50.0002H54.1667V41.6668H45.8334V37.5002ZM58.3334 16.6668C54.8029 16.6627 51.3119 17.4082 48.0911 18.8542C44.8702 20.3001 41.9932 22.4135 39.6502 25.0543C44.3596 24.7685 49.0761 25.4856 53.4877 27.1583C57.8992 28.831 61.9057 31.4212 65.2415 34.7577C68.5775 38.0939 71.1673 42.1006 72.8394 46.5125C74.5117 50.9241 75.2282 55.6408 74.9417 60.3502C78.7302 56.9818 81.4052 52.5416 82.6119 47.6181C83.8186 42.6947 83.5 37.5206 81.6986 32.7822C79.8971 28.0441 76.6977 23.9654 72.5248 21.0873C68.3519 18.209 63.4027 16.6674 58.3334 16.6668Z" fill="white"/>
</svg>
