<svg width="54" height="54" viewBox="0 0 54 54" fill="none" xmlns="http://www.w3.org/2000/svg">
<path d="M22.6389 42.2086H39.6352C40.1994 42.2086 40.6582 42.6674 40.6582 43.2317C40.6582 43.7959 40.1994 44.2547 39.6352 44.2547H22.6389C22.0746 44.2547 21.6158 43.7959 21.6158 43.2317C21.6158 42.6621 22.0746 42.2086 22.6389 42.2086Z" fill="white"/>
<path d="M39.5508 17.6976H40.0623C43.6377 17.6976 46.5486 20.6086 46.5486 24.184C46.5486 27.7594 43.6377 30.6703 40.0623 30.6703C36.4869 30.6703 33.576 27.7594 33.576 24.184V23.6724H39.5508V17.6976ZM34.6254 24.7008C34.8838 27.4746 37.2252 29.6525 40.0623 29.6525C43.0734 29.6525 45.5256 27.2004 45.5256 24.1892C45.5256 21.3521 43.3477 19.0107 40.5738 18.7523V24.7008H34.6254Z" fill="white"/>
<path d="M38.3273 17.1492V22.1431H33.3334C33.3334 19.3851 35.5693 17.1492 38.3273 17.1492Z" fill="white"/>
<path d="M5.85879 38.628C8.33731 38.628 10.4098 40.3946 10.8844 42.7307H16.9857C17.6027 42.7307 18.051 42.6094 18.2092 42.3985C18.3147 42.2561 18.3147 42.0293 18.3147 41.9239V39.2292H12.5191C10.5416 39.2292 8.93848 37.6208 8.93848 35.6485V12.4032C8.93848 10.4256 10.5469 8.82251 12.5191 8.82251H49.7496C51.7272 8.82251 53.3303 10.4309 53.3303 12.4032V35.6432C53.3303 37.6208 51.7219 39.2239 49.7496 39.2239H20.366V41.9239C20.366 42.177 20.366 42.9417 19.8439 43.6325C19.2691 44.3918 18.3094 44.7768 16.9857 44.7768H0.733013V43.7538C0.733013 40.9272 3.03223 38.628 5.85879 38.628ZM49.7496 37.1831C50.5986 37.1831 51.2842 36.4922 51.2842 35.6485V12.4032C51.2842 11.5542 50.5934 10.8686 49.7496 10.8686H12.5244C11.6754 10.8686 10.9898 11.5594 10.9898 12.4032V35.6432C10.9898 36.4922 11.6807 37.1778 12.5244 37.1778H49.7496V37.1831ZM5.85879 42.7307H8.76446C8.34258 41.5336 7.19825 40.6741 5.85879 40.6741C4.51934 40.6741 3.375 41.5336 2.95313 42.7307H5.85879Z" fill="white"/>
<path d="M18.6258 17.3707H29.6789C29.9637 17.3707 30.1904 17.5975 30.1904 17.8823C30.1904 18.167 29.9637 18.3938 29.6789 18.3938H18.6205C18.3357 18.3938 18.109 18.167 18.109 17.8823C18.109 17.5975 18.341 17.3707 18.6258 17.3707Z" fill="white"/>
<path d="M18.6258 21.2361H29.6789C29.9637 21.2361 30.1904 21.4628 30.1904 21.7476C30.1904 22.0324 29.9637 22.2591 29.6789 22.2591H18.6205C18.3357 22.2591 18.109 22.0324 18.109 21.7476C18.109 21.4628 18.341 21.2361 18.6258 21.2361ZM18.6258 25.1068H26.3039C26.5887 25.1068 26.8154 25.3335 26.8154 25.6183C26.8154 25.9031 26.5887 26.1298 26.3039 26.1298H18.6258C18.341 26.1298 18.1143 25.9031 18.1143 25.6183C18.1143 25.3335 18.341 25.1068 18.6258 25.1068Z" fill="white"/>
<path d="M18.6258 28.9723H26.0455C26.3303 28.9723 26.557 29.199 26.557 29.4838C26.557 29.7686 26.3303 29.9953 26.0455 29.9953H18.6258C18.341 29.9953 18.1143 29.7686 18.1143 29.4838C18.1143 29.199 18.341 28.9723 18.6258 28.9723Z" fill="white"/>
</svg>
