<svg width="113" height="113" viewBox="0 0 113 113" fill="none" xmlns="http://www.w3.org/2000/svg">
<g clip-path="url(#clip0_70_2668)">
<path d="M90.4178 45.0234L88.97 47.5483C88.4404 48.484 87.3104 48.8725 86.3039 48.5017C84.2205 47.7248 82.3136 46.6125 80.6363 45.2176C79.8241 44.5467 79.6122 43.3637 80.1419 42.4456L81.5897 39.9208C80.3714 38.5083 79.418 36.8662 78.7824 35.083H75.8691C74.8097 35.083 73.8916 34.3237 73.715 33.2644C73.3619 31.1456 73.3443 28.9209 73.715 26.7139C73.8916 25.6545 74.8097 24.8776 75.8691 24.8776H78.7824C79.418 23.0944 80.3714 21.4523 81.5897 20.0398L80.1419 17.515C79.6122 16.5969 79.8064 15.4139 80.6363 14.743C82.3136 13.3481 84.2382 12.2358 86.3039 11.4589C87.3104 11.0881 88.4404 11.4765 88.97 12.4123L90.4178 14.9372C92.2718 14.6017 94.161 14.6017 96.0149 14.9372L97.4627 12.4123C97.9924 11.4765 99.1224 11.0881 100.129 11.4589C102.212 12.2358 104.119 13.3481 105.796 14.743C106.609 15.4139 106.821 16.5969 106.291 17.515L104.843 20.0398C106.061 21.4523 107.015 23.0944 107.65 24.8776H110.564C111.623 24.8776 112.541 25.6369 112.718 26.6962C113.071 28.815 113.088 31.0397 112.718 33.2467C112.541 34.3061 111.623 35.083 110.564 35.083H107.65C107.015 36.8662 106.061 38.5083 104.843 39.9208L106.291 42.4456C106.821 43.3637 106.626 44.5467 105.796 45.2176C104.119 46.6125 102.195 47.7248 100.129 48.5017C99.1224 48.8725 97.9924 48.484 97.4627 47.5483L96.0149 45.0234C94.1786 45.3589 92.2718 45.3589 90.4178 45.0234ZM88.5639 34.6415C95.3616 39.8678 103.113 32.1167 97.8865 25.319C91.0888 20.0751 83.3377 27.8439 88.5639 34.6415ZM68.2063 61.8145L74.1564 64.7808C75.9397 65.8048 76.7166 67.9765 76.0104 69.9187C74.4389 74.1915 71.3491 78.1112 68.4888 81.5365C67.1822 83.1079 64.9222 83.4964 63.1389 82.4723L58.001 79.5061C55.176 81.925 51.8919 83.8495 48.3077 85.1031V91.0356C48.3077 93.0837 46.8422 94.8494 44.8294 95.2025C40.486 95.944 35.9307 95.9794 31.4283 95.2025C29.3978 94.8494 27.8971 93.1014 27.8971 91.0356V85.1031C24.3128 83.8319 21.0288 81.925 18.2038 79.5061L13.0658 82.4547C11.3002 83.4787 9.02254 83.0903 7.71597 81.5189C4.85566 78.0936 1.83644 74.1739 0.265037 69.9187C-0.441213 67.9942 0.335662 65.8225 2.11894 64.7808L7.99847 61.8145C7.30988 58.1244 7.30988 54.3283 7.99847 50.6205L2.11894 47.6365C0.335662 46.6125 -0.458869 44.4408 0.265037 42.5162C1.83644 38.2434 4.85566 34.3237 7.71597 30.8984C9.02254 29.327 11.2825 28.9386 13.0658 29.9626L18.2038 32.9289C21.0288 30.51 24.3128 28.5855 27.8971 27.3319V21.3817C27.8971 19.3512 29.3449 17.5856 31.3577 17.2325C35.7011 16.4909 40.2741 16.4556 44.7764 17.2148C46.8069 17.568 48.3077 19.3159 48.3077 21.3817V27.3142C51.8919 28.5855 55.176 30.4923 58.001 32.9112L63.1389 29.945C64.9046 28.9209 67.1822 29.3094 68.4888 30.8808C71.3491 34.3061 74.3507 38.2258 75.9221 42.4986C76.6283 44.4231 75.9397 46.5948 74.1564 47.6365L68.2063 50.6028C68.8949 54.3106 68.8949 58.1067 68.2063 61.8145ZM47.4425 65.54C57.895 51.9447 42.3752 36.4248 28.7799 46.8773C18.3274 60.4726 33.8472 75.9925 47.4425 65.54ZM90.4178 97.7979L88.97 100.323C88.4404 101.259 87.3104 101.647 86.3039 101.276C84.2205 100.499 82.3136 99.387 80.6363 97.9922C79.8241 97.3212 79.6122 96.1383 80.1419 95.2201L81.5897 92.6953C80.3714 91.2828 79.418 89.6408 78.7824 87.8575H75.8691C74.8097 87.8575 73.8916 87.0983 73.715 86.0389C73.3619 83.9201 73.3443 81.6955 73.715 79.4884C73.8916 78.429 74.8097 77.6522 75.8691 77.6522H78.7824C79.418 75.8689 80.3714 74.2269 81.5897 72.8144L80.1419 70.2895C79.6122 69.3714 79.8064 68.1884 80.6363 67.5175C82.3136 66.1226 84.2382 65.0103 86.3039 64.2334C87.3104 63.8626 88.4404 64.2511 88.97 65.1869L90.4178 67.7117C92.2718 67.3762 94.161 67.3762 96.0149 67.7117L97.4627 65.1869C97.9924 64.2511 99.1224 63.8626 100.129 64.2334C102.212 65.0103 104.119 66.1226 105.796 67.5175C106.609 68.1884 106.821 69.3714 106.291 70.2895L104.843 72.8144C106.061 74.2269 107.015 75.8689 107.65 77.6522H110.564C111.623 77.6522 112.541 78.4114 112.718 79.4708C113.071 81.5895 113.088 83.8142 112.718 86.0212C112.541 87.0806 111.623 87.8575 110.564 87.8575H107.65C107.015 89.6408 106.061 91.2828 104.843 92.6953L106.291 95.2201C106.821 96.1383 106.626 97.3212 105.796 97.9922C104.119 99.387 102.195 100.499 100.129 101.276C99.1224 101.647 97.9924 101.259 97.4627 100.323L96.0149 97.7979C94.1786 98.1334 92.2718 98.1334 90.4178 97.7979ZM88.5639 87.3984C95.3616 92.6247 103.113 84.8736 97.8865 78.0759C91.0888 72.8497 83.3377 80.6008 88.5639 87.3984Z" fill="white"/>
</g>
<defs>
<clipPath id="clip0_70_2668">
<rect width="113" height="113" fill="white"/>
</clipPath>
</defs>
</svg>
