<svg width="100" height="110" viewBox="0 0 100 110" fill="none" xmlns="http://www.w3.org/2000/svg">
<g clip-path="url(#clip0_70_2672)">
<path d="M89.2598 73.9965C84.3672 78.3643 78.9805 81.9844 73.1387 84.5346L83.7598 104.771L94.2969 109.721C96.2129 110.621 98.377 109.246 98.627 106.971L99.998 94.4561L89.2598 73.9965ZM97.5586 53.6809C98.5078 52.033 97.9277 49.8158 96.377 48.8705L90.8945 45.5254C89.4336 44.6338 87.6504 45.2117 86.7422 46.7543C78.7129 60.4033 64.8926 68.75 50 68.75C45.3262 68.75 40.7754 67.8369 36.4434 66.2729L49.5996 41.2049C49.7363 41.2092 49.8613 41.25 49.998 41.25C50.1348 41.25 50.2617 41.2092 50.3965 41.2049L60.375 60.2186C66.4746 58.2936 72.0078 54.6863 76.5098 49.7084L66.3945 30.4348C67.8496 27.5064 68.75 24.1979 68.75 20.625C68.75 9.23398 60.3555 0 50 0C39.6445 0 31.25 9.23398 31.25 20.625C31.25 24.1979 32.1504 27.5064 33.6035 30.4348L20.2637 55.8529C17.8125 53.3586 15.584 50.5699 13.6855 47.474C12.75 45.9486 10.957 45.4072 9.50977 46.3289L4.08984 49.7814C2.55664 50.7568 2.01367 52.9826 2.98828 54.609C6.0293 59.6879 9.76367 64.1072 13.9219 67.9336L0 94.4582L1.37109 106.973C1.62109 109.248 3.78516 110.623 5.70117 109.723L16.2383 104.773L30.0664 78.4266C36.3535 81.0563 43.0898 82.5 50 82.5C69.3457 82.5 87.2813 71.5408 97.5586 53.6809ZM50 13.75C53.4512 13.75 56.25 16.8287 56.25 20.625C56.25 24.4213 53.4512 27.5 50 27.5C46.5488 27.5 43.75 24.4213 43.75 20.625C43.75 16.8287 46.5488 13.75 50 13.75Z" fill="white"/>
</g>
<defs>
<clipPath id="clip0_70_2672">
<rect width="100" height="110" fill="white"/>
</clipPath>
</defs>
</svg>
