<svg width="100" height="100" viewBox="0 0 100 100" fill="none" xmlns="http://www.w3.org/2000/svg">
<g clip-path="url(#clip0_70_2680)">
<path d="M99.166 21.3088C98.7285 19.5451 96.5215 18.9475 95.2363 20.2326L80.7129 34.7561L67.4551 32.5471L65.2461 19.2893L79.7695 4.76582C81.0625 3.47286 80.4395 1.26973 78.6641 0.828324C69.4102 -1.46464 59.2207 1.00606 51.9883 8.23653C44.2461 15.9787 42.1152 27.2014 45.3379 36.9865L3.66016 78.6643C-1.2207 83.5451 -1.2207 91.4592 3.66016 96.34C8.54102 101.221 16.4551 101.221 21.3359 96.34L62.9785 54.6975C72.7676 57.9611 83.9688 55.8068 91.7617 48.0139C99.002 40.7736 101.469 30.5686 99.166 21.3088ZM12.5 92.1877C9.91211 92.1877 7.8125 90.0881 7.8125 87.5002C7.8125 84.9104 9.91211 82.8127 12.5 82.8127C15.0879 82.8127 17.1875 84.9104 17.1875 87.5002C17.1875 90.0881 15.0879 92.1877 12.5 92.1877Z" fill="white"/>
</g>
<defs>
<clipPath id="clip0_70_2680">
<rect width="100" height="100" fill="white"/>
</clipPath>
</defs>
</svg>
