<svg width="57" height="57" viewBox="0 0 57 57" fill="none" xmlns="http://www.w3.org/2000/svg">
<path d="M29.3684 38.9147H29.4129C29.6077 38.898 29.8025 38.8758 29.9974 38.8535C30.3035 38.8145 30.515 38.5306 30.4761 38.2245C30.4371 37.9183 30.1532 37.7068 29.8471 37.7458C29.6745 37.768 29.4964 37.7903 29.3238 37.8014C29.0177 37.8237 28.7894 38.0965 28.8117 38.4026C28.8395 38.6976 29.0845 38.9147 29.3684 38.9147ZM27.1529 38.8535C27.4257 38.8535 27.665 38.6531 27.704 38.3748C27.7485 38.0686 27.5314 37.7903 27.2309 37.7458C27.0583 37.7235 26.8857 37.6957 26.7132 37.6623C26.4126 37.6011 26.1176 37.8014 26.0619 38.102C26.0062 38.4026 26.2011 38.6976 26.5017 38.7533C26.6909 38.7923 26.8857 38.8257 27.0806 38.8479C27.0973 38.8535 27.1251 38.8535 27.1529 38.8535ZM32.0792 38.3136C32.146 38.3136 32.2072 38.3024 32.274 38.2802C32.4577 38.2134 32.6414 38.1354 32.8195 38.0575C33.1034 37.935 33.2314 37.6066 33.1034 37.3227C32.981 37.0388 32.6525 36.9108 32.3686 37.0388C32.2072 37.1112 32.0458 37.178 31.8788 37.2392C31.5894 37.345 31.4446 37.6679 31.5504 37.9573C31.6394 38.1744 31.851 38.3136 32.0792 38.3136ZM24.4811 38.102C24.6926 38.102 24.8985 37.9796 24.9932 37.768C25.1156 37.4842 24.9876 37.1557 24.7093 37.0333C24.5479 36.9609 24.392 36.8886 24.2361 36.8106C23.9634 36.6715 23.6294 36.7828 23.4902 37.0555C23.3511 37.3283 23.4624 37.6623 23.7352 37.8014C23.9077 37.8905 24.0858 37.974 24.264 38.0519C24.3308 38.0853 24.4031 38.102 24.4811 38.102ZM34.5173 36.9943C34.6342 36.9943 34.7455 36.9609 34.8457 36.8886C35.0016 36.7717 35.1574 36.6492 35.3077 36.5267C35.5471 36.3319 35.5805 35.9812 35.3856 35.7419C35.1908 35.5025 34.8401 35.4691 34.6008 35.6639C34.4672 35.7753 34.328 35.8866 34.1833 35.9868C33.9328 36.1705 33.8827 36.5156 34.0664 36.7661C34.1777 36.9164 34.3503 36.9943 34.5173 36.9943ZM22.1209 36.6436C22.2823 36.6436 22.4382 36.5768 22.5495 36.4432C22.7443 36.2039 22.7109 35.8532 22.4771 35.6584C22.3436 35.547 22.21 35.4302 22.0819 35.3133C21.8537 35.1073 21.503 35.1184 21.2971 35.3467C21.0911 35.5749 21.1022 35.9256 21.3305 36.1315C21.4752 36.2651 21.6199 36.3931 21.7702 36.5156C21.8704 36.6047 21.9984 36.6436 22.1209 36.6436ZM36.5101 35.0628C36.677 35.0628 36.8385 34.9904 36.9498 34.8512C37.0723 34.6954 37.1892 34.5395 37.3005 34.3781C37.4786 34.1276 37.4118 33.7769 37.1613 33.6044C36.9108 33.4262 36.5602 33.493 36.3876 33.7435C36.2874 33.8883 36.1816 34.0274 36.0759 34.1666C35.8866 34.4115 35.9311 34.7566 36.1705 34.9459C36.2707 35.0238 36.3876 35.0628 36.5101 35.0628ZM20.245 34.6063C20.3563 34.6063 20.4677 34.5729 20.5623 34.5061C20.8128 34.3336 20.8796 33.9829 20.7015 33.7324C20.6013 33.5877 20.5066 33.4429 20.412 33.2927C20.2506 33.031 19.9055 32.9475 19.6438 33.109C19.3822 33.2704 19.2987 33.6155 19.4602 33.8771C19.5603 34.0441 19.6717 34.2055 19.783 34.367C19.8943 34.5228 20.0669 34.6063 20.245 34.6063ZM37.9017 32.6636C38.1187 32.6636 38.3303 32.5356 38.4193 32.3185C38.4917 32.1404 38.5641 31.9511 38.6253 31.7675C38.7255 31.478 38.5696 31.1607 38.2802 31.0605C37.9907 30.9603 37.6734 31.1162 37.5732 31.4056C37.5176 31.5726 37.4563 31.7341 37.3895 31.8955C37.2727 32.1794 37.4118 32.5078 37.6957 32.6191C37.7569 32.647 37.8293 32.6636 37.9017 32.6636ZM18.987 32.1293C19.0482 32.1293 19.1095 32.1181 19.1651 32.1014C19.4546 32.0012 19.6104 31.684 19.5103 31.3945C19.4546 31.2275 19.3989 31.0605 19.3544 30.8935C19.2709 30.5985 18.9647 30.426 18.6697 30.5094C18.3747 30.5929 18.2021 30.8991 18.2856 31.1941C18.3413 31.3834 18.397 31.5726 18.4582 31.7563C18.5417 31.9845 18.7588 32.1293 18.987 32.1293ZM38.5808 29.9751C38.8591 29.9751 39.104 29.7635 39.1318 29.4797C39.1541 29.2848 39.1708 29.09 39.1819 28.8952C39.1986 28.589 38.9648 28.3274 38.6587 28.3107C38.3525 28.294 38.0909 28.5278 38.0742 28.834C38.0631 29.0065 38.0519 29.1846 38.0297 29.3572C37.9963 29.6634 38.2134 29.9361 38.5195 29.9695C38.5418 29.9751 38.5641 29.9751 38.5808 29.9751ZM18.4582 29.4073H18.4916C18.7978 29.3906 19.0315 29.129 19.0148 28.8228C19.0037 28.6503 18.9981 28.4721 18.9981 28.2996C18.9981 27.9934 18.7477 27.7429 18.4415 27.7429C18.1353 27.7429 17.8849 27.9934 17.8849 28.2996C17.8849 28.4944 17.8904 28.6892 17.9016 28.8841C17.9183 29.1791 18.1632 29.4073 18.4582 29.4073ZM38.5084 27.203C38.5362 27.203 38.5696 27.203 38.5975 27.1974C38.9036 27.1473 39.104 26.8635 39.0539 26.5573C39.0205 26.3625 38.9871 26.1732 38.9426 25.9784C38.8758 25.6778 38.5808 25.4886 38.2802 25.5553C37.9796 25.6221 37.7903 25.9172 37.8571 26.2177C37.8961 26.3903 37.9295 26.5629 37.9573 26.7354C38.0074 27.0082 38.2412 27.203 38.5084 27.203ZM18.5862 27.1585C18.8534 27.1585 19.0872 26.9636 19.1317 26.6965C19.1596 26.5239 19.193 26.3513 19.2319 26.1788C19.2987 25.8782 19.1095 25.5832 18.8145 25.5108C18.5139 25.444 18.2188 25.6333 18.1465 25.9283C18.102 26.1176 18.063 26.3124 18.0352 26.5072C17.9851 26.8078 18.191 27.0972 18.4916 27.1473C18.525 27.1585 18.5528 27.1585 18.5862 27.1585ZM37.6901 24.5534C37.7681 24.5534 37.8516 24.5367 37.9295 24.4977C38.2078 24.3641 38.3247 24.0357 38.1967 23.7574C38.1132 23.5793 38.0241 23.4067 37.9295 23.2342C37.7848 22.9614 37.4452 22.8612 37.1725 23.0115C36.8997 23.1562 36.7995 23.4958 36.9498 23.7685C37.0333 23.9244 37.1112 24.0802 37.1892 24.2361C37.2782 24.4365 37.4786 24.5534 37.6901 24.5534ZM19.4212 24.5144C19.6271 24.5144 19.8275 24.3975 19.9222 24.1971C19.9945 24.0413 20.078 23.8799 20.1615 23.7296C20.3062 23.4624 20.2116 23.1228 19.9389 22.9725C19.6717 22.8278 19.3321 22.9224 19.1818 23.1952C19.0872 23.3678 18.9981 23.5403 18.9146 23.7184C18.7811 23.9968 18.8979 24.3307 19.1763 24.4588C19.2598 24.4977 19.3377 24.5144 19.4212 24.5144ZM36.1705 22.2266C36.2985 22.2266 36.4321 22.1821 36.5379 22.0875C36.7717 21.8871 36.7939 21.5364 36.5935 21.3026C36.4655 21.1579 36.3319 21.0076 36.1983 20.8684C35.9868 20.6458 35.6306 20.6402 35.4135 20.8573C35.1908 21.0688 35.1852 21.4251 35.4023 21.6422C35.5248 21.7646 35.6417 21.8982 35.7586 22.0318C35.8588 22.1654 36.0146 22.2266 36.1705 22.2266ZM20.9408 22.1988C21.0967 22.1988 21.247 22.132 21.3583 22.0095C21.4752 21.876 21.5921 21.7479 21.7145 21.6255C21.9316 21.4028 21.9261 21.0521 21.7034 20.8406C21.4863 20.6235 21.1301 20.6291 20.9186 20.8517C20.785 20.9909 20.6458 21.1356 20.5178 21.2803C20.3174 21.5141 20.3396 21.8648 20.5679 22.0652C20.6848 22.1543 20.8128 22.1988 20.9408 22.1988ZM34.0831 20.4009C34.2668 20.4009 34.4394 20.3118 34.5507 20.1504C34.7177 19.8943 34.6453 19.5492 34.3893 19.3822C34.2278 19.2764 34.0608 19.1707 33.8883 19.0761C33.6211 18.9202 33.2815 19.0148 33.1257 19.2764C32.9698 19.5436 33.0589 19.8832 33.3261 20.039C33.4764 20.1281 33.6267 20.2172 33.7714 20.3174C33.8716 20.373 33.9773 20.4009 34.0831 20.4009ZM23.0394 20.3842C23.1451 20.3842 23.2509 20.3563 23.3399 20.2951C23.4847 20.2005 23.635 20.1058 23.7908 20.0223C24.058 19.8665 24.1471 19.5269 23.9968 19.2597C23.8465 18.9926 23.5014 18.9035 23.2342 19.0538C23.0672 19.1484 22.8946 19.2542 22.7332 19.3599C22.4771 19.5269 22.4048 19.872 22.5718 20.1281C22.6775 20.2951 22.8557 20.3842 23.0394 20.3842ZM31.5782 19.2152C31.8176 19.2152 32.0347 19.0649 32.107 18.8256C32.2017 18.5305 32.0347 18.2188 31.7452 18.1298C31.5615 18.0685 31.3667 18.0184 31.183 17.9683C30.8824 17.8904 30.5818 18.0741 30.5039 18.3691C30.426 18.6697 30.6097 18.9703 30.9047 19.0482C31.0717 19.0928 31.2442 19.1373 31.4112 19.1929C31.4669 19.2041 31.5226 19.2152 31.5782 19.2152ZM25.5498 19.2041C25.6055 19.2041 25.6611 19.1985 25.7168 19.1762C25.8838 19.1261 26.0508 19.0761 26.2233 19.0371C26.5239 18.9647 26.702 18.6586 26.6297 18.3635C26.5573 18.063 26.2512 17.8848 25.9561 17.9572C25.7669 18.0073 25.5776 18.0574 25.3884 18.1131C25.0934 18.2021 24.9319 18.5138 25.021 18.8089C25.0934 19.0482 25.3104 19.2041 25.5498 19.2041ZM28.8451 18.7532C29.1457 18.7532 29.3906 18.5138 29.4018 18.2133C29.4129 17.9071 29.168 17.651 28.8618 17.6399C28.667 17.6344 28.4666 17.6344 28.2773 17.6399C27.9712 17.6455 27.7263 17.9015 27.7374 18.2133C27.743 18.5138 27.9935 18.7532 28.294 18.7532H28.3107C28.4833 18.7476 28.6614 18.7476 28.8395 18.7532H28.8451Z" fill="white"/>
<path d="M26.2511 48.9342H30.8379C32.1738 48.9342 33.0756 48.038 33.0756 46.6965V43.6907L33.1034 43.6795C34.1499 43.3623 35.1741 42.9448 36.1538 42.4271L36.215 42.3937L38.4249 44.4867C38.7199 44.7761 39.193 45.1602 39.9167 45.1602C40.5234 45.1602 41.0355 44.8429 41.2804 44.6871C41.2916 44.6815 41.2971 44.6759 41.3083 44.6704L41.4419 44.6036L44.8151 41.2303L44.8485 41.1914C45.6946 40.1783 45.6668 38.9481 44.7817 38.0575L42.6609 35.9367L42.6943 35.8754C43.084 35.1017 43.5738 34.0608 43.9356 32.8473L43.9468 32.8195H46.9526C48.4889 32.8195 49.1903 31.6617 49.1903 30.5818V26.0507C49.1903 24.9486 48.5168 23.7963 47.0194 23.7128H43.9523L43.9412 23.6794C43.6183 22.6552 43.1842 21.6254 42.6887 20.6847L42.6665 20.6458L44.7873 18.5249C45.1213 18.191 46.1177 16.9719 44.8708 15.4078L44.8318 15.3577L41.5198 12.1013C41.4419 12.0234 40.7461 11.3721 39.822 11.3721C39.2932 11.3721 38.7589 11.617 38.3191 12.0568L36.1482 14.2277L36.1315 14.2166C35.1073 13.6154 33.9829 13.2257 33.1201 12.953L33.0811 12.9418V9.88589C33.0811 8.34956 31.9233 7.64819 30.8434 7.64819H26.3068C26.0285 7.64819 25.4941 7.69829 24.9876 8.02114C24.3641 8.42192 24.0246 9.07876 24.0246 9.88032V12.8862L23.9856 12.8973C22.967 13.2202 21.9316 13.6488 20.9965 14.1498L20.9575 14.172L18.8701 12.0846C18.3246 11.4556 17.7067 11.3165 17.2892 11.3165C16.4376 11.3165 15.8086 11.8787 15.636 12.0512L12.3741 15.3131C12.0178 15.6694 11.6393 16.2873 11.6393 16.9664C11.6393 17.5119 11.8843 18.0295 12.3741 18.5194L14.4949 20.6402L14.4838 20.6569C13.9271 21.6032 13.5542 22.6274 13.1868 23.6182L13.159 23.7073H10.1531C8.81717 23.7073 7.91541 24.6035 7.91541 25.945V30.5317C7.91541 31.8676 8.8116 32.7694 10.1531 32.7694H13.159L13.1701 32.7972C13.4874 33.8437 13.9049 34.8735 14.4225 35.8476L14.4448 35.8866L12.324 38.0074C11.7841 38.5473 11.5336 39.2097 11.6282 39.8777C11.695 40.362 11.9344 40.824 12.324 41.2136L15.5135 44.4199C15.9088 44.9208 16.6547 45.2103 17.228 45.2103C17.7457 45.2103 18.2411 44.9876 18.7087 44.5479C18.9981 44.3308 19.3599 43.9634 20.0724 43.2454C20.3118 43.006 20.579 42.7332 20.8684 42.4382L20.8963 42.4104L20.9352 42.4327C21.9149 42.9503 22.9391 43.3734 23.9856 43.6851L24.0135 43.6962V46.7021C24.0135 48.038 24.9152 48.9342 26.2511 48.9342ZM30.849 46.7077H26.2511V42.0541L24.6425 41.5532C23.7296 41.2804 22.8389 40.913 21.9873 40.4622L20.4955 39.6662L19.2987 40.8629C18.9981 41.1635 18.7309 41.4363 18.4916 41.6812C18.0184 42.1655 17.523 42.6609 17.3783 42.7666L17.2837 42.8279L17.2113 42.9058L17.1835 42.9336L13.8937 39.6439C13.8826 39.6328 13.877 39.6216 13.8659 39.6161C13.8715 39.6049 13.8826 39.5994 13.8937 39.5882L17.1779 36.3041L16.3819 34.8123C15.931 33.9662 15.5692 33.07 15.2909 32.1626L15.2853 32.1515L14.7843 30.554H10.1308V25.9617V25.9561H14.7843L15.2742 24.3864C15.6193 23.4457 15.9477 22.5606 16.4042 21.7869L16.4264 21.7479L17.2224 20.2561L13.9383 16.9719L13.9104 16.9441C13.9216 16.933 13.9271 16.9218 13.9383 16.9107L17.2002 13.6488C17.2113 13.6432 17.2169 13.6321 17.2336 13.6209L20.54 16.9163L22.0318 16.1203C22.8389 15.6917 23.7351 15.3187 24.6146 15.0348L26.24 14.6285V9.88589V9.88032C26.2623 9.87476 26.279 9.87476 26.3012 9.87476H30.8379H30.8434V14.5728L32.441 15.0738C33.198 15.3131 34.1777 15.6527 35.0127 16.1425L35.0516 16.1648L36.5434 16.9608L39.8666 13.6376C39.9 13.6543 39.9278 13.6766 39.9501 13.6933L43.1508 16.8439C43.1786 16.8773 43.1953 16.9051 43.212 16.9274L43.1953 16.9441L39.9111 20.2283L40.7071 21.7201C41.1413 22.5383 41.5198 23.4401 41.7981 24.3363L42.2935 25.9283H46.8969C46.9081 25.9283 46.9192 25.9338 46.9303 25.9338C46.9359 25.9617 46.9415 25.9951 46.9415 26.0396V30.5818H42.2935L41.7926 32.1905C41.5476 33.0032 41.2081 33.827 40.696 34.8568L39.9055 36.3374L43.1897 39.6216L43.2064 39.6383C43.1953 39.6606 43.1786 39.6884 43.1508 39.7218L40.0781 42.7945C40.0447 42.8112 40.0002 42.8446 39.9501 42.8668L36.5657 39.6662L35.0962 40.451C34.2501 40.9019 33.3539 41.2637 32.4466 41.542L32.4354 41.5476L30.8379 42.0486V46.7021C30.849 46.7021 30.849 46.7077 30.849 46.7077ZM39.9445 13.6822L39.9556 13.6933C39.9501 13.6877 39.9445 13.6877 39.9445 13.6822Z" fill="white"/>
<path d="M19.7496 32.981C19.0649 31.5003 18.8145 29.8193 19.0538 28.1995C18.8145 29.8249 19.0649 31.5059 19.7496 32.981ZM8.74482 43.7242C8.72256 43.8132 8.70029 43.9023 8.68359 43.9969C8.70029 43.9023 8.71699 43.8132 8.74482 43.7242Z" fill="white"/>
<path d="M8.68359 43.9969C8.70029 43.9078 8.72255 43.8132 8.74482 43.7241C8.76152 43.6629 8.77822 43.6017 8.80048 43.5404C8.95078 43.123 9.1957 42.7444 9.52968 42.4327L19.5492 33.1591L19.744 32.981C19.0594 31.5003 18.8089 29.8193 19.0482 28.1994C19.3154 26.3736 20.1504 24.726 21.4641 23.4234C23.8632 21.0522 27.4312 20.3341 30.5596 21.5977L31.3444 21.915L25.7168 27.4814C25.4385 27.7541 25.2882 28.1215 25.2826 28.5111C25.2826 28.9008 25.4329 29.2682 25.7057 29.5409L27.2643 31.1162C27.537 31.3945 27.9044 31.5448 28.294 31.5504H28.2996C28.6837 31.5504 29.0511 31.4001 29.3238 31.1274L34.957 25.561L35.2632 26.3514C36.4934 29.4908 35.7363 33.0533 33.3372 35.4246C32.0235 36.7272 30.3647 37.5399 28.539 37.7903C26.9136 38.0074 25.2381 37.7458 23.763 37.0444L14.2055 47.1642C13.6822 47.7152 12.9753 48.027 12.2183 48.0325H12.1849C11.439 48.0325 10.7376 47.7431 10.2088 47.2087L9.44062 46.435C8.90625 45.895 8.62236 45.177 8.63906 44.4199C8.64463 44.2752 8.65576 44.1305 8.68359 43.9969ZM12.2071 46.9193C12.6636 46.9137 13.0866 46.73 13.3983 46.396L23.5348 35.664L23.9133 35.8699C26.7243 37.3951 30.2812 36.8886 32.5579 34.6342C34.4282 32.7806 35.1463 30.092 34.495 27.5816L30.1087 31.9234C29.6244 32.4021 28.9843 32.6693 28.2996 32.6693H28.2885C27.6038 32.6637 26.9581 32.3965 26.4738 31.9067L24.9152 30.3314C23.9188 29.3238 23.9244 27.6929 24.9319 26.6965L29.3183 22.3547C26.8189 21.6756 24.1192 22.3658 22.2489 24.2194C19.9723 26.4738 19.4268 30.0196 20.9241 32.8529L21.1245 33.2315L20.5122 33.7992L20.3118 33.9885L10.2923 43.2621C9.9583 43.5738 9.76904 43.9913 9.75791 44.4478C9.74677 44.9042 9.91933 45.3328 10.2422 45.6557L11.0048 46.4238C11.3221 46.7467 11.7507 46.9193 12.2071 46.9193Z" fill="white"/>
<path d="M10.3257 43.0172C10.4593 43.0172 10.5984 42.9671 10.7042 42.8669L19.8108 34.4394C20.0391 34.2278 20.0502 33.8771 19.8387 33.6545C19.6272 33.4263 19.2765 33.4151 19.0538 33.6267L9.94717 42.0542C9.71895 42.2657 9.70782 42.6164 9.91934 42.8391C10.0307 42.9559 10.181 43.0172 10.3257 43.0172Z" fill="white"/>
</svg>
