<svg width="792" height="59" viewBox="0 0 792 59" fill="none" xmlns="http://www.w3.org/2000/svg">
<path opacity="0.1" d="M8.81641 3.34375V46H0.0273438V3.34375H8.81641ZM25.8086 21.5664V28.4219H6.41406V21.5664H25.8086ZM27.8594 3.34375V10.2285H6.41406V3.34375H27.8594ZM43.1055 21.2148V46H34.668V14.3008H42.6074L43.1055 21.2148ZM52.6562 14.0957L52.5098 21.918C52.0996 21.8594 51.6016 21.8105 51.0156 21.7715C50.4492 21.7129 49.9316 21.6836 49.4629 21.6836C48.2715 21.6836 47.2363 21.8398 46.3574 22.1523C45.498 22.4453 44.7754 22.8848 44.1895 23.4707C43.623 24.0566 43.1934 24.7695 42.9004 25.6094C42.627 26.4492 42.4707 27.4062 42.4316 28.4805L40.7324 27.9531C40.7324 25.9023 40.9375 24.0176 41.3477 22.2988C41.7578 20.5605 42.3535 19.0469 43.1348 17.7578C43.9355 16.4688 44.9121 15.4727 46.0645 14.7695C47.2168 14.0664 48.5352 13.7148 50.0195 13.7148C50.4883 13.7148 50.9668 13.7539 51.4551 13.832C51.9434 13.8906 52.3438 13.9785 52.6562 14.0957ZM73.6445 46.5859C71.1836 46.5859 68.9766 46.1953 67.0234 45.4141C65.0703 44.6133 63.4102 43.5098 62.043 42.1035C60.6953 40.6973 59.6602 39.0664 58.9375 37.2109C58.2148 35.3359 57.8535 33.3438 57.8535 31.2344V30.0625C57.8535 27.6602 58.1953 25.4629 58.8789 23.4707C59.5625 21.4785 60.5391 19.75 61.8086 18.2852C63.0977 16.8203 64.6602 15.6973 66.4961 14.916C68.332 14.1152 70.4023 13.7148 72.707 13.7148C74.9531 13.7148 76.9453 14.0859 78.6836 14.8281C80.4219 15.5703 81.877 16.625 83.0488 17.9922C84.2402 19.3594 85.1387 21 85.7441 22.9141C86.3496 24.8086 86.6523 26.918 86.6523 29.2422V32.7578H61.457V27.1328H78.3613V26.4883C78.3613 25.3164 78.1465 24.2715 77.7168 23.3535C77.3066 22.416 76.6816 21.6738 75.8418 21.127C75.002 20.5801 73.9277 20.3066 72.6191 20.3066C71.5059 20.3066 70.5488 20.5508 69.748 21.0391C68.9473 21.5273 68.293 22.2109 67.7852 23.0898C67.2969 23.9688 66.9258 25.0039 66.6719 26.1953C66.4375 27.3672 66.3203 28.6562 66.3203 30.0625V31.2344C66.3203 32.5039 66.4961 33.6758 66.8477 34.75C67.2188 35.8242 67.7363 36.752 68.4004 37.5332C69.084 38.3145 69.9043 38.9199 70.8613 39.3496C71.8379 39.7793 72.9414 39.9941 74.1719 39.9941C75.6953 39.9941 77.1113 39.7012 78.4199 39.1152C79.748 38.5098 80.8906 37.6016 81.8477 36.3906L85.9492 40.8438C85.2852 41.8008 84.377 42.7188 83.2246 43.5977C82.0918 44.4766 80.7246 45.1992 79.123 45.7656C77.5215 46.3125 75.6953 46.5859 73.6445 46.5859ZM113.178 58.1875V20.7754L114.262 14.3008H121.674V58.1875H113.178ZM93.1387 30.4727V29.8574C93.1387 27.4355 93.4023 25.2383 93.9297 23.2656C94.4766 21.2734 95.2773 19.5742 96.332 18.168C97.3867 16.7422 98.6758 15.6484 100.199 14.8867C101.742 14.1055 103.52 13.7148 105.531 13.7148C107.465 13.7148 109.135 14.1055 110.541 14.8867C111.947 15.668 113.129 16.7715 114.086 18.1973C115.062 19.623 115.844 21.3027 116.43 23.2363C117.016 25.1699 117.465 27.2891 117.777 29.5938V30.9414C117.484 33.1484 117.035 35.1992 116.43 37.0938C115.844 38.9883 115.062 40.6484 114.086 42.0742C113.129 43.5 111.938 44.6133 110.512 45.4141C109.105 46.1953 107.426 46.5859 105.473 46.5859C103.5 46.5859 101.742 46.1855 100.199 45.3848C98.6758 44.5645 97.3867 43.4316 96.332 41.9863C95.2773 40.541 94.4766 38.8418 93.9297 36.8887C93.4023 34.916 93.1387 32.7773 93.1387 30.4727ZM101.576 29.8574V30.4727C101.576 31.7812 101.684 33.0117 101.898 34.1641C102.113 35.2969 102.455 36.3027 102.924 37.1816C103.412 38.0605 104.037 38.7539 104.799 39.2617C105.561 39.75 106.498 39.9941 107.611 39.9941C109.154 39.9941 110.395 39.6621 111.332 38.998C112.289 38.3145 112.992 37.3867 113.441 36.2148C113.91 35.043 114.184 33.7051 114.262 32.2012V28.3633C114.203 27.1328 114.037 26.0293 113.764 25.0527C113.51 24.0566 113.119 23.207 112.592 22.5039C112.084 21.8008 111.42 21.2637 110.6 20.8926C109.799 20.502 108.822 20.3066 107.67 20.3066C106.576 20.3066 105.639 20.5508 104.857 21.0391C104.076 21.5273 103.441 22.2109 102.953 23.0898C102.484 23.9492 102.133 24.9551 101.898 26.1074C101.684 27.2598 101.576 28.5098 101.576 29.8574ZM150.074 38.4121V14.3008H158.512V46H150.572L150.074 38.4121ZM151.012 31.9082L153.502 31.8496C153.502 33.959 153.258 35.9219 152.77 37.7383C152.281 39.5352 151.549 41.0977 150.572 42.4258C149.596 43.7344 148.365 44.7598 146.881 45.502C145.396 46.2246 143.648 46.5859 141.637 46.5859C140.094 46.5859 138.668 46.3711 137.359 45.9414C136.07 45.4922 134.957 44.7988 134.02 43.8613C133.102 42.9043 132.379 41.6836 131.852 40.1992C131.344 38.6953 131.09 36.8887 131.09 34.7793V14.3008H139.527V34.8379C139.527 35.7754 139.635 36.5664 139.85 37.2109C140.084 37.8555 140.406 38.3828 140.816 38.793C141.227 39.2031 141.705 39.4961 142.252 39.6719C142.818 39.8477 143.443 39.9355 144.127 39.9355C145.865 39.9355 147.232 39.584 148.229 38.8809C149.244 38.1777 149.957 37.2207 150.367 36.0098C150.797 34.7793 151.012 33.4121 151.012 31.9082ZM182.547 46.5859C180.086 46.5859 177.879 46.1953 175.926 45.4141C173.973 44.6133 172.312 43.5098 170.945 42.1035C169.598 40.6973 168.562 39.0664 167.84 37.2109C167.117 35.3359 166.756 33.3438 166.756 31.2344V30.0625C166.756 27.6602 167.098 25.4629 167.781 23.4707C168.465 21.4785 169.441 19.75 170.711 18.2852C172 16.8203 173.562 15.6973 175.398 14.916C177.234 14.1152 179.305 13.7148 181.609 13.7148C183.855 13.7148 185.848 14.0859 187.586 14.8281C189.324 15.5703 190.779 16.625 191.951 17.9922C193.143 19.3594 194.041 21 194.646 22.9141C195.252 24.8086 195.555 26.918 195.555 29.2422V32.7578H170.359V27.1328H187.264V26.4883C187.264 25.3164 187.049 24.2715 186.619 23.3535C186.209 22.416 185.584 21.6738 184.744 21.127C183.904 20.5801 182.83 20.3066 181.521 20.3066C180.408 20.3066 179.451 20.5508 178.65 21.0391C177.85 21.5273 177.195 22.2109 176.688 23.0898C176.199 23.9688 175.828 25.0039 175.574 26.1953C175.34 27.3672 175.223 28.6562 175.223 30.0625V31.2344C175.223 32.5039 175.398 33.6758 175.75 34.75C176.121 35.8242 176.639 36.752 177.303 37.5332C177.986 38.3145 178.807 38.9199 179.764 39.3496C180.74 39.7793 181.844 39.9941 183.074 39.9941C184.598 39.9941 186.014 39.7012 187.322 39.1152C188.65 38.5098 189.793 37.6016 190.75 36.3906L194.852 40.8438C194.188 41.8008 193.279 42.7188 192.127 43.5977C190.994 44.4766 189.627 45.1992 188.025 45.7656C186.424 46.3125 184.598 46.5859 182.547 46.5859ZM211.621 21.0684V46H203.184V14.3008H211.094L211.621 21.0684ZM210.391 29.0371H208.105C208.105 26.6934 208.408 24.584 209.014 22.709C209.619 20.8145 210.469 19.2031 211.562 17.875C212.656 16.5273 213.955 15.502 215.459 14.7988C216.982 14.0762 218.682 13.7148 220.557 13.7148C222.041 13.7148 223.398 13.9297 224.629 14.3594C225.859 14.7891 226.914 15.4727 227.793 16.4102C228.691 17.3477 229.375 18.5879 229.844 20.1309C230.332 21.6738 230.576 23.5586 230.576 25.7852V46H222.08V25.7559C222.08 24.3496 221.885 23.2559 221.494 22.4746C221.104 21.6934 220.527 21.1465 219.766 20.834C219.023 20.502 218.105 20.3359 217.012 20.3359C215.879 20.3359 214.893 20.5605 214.053 21.0098C213.232 21.459 212.549 22.084 212.002 22.8848C211.475 23.666 211.074 24.584 210.801 25.6387C210.527 26.6934 210.391 27.8262 210.391 29.0371ZM255.52 14.3008V20.2773H237.062V14.3008H255.52ZM241.633 6.47852H250.07V36.4492C250.07 37.3672 250.188 38.0703 250.422 38.5586C250.676 39.0469 251.047 39.3887 251.535 39.584C252.023 39.7598 252.639 39.8477 253.381 39.8477C253.908 39.8477 254.377 39.8281 254.787 39.7891C255.217 39.7305 255.578 39.6719 255.871 39.6133L255.9 45.8242C255.178 46.0586 254.396 46.2441 253.557 46.3809C252.717 46.5176 251.789 46.5859 250.773 46.5859C248.918 46.5859 247.297 46.2832 245.91 45.6777C244.543 45.0527 243.488 44.0566 242.746 42.6895C242.004 41.3223 241.633 39.5254 241.633 37.2988V6.47852ZM272.23 1V46H263.764V1H272.23ZM291.607 42.4258L300.016 14.3008H309.068L296.324 50.7754C296.051 51.5762 295.68 52.4355 295.211 53.3535C294.762 54.2715 294.146 55.1406 293.365 55.9609C292.604 56.8008 291.637 57.4844 290.465 58.0117C289.312 58.5391 287.896 58.8027 286.217 58.8027C285.416 58.8027 284.762 58.7539 284.254 58.6562C283.746 58.5586 283.141 58.4219 282.438 58.2461V52.0645C282.652 52.0645 282.877 52.0645 283.111 52.0645C283.346 52.084 283.57 52.0938 283.785 52.0938C284.898 52.0938 285.807 51.9668 286.51 51.7129C287.213 51.459 287.779 51.0684 288.209 50.541C288.639 50.0332 288.98 49.3691 289.234 48.5488L291.607 42.4258ZM288.092 14.3008L294.977 37.2695L296.178 46.2051L290.436 46.8203L279.039 14.3008H288.092ZM351.25 10.6387L339.648 46H330.303L346.152 3.34375H352.1L351.25 10.6387ZM360.889 46L349.258 10.6387L348.32 3.34375H354.326L370.264 46H360.889ZM360.361 30.1211V37.0059H337.832V30.1211H360.361ZM393.83 37.2402C393.83 36.6348 393.654 36.0879 393.303 35.5996C392.951 35.1113 392.297 34.6621 391.34 34.252C390.402 33.8223 389.045 33.4316 387.268 33.0801C385.666 32.7285 384.172 32.2891 382.785 31.7617C381.418 31.2148 380.227 30.5605 379.211 29.7988C378.215 29.0371 377.434 28.1387 376.867 27.1035C376.301 26.0488 376.018 24.8477 376.018 23.5C376.018 22.1719 376.301 20.9219 376.867 19.75C377.453 18.5781 378.283 17.543 379.357 16.6445C380.451 15.7266 381.779 15.0137 383.342 14.5059C384.924 13.9785 386.701 13.7148 388.674 13.7148C391.428 13.7148 393.791 14.1543 395.764 15.0332C397.756 15.9121 399.279 17.123 400.334 18.666C401.408 20.1895 401.945 21.9277 401.945 23.8809H393.508C393.508 23.0605 393.332 22.3281 392.98 21.6836C392.648 21.0195 392.121 20.502 391.398 20.1309C390.695 19.7402 389.777 19.5449 388.645 19.5449C387.707 19.5449 386.896 19.7109 386.213 20.043C385.529 20.3555 385.002 20.7852 384.631 21.332C384.279 21.8594 384.104 22.4453 384.104 23.0898C384.104 23.5781 384.201 24.0176 384.396 24.4082C384.611 24.7793 384.953 25.1211 385.422 25.4336C385.891 25.7461 386.496 26.0391 387.238 26.3125C388 26.5664 388.938 26.8008 390.051 27.0156C392.336 27.4844 394.377 28.0996 396.174 28.8613C397.971 29.6035 399.396 30.6191 400.451 31.9082C401.506 33.1777 402.033 34.8477 402.033 36.918C402.033 38.3242 401.721 39.6133 401.096 40.7852C400.471 41.957 399.572 42.9824 398.4 43.8613C397.229 44.7207 395.822 45.3945 394.182 45.8828C392.561 46.3516 390.734 46.5859 388.703 46.5859C385.754 46.5859 383.254 46.0586 381.203 45.0039C379.172 43.9492 377.629 42.6113 376.574 40.9902C375.539 39.3496 375.021 37.6699 375.021 35.9512H383.02C383.059 37.1035 383.352 38.0312 383.898 38.7344C384.465 39.4375 385.178 39.9453 386.037 40.2578C386.916 40.5703 387.863 40.7266 388.879 40.7266C389.973 40.7266 390.881 40.5801 391.604 40.2871C392.326 39.9746 392.873 39.5645 393.244 39.0566C393.635 38.5293 393.83 37.9238 393.83 37.2402ZM418.949 0.970703V46H410.512V0.970703H418.949ZM438.93 14.3008L425.16 30.0039L417.777 37.4746L414.701 31.3809L420.561 23.9395L428.793 14.3008H438.93ZM430.17 46L420.795 31.3516L426.625 26.2539L439.896 46H430.17ZM459.566 46.5859C457.105 46.5859 454.898 46.1953 452.945 45.4141C450.992 44.6133 449.332 43.5098 447.965 42.1035C446.617 40.6973 445.582 39.0664 444.859 37.2109C444.137 35.3359 443.775 33.3438 443.775 31.2344V30.0625C443.775 27.6602 444.117 25.4629 444.801 23.4707C445.484 21.4785 446.461 19.75 447.73 18.2852C449.02 16.8203 450.582 15.6973 452.418 14.916C454.254 14.1152 456.324 13.7148 458.629 13.7148C460.875 13.7148 462.867 14.0859 464.605 14.8281C466.344 15.5703 467.799 16.625 468.971 17.9922C470.162 19.3594 471.061 21 471.666 22.9141C472.271 24.8086 472.574 26.918 472.574 29.2422V32.7578H447.379V27.1328H464.283V26.4883C464.283 25.3164 464.068 24.2715 463.639 23.3535C463.229 22.416 462.604 21.6738 461.764 21.127C460.924 20.5801 459.85 20.3066 458.541 20.3066C457.428 20.3066 456.471 20.5508 455.67 21.0391C454.869 21.5273 454.215 22.2109 453.707 23.0898C453.219 23.9688 452.848 25.0039 452.594 26.1953C452.359 27.3672 452.242 28.6562 452.242 30.0625V31.2344C452.242 32.5039 452.418 33.6758 452.77 34.75C453.141 35.8242 453.658 36.752 454.322 37.5332C455.006 38.3145 455.826 38.9199 456.783 39.3496C457.76 39.7793 458.863 39.9941 460.094 39.9941C461.617 39.9941 463.033 39.7012 464.342 39.1152C465.67 38.5098 466.812 37.6016 467.77 36.3906L471.871 40.8438C471.207 41.8008 470.299 42.7188 469.146 43.5977C468.014 44.4766 466.646 45.1992 465.045 45.7656C463.443 46.3125 461.617 46.5859 459.566 46.5859ZM499.1 39.0859V1H507.596V46H499.949L499.1 39.0859ZM479.061 30.5312V29.916C479.061 27.4941 479.334 25.2969 479.881 23.3242C480.428 21.332 481.229 19.623 482.283 18.1973C483.338 16.7715 484.637 15.668 486.18 14.8867C487.723 14.1055 489.48 13.7148 491.453 13.7148C493.309 13.7148 494.93 14.1055 496.316 14.8867C497.723 15.668 498.914 16.7812 499.891 18.2266C500.887 19.6523 501.688 21.3418 502.293 23.2949C502.898 25.2285 503.338 27.3477 503.611 29.6523V31C503.338 33.207 502.898 35.2578 502.293 37.1523C501.688 39.0469 500.887 40.707 499.891 42.1328C498.914 43.5391 497.723 44.6328 496.316 45.4141C494.91 46.1953 493.27 46.5859 491.395 46.5859C489.422 46.5859 487.664 46.1855 486.121 45.3848C484.598 44.584 483.309 43.4609 482.254 42.0156C481.219 40.5703 480.428 38.8711 479.881 36.918C479.334 34.9648 479.061 32.8359 479.061 30.5312ZM487.498 29.916V30.5312C487.498 31.8398 487.596 33.0605 487.791 34.1934C488.006 35.3262 488.348 36.332 488.816 37.2109C489.305 38.0703 489.93 38.7441 490.691 39.2324C491.473 39.7012 492.42 39.9355 493.533 39.9355C494.979 39.9355 496.17 39.6133 497.107 38.9688C498.045 38.3047 498.758 37.3965 499.246 36.2441C499.754 35.0918 500.047 33.7637 500.125 32.2598V28.4219C500.066 27.1914 499.891 26.0879 499.598 25.1113C499.324 24.1152 498.914 23.2656 498.367 22.5625C497.84 21.8594 497.176 21.3125 496.375 20.9219C495.594 20.5312 494.666 20.3359 493.592 20.3359C492.498 20.3359 491.561 20.5898 490.779 21.0977C489.998 21.5859 489.363 22.2598 488.875 23.1191C488.406 23.9785 488.055 24.9941 487.82 26.166C487.605 27.3184 487.498 28.5684 487.498 29.916ZM558.83 39.6719L570.373 48.8125L564.836 53.6172L553.469 44.4766L558.83 39.6719ZM570.666 23.6758V25.6973C570.666 28.9395 570.227 31.8496 569.348 34.4277C568.488 37.0059 567.248 39.2031 565.627 41.0195C564.006 42.8164 562.092 44.1934 559.885 45.1504C557.678 46.1074 555.227 46.5859 552.531 46.5859C549.855 46.5859 547.404 46.1074 545.178 45.1504C542.951 44.1934 541.027 42.8164 539.406 41.0195C537.785 39.2031 536.525 37.0059 535.627 34.4277C534.748 31.8496 534.309 28.9395 534.309 25.6973V23.6758C534.309 20.4141 534.748 17.5039 535.627 14.9453C536.525 12.3672 537.775 10.1699 539.377 8.35352C540.979 6.53711 542.893 5.15039 545.119 4.19336C547.346 3.23633 549.797 2.75781 552.473 2.75781C555.168 2.75781 557.619 3.23633 559.826 4.19336C562.053 5.15039 563.977 6.53711 565.598 8.35352C567.219 10.1699 568.469 12.3672 569.348 14.9453C570.227 17.5039 570.666 20.4141 570.666 23.6758ZM561.789 25.6973V23.6172C561.789 21.3516 561.574 19.3594 561.145 17.6406C560.734 15.9219 560.129 14.4766 559.328 13.3047C558.547 12.1328 557.58 11.2539 556.428 10.668C555.275 10.0625 553.957 9.75977 552.473 9.75977C550.988 9.75977 549.67 10.0625 548.518 10.668C547.365 11.2539 546.398 12.1328 545.617 13.3047C544.836 14.4766 544.24 15.9219 543.83 17.6406C543.42 19.3594 543.215 21.3516 543.215 23.6172V25.6973C543.215 27.9434 543.42 29.9355 543.83 31.6738C544.24 33.3926 544.836 34.8477 545.617 36.0391C546.418 37.2109 547.395 38.0996 548.547 38.7051C549.719 39.3105 551.047 39.6133 552.531 39.6133C554.016 39.6133 555.324 39.3105 556.457 38.7051C557.609 38.0996 558.576 37.2109 559.357 36.0391C560.158 34.8477 560.764 33.3926 561.174 31.6738C561.584 29.9355 561.789 27.9434 561.789 25.6973ZM598.246 38.4121V14.3008H606.684V46H598.744L598.246 38.4121ZM599.184 31.9082L601.674 31.8496C601.674 33.959 601.43 35.9219 600.941 37.7383C600.453 39.5352 599.721 41.0977 598.744 42.4258C597.768 43.7344 596.537 44.7598 595.053 45.502C593.568 46.2246 591.82 46.5859 589.809 46.5859C588.266 46.5859 586.84 46.3711 585.531 45.9414C584.242 45.4922 583.129 44.7988 582.191 43.8613C581.273 42.9043 580.551 41.6836 580.023 40.1992C579.516 38.6953 579.262 36.8887 579.262 34.7793V14.3008H587.699V34.8379C587.699 35.7754 587.807 36.5664 588.021 37.2109C588.256 37.8555 588.578 38.3828 588.988 38.793C589.398 39.2031 589.877 39.4961 590.424 39.6719C590.99 39.8477 591.615 39.9355 592.299 39.9355C594.037 39.9355 595.404 39.584 596.4 38.8809C597.416 38.1777 598.129 37.2207 598.539 36.0098C598.969 34.7793 599.184 33.4121 599.184 31.9082ZM630.719 46.5859C628.258 46.5859 626.051 46.1953 624.098 45.4141C622.145 44.6133 620.484 43.5098 619.117 42.1035C617.77 40.6973 616.734 39.0664 616.012 37.2109C615.289 35.3359 614.928 33.3438 614.928 31.2344V30.0625C614.928 27.6602 615.27 25.4629 615.953 23.4707C616.637 21.4785 617.613 19.75 618.883 18.2852C620.172 16.8203 621.734 15.6973 623.57 14.916C625.406 14.1152 627.477 13.7148 629.781 13.7148C632.027 13.7148 634.02 14.0859 635.758 14.8281C637.496 15.5703 638.951 16.625 640.123 17.9922C641.314 19.3594 642.213 21 642.818 22.9141C643.424 24.8086 643.727 26.918 643.727 29.2422V32.7578H618.531V27.1328H635.436V26.4883C635.436 25.3164 635.221 24.2715 634.791 23.3535C634.381 22.416 633.756 21.6738 632.916 21.127C632.076 20.5801 631.002 20.3066 629.693 20.3066C628.58 20.3066 627.623 20.5508 626.822 21.0391C626.021 21.5273 625.367 22.2109 624.859 23.0898C624.371 23.9688 624 25.0039 623.746 26.1953C623.512 27.3672 623.395 28.6562 623.395 30.0625V31.2344C623.395 32.5039 623.57 33.6758 623.922 34.75C624.293 35.8242 624.811 36.752 625.475 37.5332C626.158 38.3145 626.979 38.9199 627.936 39.3496C628.912 39.7793 630.016 39.9941 631.246 39.9941C632.77 39.9941 634.186 39.7012 635.494 39.1152C636.822 38.5098 637.965 37.6016 638.922 36.3906L643.023 40.8438C642.359 41.8008 641.451 42.7188 640.299 43.5977C639.166 44.4766 637.799 45.1992 636.197 45.7656C634.596 46.3125 632.77 46.5859 630.719 46.5859ZM668.67 37.2402C668.67 36.6348 668.494 36.0879 668.143 35.5996C667.791 35.1113 667.137 34.6621 666.18 34.252C665.242 33.8223 663.885 33.4316 662.107 33.0801C660.506 32.7285 659.012 32.2891 657.625 31.7617C656.258 31.2148 655.066 30.5605 654.051 29.7988C653.055 29.0371 652.273 28.1387 651.707 27.1035C651.141 26.0488 650.857 24.8477 650.857 23.5C650.857 22.1719 651.141 20.9219 651.707 19.75C652.293 18.5781 653.123 17.543 654.197 16.6445C655.291 15.7266 656.619 15.0137 658.182 14.5059C659.764 13.9785 661.541 13.7148 663.514 13.7148C666.268 13.7148 668.631 14.1543 670.604 15.0332C672.596 15.9121 674.119 17.123 675.174 18.666C676.248 20.1895 676.785 21.9277 676.785 23.8809H668.348C668.348 23.0605 668.172 22.3281 667.82 21.6836C667.488 21.0195 666.961 20.502 666.238 20.1309C665.535 19.7402 664.617 19.5449 663.484 19.5449C662.547 19.5449 661.736 19.7109 661.053 20.043C660.369 20.3555 659.842 20.7852 659.471 21.332C659.119 21.8594 658.943 22.4453 658.943 23.0898C658.943 23.5781 659.041 24.0176 659.236 24.4082C659.451 24.7793 659.793 25.1211 660.262 25.4336C660.73 25.7461 661.336 26.0391 662.078 26.3125C662.84 26.5664 663.777 26.8008 664.891 27.0156C667.176 27.4844 669.217 28.0996 671.014 28.8613C672.811 29.6035 674.236 30.6191 675.291 31.9082C676.346 33.1777 676.873 34.8477 676.873 36.918C676.873 38.3242 676.561 39.6133 675.936 40.7852C675.311 41.957 674.412 42.9824 673.24 43.8613C672.068 44.7207 670.662 45.3945 669.021 45.8828C667.4 46.3516 665.574 46.5859 663.543 46.5859C660.594 46.5859 658.094 46.0586 656.043 45.0039C654.012 43.9492 652.469 42.6113 651.414 40.9902C650.379 39.3496 649.861 37.6699 649.861 35.9512H657.859C657.898 37.1035 658.191 38.0312 658.738 38.7344C659.305 39.4375 660.018 39.9453 660.877 40.2578C661.756 40.5703 662.703 40.7266 663.719 40.7266C664.812 40.7266 665.721 40.5801 666.443 40.2871C667.166 39.9746 667.713 39.5645 668.084 39.0566C668.475 38.5293 668.67 37.9238 668.67 37.2402ZM700.879 14.3008V20.2773H682.422V14.3008H700.879ZM686.992 6.47852H695.43V36.4492C695.43 37.3672 695.547 38.0703 695.781 38.5586C696.035 39.0469 696.406 39.3887 696.895 39.584C697.383 39.7598 697.998 39.8477 698.74 39.8477C699.268 39.8477 699.736 39.8281 700.146 39.7891C700.576 39.7305 700.938 39.6719 701.23 39.6133L701.26 45.8242C700.537 46.0586 699.756 46.2441 698.916 46.3809C698.076 46.5176 697.148 46.5859 696.133 46.5859C694.277 46.5859 692.656 46.2832 691.27 45.6777C689.902 45.0527 688.848 44.0566 688.105 42.6895C687.363 41.3223 686.992 39.5254 686.992 37.2988V6.47852ZM717.59 14.3008V46H709.123V14.3008H717.59ZM708.596 6.03906C708.596 4.80859 709.025 3.79297 709.885 2.99219C710.744 2.19141 711.896 1.79102 713.342 1.79102C714.768 1.79102 715.91 2.19141 716.77 2.99219C717.648 3.79297 718.088 4.80859 718.088 6.03906C718.088 7.26953 717.648 8.28516 716.77 9.08594C715.91 9.88672 714.768 10.2871 713.342 10.2871C711.896 10.2871 710.744 9.88672 709.885 9.08594C709.025 8.28516 708.596 7.26953 708.596 6.03906ZM726.215 30.4727V29.8574C726.215 27.5332 726.547 25.3945 727.211 23.4414C727.875 21.4688 728.842 19.7598 730.111 18.3145C731.381 16.8691 732.943 15.7461 734.799 14.9453C736.654 14.125 738.783 13.7148 741.186 13.7148C743.588 13.7148 745.727 14.125 747.602 14.9453C749.477 15.7461 751.049 16.8691 752.318 18.3145C753.607 19.7598 754.584 21.4688 755.248 23.4414C755.912 25.3945 756.244 27.5332 756.244 29.8574V30.4727C756.244 32.7773 755.912 34.916 755.248 36.8887C754.584 38.8418 753.607 40.5508 752.318 42.0156C751.049 43.4609 749.486 44.584 747.631 45.3848C745.775 46.1855 743.646 46.5859 741.244 46.5859C738.842 46.5859 736.703 46.1855 734.828 45.3848C732.973 44.584 731.4 43.4609 730.111 42.0156C728.842 40.5508 727.875 38.8418 727.211 36.8887C726.547 34.916 726.215 32.7773 726.215 30.4727ZM734.652 29.8574V30.4727C734.652 31.8008 734.77 33.041 735.004 34.1934C735.238 35.3457 735.609 36.3613 736.117 37.2402C736.645 38.0996 737.328 38.7734 738.168 39.2617C739.008 39.75 740.033 39.9941 741.244 39.9941C742.416 39.9941 743.422 39.75 744.262 39.2617C745.102 38.7734 745.775 38.0996 746.283 37.2402C746.791 36.3613 747.162 35.3457 747.396 34.1934C747.65 33.041 747.777 31.8008 747.777 30.4727V29.8574C747.777 28.5684 747.65 27.3574 747.396 26.2246C747.162 25.0723 746.781 24.0566 746.254 23.1777C745.746 22.2793 745.072 21.5762 744.232 21.0684C743.393 20.5605 742.377 20.3066 741.186 20.3066C739.994 20.3066 738.979 20.5605 738.139 21.0684C737.318 21.5762 736.645 22.2793 736.117 23.1777C735.609 24.0566 735.238 25.0723 735.004 26.2246C734.77 27.3574 734.652 28.5684 734.652 29.8574ZM772.691 21.0684V46H764.254V14.3008H772.164L772.691 21.0684ZM771.461 29.0371H769.176C769.176 26.6934 769.479 24.584 770.084 22.709C770.689 20.8145 771.539 19.2031 772.633 17.875C773.727 16.5273 775.025 15.502 776.529 14.7988C778.053 14.0762 779.752 13.7148 781.627 13.7148C783.111 13.7148 784.469 13.9297 785.699 14.3594C786.93 14.7891 787.984 15.4727 788.863 16.4102C789.762 17.3477 790.445 18.5879 790.914 20.1309C791.402 21.6738 791.646 23.5586 791.646 25.7852V46H783.15V25.7559C783.15 24.3496 782.955 23.2559 782.564 22.4746C782.174 21.6934 781.598 21.1465 780.836 20.834C780.094 20.502 779.176 20.3359 778.082 20.3359C776.949 20.3359 775.963 20.5605 775.123 21.0098C774.303 21.459 773.619 22.084 773.072 22.8848C772.545 23.666 772.145 24.584 771.871 25.6387C771.598 26.6934 771.461 27.8262 771.461 29.0371Z" fill="#9D1C21"/>
</svg>
