<svg width="57" height="57" viewBox="0 0 57 57" fill="none" xmlns="http://www.w3.org/2000/svg">
<path d="M22.5551 27.871L20.078 22.5607H23.6016L26.0786 27.871H22.5551ZM33.4986 22.5607L35.9757 27.871H32.4522L29.9751 22.5607H33.4986ZM25.0266 22.5607H28.5501L31.0272 27.871H27.5036L25.0266 22.5607ZM40.3398 22.5607V27.871H37.4007L34.9236 22.5607H40.3398ZM15.8698 27.871V22.5607H18.653L21.1301 27.871H15.8698Z" fill="#E6E6E6"/>
<path d="M28.1048 46.6075C32.5802 44.6704 35.8198 41.5365 37.9685 38.397C39.1318 38.0074 40.2507 37.5899 41.3194 37.1613C40.8685 38.0074 40.362 38.8535 39.7998 39.6662C37.8126 42.5552 34.2501 46.4906 28.5668 48.8229C28.4165 48.8842 28.2606 48.9176 28.1048 48.9176C27.9489 48.9176 27.7931 48.8897 27.6428 48.8285C23.5069 47.1252 20.4955 44.5813 18.397 42.2045C19.3266 42.1599 20.284 42.0876 21.2581 41.9929C23.1006 43.7965 25.3717 45.4274 28.1048 46.6075ZM7.38662 30.7933C7.79853 30.426 8.27168 30.053 8.80605 29.6856C9.8915 28.923 11.2107 28.1604 12.7192 27.4257V15.8921C12.7192 15.213 13.2647 14.6619 13.9327 14.6619C17.523 14.6452 20.7404 13.6822 23.5014 11.8008C25.6444 10.3424 26.7967 8.80046 27.1028 8.36072C27.3311 8.0323 27.704 7.83191 28.1048 7.83191C28.5 7.83191 28.8785 8.02673 29.1067 8.35515C29.4129 8.7949 30.5707 10.3368 32.7138 11.7952C35.4803 13.6766 38.7032 14.6396 42.288 14.6563C42.956 14.6619 43.5015 15.213 43.5015 15.8865V21.041C44.1917 21.0855 44.843 21.1468 45.4553 21.2303C46.8302 21.4139 47.9991 21.6923 48.951 22.0596C50.5652 22.6886 51.506 23.5681 51.7509 24.6759C51.9847 25.7335 51.5505 26.869 50.4706 28.0602L50.465 28.0658C50.4428 28.0881 50.4261 28.1103 50.4038 28.1326C49.3963 29.2125 47.8711 30.3146 45.8672 31.4112C45.7336 31.4836 45.5944 31.5615 45.4553 31.6339C44.7094 32.0291 43.9078 32.4187 43.0673 32.7917C42.8224 33.7157 42.4772 34.6787 42.0486 35.6528C41.0578 36.0814 40.0113 36.4933 38.9147 36.8886C39.5048 35.8643 39.9835 34.8568 40.3509 33.9105C37.2727 35.085 33.7881 36.1204 30.1198 36.9331C26.0007 37.846 21.9706 38.4026 18.3691 38.5752C18.9313 39.3823 19.5603 40.1839 20.2673 40.9632C19.3154 41.0411 18.3858 41.0968 17.4896 41.1246C17.0889 40.618 16.7326 40.1282 16.4153 39.6662C16.1815 39.3266 15.9589 38.9815 15.7418 38.6308C14.9681 38.6253 14.2277 38.603 13.5097 38.5529C11.6449 38.4304 10.0641 38.1688 8.80048 37.7736C8.52216 37.6845 8.26054 37.5955 8.01562 37.4953C7.53134 37.3005 7.1083 37.0778 6.75205 36.8385C6.93574 36.5267 7.16953 36.2262 7.42558 35.9423C7.79297 36.1872 8.25497 36.4043 8.80048 36.5935C10.0084 37.0166 11.6338 37.3116 13.582 37.4396C14.0663 37.473 14.5673 37.4953 15.085 37.5064C13.5932 34.79 12.7137 31.9901 12.7137 29.8192V28.667C11.1551 29.4574 9.83027 30.2701 8.80048 31.0661C8.55556 31.2553 8.33291 31.439 8.12138 31.6283C7.21406 32.4354 6.18427 33.6211 6.41806 34.6898C6.45703 34.8568 6.52383 35.0127 6.61845 35.1685C6.33457 35.4747 6.09521 35.7808 5.90595 36.0814C5.6165 35.7307 5.42724 35.3467 5.33261 34.9292C5.05429 33.6489 5.74453 32.2573 7.38662 30.7933ZM45.3328 30.426C45.3718 30.4037 45.4163 30.3814 45.4553 30.3592C47.3423 29.3182 48.7728 28.2606 49.6579 27.2809C49.6635 27.2809 49.6635 27.2865 49.669 27.2865C50.0197 26.9303 50.2479 26.5406 50.3314 26.3903C50.6432 25.8504 50.7656 25.355 50.6654 24.9096C50.3982 23.6906 48.4945 22.7777 45.4553 22.3491C44.8485 22.2656 44.1973 22.1988 43.5015 22.1543V29.8248C43.5015 30.3258 43.4514 30.8657 43.3623 31.4279C44.0525 31.0995 44.7149 30.7655 45.3328 30.426ZM14.9402 29.8248C14.9402 31.5893 15.803 34.495 17.6566 37.4897C21.3527 37.3617 25.5609 36.7995 29.8749 35.8421C33.8437 34.9626 37.5899 33.827 40.8185 32.5301C41.1246 31.4836 41.2749 30.554 41.2749 29.8248V16.8606C37.6289 16.6769 34.3336 15.597 31.4558 13.6377C29.9139 12.5912 28.8061 11.4835 28.0992 10.6763C27.3978 11.4835 26.2901 12.5856 24.7538 13.6377C21.8815 15.597 18.5862 16.6769 14.9402 16.8606V29.8248Z" fill="white"/>
<path d="M43.5182 24.6703C45.7503 24.8094 47.5816 25.1546 48.951 25.6889C49.4854 25.8949 49.9474 26.1343 50.3315 26.3959C50.1645 26.6853 49.9362 26.9803 49.6579 27.2921C48.4778 26.5128 46.3459 25.984 43.5182 25.7947V24.6703Z" fill="white"/>
<path d="M50.337 26.3904C50.2535 26.5407 50.0197 26.9303 49.6746 27.2866C49.669 27.2866 49.669 27.281 49.6635 27.281C49.9362 26.9749 50.1644 26.6798 50.337 26.3904C50.3314 26.3904 50.3314 26.3904 50.337 26.3904ZM5.91152 36.0815C6.10635 35.7809 6.3457 35.4748 6.62402 35.1686C6.85224 34.9237 7.10273 34.6732 7.38662 34.4227C8.65576 33.2927 10.5094 32.1293 12.786 31.0216C12.8083 31.1719 12.9085 31.8399 12.9753 32.1739C10.9269 33.1925 9.26806 34.2446 8.12695 35.2577C7.89316 35.4636 7.65381 35.6974 7.43115 35.9423C7.17509 36.2207 6.94131 36.5268 6.75762 36.8385C6.47373 37.3228 6.31787 37.8349 6.42363 38.3192C6.74648 39.772 9.42392 40.8018 13.582 41.0746C14.7955 41.1525 16.1092 41.1692 17.4896 41.1247C18.3858 41.0968 19.3154 41.0412 20.2673 40.9632C23.2843 40.7127 26.5462 40.2118 29.8749 39.4714C33.0867 38.7589 36.1482 37.8794 38.9092 36.8831C40.0058 36.4878 41.0522 36.0759 42.0431 35.6473C43.2231 35.1352 44.3253 34.6008 45.3272 34.0553C48.9844 32.057 50.9771 29.9918 50.6599 28.539C50.6209 28.372 50.5541 28.2106 50.4595 28.0603L50.465 28.0547C50.5151 28.0046 50.8324 27.6818 51.1775 27.1474C51.467 27.4981 51.6562 27.8822 51.7509 28.2997C51.9902 29.3795 51.5338 30.5429 50.3982 31.7564C49.3907 32.8363 47.8655 33.9384 45.8616 35.035C44.5034 35.7753 42.9727 36.4934 41.3083 37.1614C40.2451 37.59 39.1263 38.0019 37.9573 38.3971C35.5081 39.2209 32.8641 39.9557 30.1143 40.5625C27.0639 41.236 24.0636 41.7203 21.2525 41.993C20.2728 42.0876 19.3154 42.16 18.3914 42.2045C17.5731 42.2435 16.7827 42.2658 16.0145 42.2658C15.1462 42.2658 14.3057 42.2379 13.5097 42.1878C11.233 42.0375 9.38496 41.6813 8.01562 41.1302C6.47373 40.5068 5.57197 39.644 5.33261 38.5641C5.16005 37.7737 5.35488 36.9443 5.91152 36.0815Z" fill="white"/>
<path d="M50.465 28.0603C50.465 28.0603 50.4706 28.0603 50.4706 28.0547C50.4706 28.0547 50.465 28.0547 50.465 28.0603Z" fill="white"/>
</svg>
