<svg width="100" height="100" viewBox="0 0 100 100" fill="none" xmlns="http://www.w3.org/2000/svg">
<path d="M91.5077 94.5255H8.70576C4.829 94.5255 1.67529 91.372 1.67529 87.495V53.1245C1.67529 52.6927 2.02471 52.3433 2.45654 52.3433C2.88838 52.3433 3.23779 52.6927 3.23779 53.1245V87.495C3.23779 90.5099 5.69111 92.963 8.70596 92.963H91.5077C94.5226 92.963 96.9757 90.5097 96.9757 87.495V53.1245C96.9757 52.6927 97.3251 52.3433 97.7567 52.3433C98.1886 52.3433 98.538 52.6927 98.538 53.1245V87.495C98.538 91.3718 95.3843 94.5255 91.5077 94.5255Z" fill="white"/>
<path d="M88.7824 91.4009H85.658C85.2277 91.4009 84.8768 91.0515 84.8768 90.6196C84.8768 90.1878 85.2277 89.8386 85.658 89.8386H88.7824C89.2158 89.8386 89.5637 90.1878 89.5637 90.6196C89.5637 91.0515 89.2158 91.4009 88.7824 91.4009ZM82.5334 91.4009H79.4088C78.9785 91.4009 78.6275 91.0515 78.6275 90.6196C78.6275 90.1878 78.9785 89.8386 79.4088 89.8386H82.5334C82.9666 89.8386 83.3145 90.1878 83.3145 90.6196C83.3145 91.0515 82.9666 91.4009 82.5334 91.4009ZM76.2842 91.4009H73.1596C72.7293 91.4009 72.3783 91.0515 72.3783 90.6196C72.3783 90.1878 72.7293 89.8386 73.1596 89.8386H76.2842C76.7176 89.8386 77.0652 90.1878 77.0652 90.6196C77.0652 91.0515 76.7176 91.4009 76.2842 91.4009ZM70.035 91.4009H66.9104C66.4801 91.4009 66.1293 91.0515 66.1293 90.6196C66.1293 90.1878 66.4801 89.8386 66.9104 89.8386H70.035C70.4684 89.8386 70.8162 90.1878 70.8162 90.6196C70.8162 91.0515 70.4684 91.4009 70.035 91.4009ZM63.7857 91.4009H60.6611C60.2311 91.4009 59.8801 91.0515 59.8801 90.6196C59.8801 90.1878 60.2311 89.8386 60.6611 89.8386H63.7857C64.2191 89.8386 64.567 90.1878 64.567 90.6196C64.567 91.0515 64.2191 91.4009 63.7857 91.4009ZM57.5365 91.4009H54.4121C53.9818 91.4009 53.6309 91.0515 53.6309 90.6196C53.6309 90.1878 53.9818 89.8386 54.4121 89.8386H57.5365C57.9699 89.8386 58.3178 90.1878 58.3178 90.6196C58.3178 91.0515 57.9699 91.4009 57.5365 91.4009ZM51.2883 91.4009H48.1637C47.7318 91.4009 47.3824 91.0515 47.3824 90.6196C47.3824 90.1878 47.7318 89.8386 48.1637 89.8386H51.2883C51.7207 89.8386 52.0686 90.1878 52.0686 90.6196C52.0686 91.0515 51.7207 91.4009 51.2883 91.4009ZM45.0391 91.4009H41.9145C41.4828 91.4009 41.1334 91.0515 41.1334 90.6196C41.1334 90.1878 41.4828 89.8386 41.9145 89.8386H45.0391C45.4709 89.8386 45.8203 90.1878 45.8203 90.6196C45.8203 91.0515 45.4709 91.4009 45.0391 91.4009ZM38.7896 91.4009H35.665C35.2334 91.4009 34.8838 91.0515 34.8838 90.6196C34.8838 90.1878 35.2332 89.8386 35.665 89.8386H38.7896C39.2215 89.8386 39.5709 90.1878 39.5709 90.6196C39.5709 91.0515 39.2215 91.4009 38.7896 91.4009ZM32.5406 91.4009H29.416C28.9842 91.4009 28.6348 91.0515 28.6348 90.6196C28.6348 90.1878 28.9842 89.8386 29.416 89.8386H32.5406C32.9723 89.8386 33.3219 90.1878 33.3219 90.6196C33.3219 91.0515 32.9723 91.4009 32.5406 91.4009ZM26.2914 91.4009H23.1668C22.735 91.4009 22.3855 91.0515 22.3855 90.6196C22.3855 90.1878 22.735 89.8386 23.1668 89.8386H26.2914C26.723 89.8386 27.0725 90.1878 27.0725 90.6196C27.0725 91.0515 26.7232 91.4009 26.2914 91.4009ZM20.0422 91.4009H16.9176C16.4859 91.4009 16.1365 91.0515 16.1365 90.6196C16.1365 90.1878 16.4859 89.8386 16.9176 89.8386H20.0422C20.474 89.8386 20.8234 90.1878 20.8234 90.6196C20.8234 91.0515 20.474 91.4009 20.0422 91.4009ZM13.793 91.4009H10.6686C10.2369 91.4009 9.8873 91.0515 9.8873 90.6196C9.8873 90.1878 10.2367 89.8386 10.6686 89.8386H13.7932C14.225 89.8386 14.5744 90.1878 14.5744 90.6196C14.5744 91.0515 14.2248 91.4009 13.793 91.4009ZM91.8506 90.995C91.6998 90.9952 91.5523 90.9517 91.4258 90.8696C91.2994 90.7875 91.1995 90.6705 91.1383 90.5327C91.0962 90.4392 91.0729 90.3382 91.0698 90.2357C91.0668 90.1331 91.0839 90.031 91.1203 89.935C91.1568 89.8391 91.2117 89.7513 91.2821 89.6767C91.3525 89.602 91.4369 89.5419 91.5305 89.4999C92.3296 89.139 92.9867 88.5237 93.3992 87.7499C93.6006 87.3669 94.0736 87.2249 94.4551 87.4249C94.5458 87.4731 94.6261 87.5387 94.6914 87.6179C94.7567 87.6971 94.8058 87.7884 94.8358 87.8866C94.8658 87.9848 94.8762 88.088 94.8663 88.1902C94.8565 88.2924 94.8266 88.3917 94.7783 88.4823C94.2039 89.5635 93.2861 90.4228 92.1695 90.9249C92.0694 90.9708 91.9607 90.9947 91.8506 90.995ZM7.69727 90.6288C7.54452 90.6283 7.39525 90.5833 7.26777 90.4991C6.2452 89.8234 5.47651 88.8266 5.08281 87.6659C5.05012 87.5687 5.03692 87.466 5.04398 87.3636C5.05103 87.2613 5.07818 87.1614 5.1239 87.0695C5.16961 86.9777 5.23299 86.8958 5.31039 86.8285C5.3878 86.7612 5.47771 86.7098 5.575 86.6772C5.98398 86.5429 6.42715 86.7612 6.56426 87.1685C6.84121 87.9925 7.39668 88.7126 8.12813 89.1946C8.30106 89.309 8.42156 89.4872 8.4632 89.6903C8.50483 89.8934 8.46419 90.1047 8.3502 90.2778C8.27868 90.3856 8.18166 90.474 8.06776 90.5352C7.95385 90.5965 7.82659 90.6286 7.69727 90.6288ZM94.6322 85.8624C94.2004 85.8624 93.851 85.5116 93.851 85.0813V81.9567C93.851 81.5233 94.2004 81.1755 94.6322 81.1755C94.7349 81.1753 94.8365 81.1954 94.9314 81.2346C95.0262 81.2738 95.1124 81.3313 95.185 81.4039C95.2576 81.4765 95.3151 81.5627 95.3543 81.6576C95.3934 81.7524 95.4135 81.8541 95.4133 81.9567V85.0813C95.4131 85.2884 95.3308 85.487 95.1843 85.6335C95.0379 85.7799 94.8393 85.8622 94.6322 85.8624ZM5.58105 85.1013C5.14922 85.1013 4.7998 84.7519 4.7998 84.32V81.1954C4.7998 80.7638 5.14922 80.4144 5.58105 80.4144C6.01289 80.4144 6.3623 80.7638 6.3623 81.1954V84.32C6.3623 84.7519 6.01289 85.1013 5.58105 85.1013ZM94.6322 79.6134C94.2004 79.6134 93.851 79.2624 93.851 78.8321V75.7075C93.8508 75.6049 93.8709 75.5032 93.9101 75.4084C93.9493 75.3135 94.0068 75.2273 94.0794 75.1548C94.152 75.0822 94.2382 75.0247 94.3331 74.9855C94.4279 74.9463 94.5296 74.9263 94.6322 74.9265C95.0639 74.9265 95.4133 75.2741 95.4133 75.7075V78.8321C95.4133 79.2624 95.0639 79.6134 94.6322 79.6134ZM5.58105 78.852C5.14922 78.852 4.7998 78.5026 4.7998 78.071V74.9464C4.7998 74.5146 5.14922 74.1651 5.58105 74.1651C6.01289 74.1651 6.3623 74.5146 6.3623 74.9464V78.071C6.36236 78.1736 6.34218 78.2752 6.30294 78.37C6.26369 78.4648 6.20614 78.5509 6.13358 78.6235C6.06103 78.696 5.97488 78.7535 5.88007 78.7928C5.78526 78.832 5.68366 78.8521 5.58105 78.852ZM94.6322 73.3642C94.2004 73.3642 93.851 73.0132 93.851 72.5829V69.4583C93.8508 69.3557 93.8709 69.254 93.9101 69.1591C93.9493 69.0643 94.0068 68.9781 94.0794 68.9055C94.152 68.833 94.2382 68.7755 94.3331 68.7363C94.4279 68.6971 94.5296 68.677 94.6322 68.6772C94.7348 68.6771 94.8365 68.6971 94.9313 68.7363C95.0262 68.7755 95.1124 68.833 95.1849 68.9056C95.2575 68.9782 95.315 69.0643 95.3542 69.1592C95.3934 69.254 95.4135 69.3557 95.4133 69.4583V72.5829C95.4133 73.0132 95.0639 73.3642 94.6322 73.3642ZM5.58105 72.6028C5.14922 72.6028 4.7998 72.2534 4.7998 71.8218V68.6972C4.7998 68.2653 5.14922 67.9161 5.58105 67.9161C6.01289 67.9161 6.3623 68.2653 6.3623 68.6972V71.8218C6.36236 71.9244 6.34218 72.026 6.30294 72.1208C6.26369 72.2156 6.20614 72.3017 6.13358 72.3743C6.06103 72.4468 5.97488 72.5043 5.88007 72.5435C5.78526 72.5828 5.68366 72.6029 5.58105 72.6028ZM94.6322 67.1149C94.2004 67.1149 93.851 66.764 93.851 66.3339V63.2093C93.851 62.7759 94.2004 62.428 94.6322 62.428C94.7349 62.4278 94.8365 62.4479 94.9314 62.4871C95.0262 62.5263 95.1124 62.5839 95.185 62.6565C95.2576 62.729 95.3151 62.8152 95.3543 62.9101C95.3934 63.005 95.4135 63.1066 95.4133 63.2093V66.3339C95.4131 66.541 95.3308 66.7396 95.1843 66.886C95.0379 67.0324 94.8393 67.1148 94.6322 67.1149ZM5.58105 66.3536C5.14922 66.3536 4.7998 66.0042 4.7998 65.5724V62.4478C4.7998 62.0161 5.14922 61.6667 5.58105 61.6667C6.01289 61.6667 6.3623 62.0161 6.3623 62.4478V65.5724C6.3623 66.0042 6.01289 66.3536 5.58105 66.3536ZM94.6322 60.8657C94.2004 60.8657 93.851 60.5147 93.851 60.0847V56.9601C93.8508 56.8574 93.8709 56.7558 93.9101 56.6609C93.9493 56.5661 94.0068 56.4799 94.0794 56.4073C94.152 56.3347 94.2382 56.2772 94.3331 56.238C94.4279 56.1989 94.5296 56.1788 94.6322 56.179C95.0639 56.179 95.4133 56.5267 95.4133 56.9601V60.0847C95.4131 60.2918 95.3308 60.4903 95.1843 60.6368C95.0379 60.7832 94.8393 60.8656 94.6322 60.8657ZM5.58105 60.1044C5.14922 60.1044 4.7998 59.755 4.7998 59.3233V56.1987C4.7998 55.7669 5.14922 55.4175 5.58105 55.4175C6.01289 55.4175 6.3623 55.7669 6.3623 56.1987V59.3233C6.36236 59.4259 6.34218 59.5275 6.30294 59.6223C6.26369 59.7171 6.20614 59.8033 6.13358 59.8758C6.06103 59.9484 5.97488 60.0059 5.88007 60.0451C5.78526 60.0843 5.68366 60.1045 5.58105 60.1044ZM55.4678 69.5284H44.5316C44.1 69.5284 43.7504 69.1792 43.7504 68.7474V53.1245C43.7504 52.6927 44.0998 52.3433 44.5316 52.3433H55.4678C55.8996 52.3433 56.249 52.6927 56.249 53.1245V68.7474C56.2491 68.85 56.2289 68.9516 56.1897 69.0464C56.1504 69.1412 56.0929 69.2273 56.0203 69.2998C55.9477 69.3724 55.8616 69.4299 55.7668 69.4691C55.672 69.5083 55.5704 69.5285 55.4678 69.5284ZM45.3129 67.9663H54.6865V53.9056H45.3129V67.9663Z" fill="white"/>
<path d="M49.9998 64.8417C48.7076 64.8417 47.6562 63.7903 47.6562 62.4981C47.6562 61.206 48.7076 60.1548 49.9998 60.1548C51.292 60.1548 52.3432 61.206 52.3432 62.4981C52.3432 63.7903 51.292 64.8417 49.9998 64.8417ZM49.9998 61.7171C49.5687 61.7171 49.2186 62.0681 49.2186 62.4981C49.2186 62.9284 49.5687 63.2794 49.9998 63.2794C50.4309 63.2794 50.7809 62.9284 50.7809 62.4981C50.7806 62.2911 50.6982 62.0926 50.5518 61.9461C50.4054 61.7997 50.2069 61.7173 49.9998 61.7171Z" fill="white"/>
<path d="M49.9999 66.4038C49.5681 66.4038 49.2187 66.0546 49.2187 65.6228V64.0604C49.2187 63.6286 49.5681 63.2794 49.9999 63.2794C50.4317 63.2794 50.781 63.6286 50.781 64.0604V65.6228C50.781 65.7253 50.7609 65.8269 50.7217 65.9217C50.6824 66.0165 50.6249 66.1027 50.5524 66.1752C50.4798 66.2478 50.3937 66.3053 50.2989 66.3445C50.2041 66.3837 50.1025 66.4039 49.9999 66.4038ZM55.4679 58.6185H44.5317C44.1001 58.6185 43.7505 58.269 43.7505 57.8372C43.7504 57.7346 43.7706 57.633 43.8099 57.5382C43.8491 57.4434 43.9066 57.3573 43.9792 57.2847C44.0518 57.2122 44.1379 57.1547 44.2327 57.1154C44.3275 57.0762 44.4291 57.0561 44.5317 57.0562H55.4679C55.8997 57.0562 56.2491 57.4056 56.2491 57.8372C56.2491 58.269 55.8997 58.6185 55.4679 58.6185Z" fill="white"/>
<path d="M39.845 58.3196C39.829 58.3196 39.813 58.318 39.797 58.318C13.3173 56.7221 0.900293 49.4172 0.384668 49.1067C0.269215 49.0373 0.173688 48.9393 0.107389 48.8221C0.0410908 48.7048 0.00628023 48.5724 0.00634775 48.4377V26.5657C0.00634775 21.8276 3.86084 17.9729 8.59893 17.9729H91.4007C96.1394 17.9729 99.9933 21.8276 99.9933 26.5657V48.4377C99.9933 48.5724 99.9585 48.7048 99.8921 48.8221C99.8258 48.9393 99.7302 49.0374 99.6148 49.1067C99.0989 49.4172 86.6831 56.7221 60.2019 58.318C59.7913 58.3364 59.4007 58.0159 59.3749 57.5856C59.3625 57.3789 59.4327 57.1757 59.57 57.0206C59.7074 56.8656 59.9006 56.7715 60.1073 56.7588C83.6593 55.3399 96.1575 49.1991 98.431 47.9786V26.5657C98.431 22.6887 95.2774 19.5352 91.4007 19.5352H8.59893C4.72217 19.5352 1.56865 22.6887 1.56865 26.5657V47.9786C3.84111 49.1991 16.3403 55.3399 39.8913 56.7588C39.9951 56.7599 40.0977 56.7817 40.193 56.8229C40.2882 56.864 40.3744 56.9238 40.4463 56.9987C40.5182 57.0735 40.5745 57.162 40.6118 57.2588C40.6492 57.3557 40.6668 57.459 40.6637 57.5628C40.6607 57.6666 40.6369 57.7687 40.5939 57.8632C40.5509 57.9576 40.4895 58.0426 40.4132 58.1131C40.337 58.1835 40.2475 58.2381 40.1499 58.2735C40.0524 58.309 39.9487 58.3247 39.845 58.3196Z" fill="white"/>
<path d="M52.3432 54.6867H47.6562C47.5537 54.6867 47.4521 54.6666 47.3573 54.6273C47.2625 54.5881 47.1764 54.5306 47.1038 54.458C47.0313 54.3855 46.9738 54.2994 46.9345 54.2046C46.8953 54.1098 46.8751 54.0082 46.8752 53.9056C46.8751 53.803 46.8953 53.7014 46.9345 53.6067C46.9738 53.5119 47.0313 53.4258 47.1038 53.3532C47.1764 53.2807 47.2625 53.2231 47.3573 53.1839C47.4521 53.1447 47.5537 53.1245 47.6562 53.1246H52.3432C52.775 53.1246 53.1244 53.474 53.1244 53.9056C53.1245 54.0082 53.1043 54.1098 53.065 54.2046C53.0258 54.2994 52.9682 54.3855 52.8957 54.4581C52.8231 54.5306 52.737 54.5882 52.6422 54.6274C52.5474 54.6666 52.4458 54.6867 52.3432 54.6867ZM55.4678 51.5623C55.0359 51.5623 54.6865 51.2128 54.6865 50.781C54.6865 48.1966 52.5842 46.0941 49.9998 46.0941C47.4152 46.0941 45.3129 48.1964 45.3129 50.781C45.3129 51.2128 44.9635 51.5623 44.5316 51.5623C44.0998 51.5623 43.7504 51.2128 43.7504 50.781C43.7504 47.3353 46.5539 44.5318 49.9996 44.5318C53.4447 44.5318 56.2488 47.3353 56.2488 50.781C56.2489 50.8836 56.2288 50.9852 56.1896 51.0801C56.1504 51.1749 56.0928 51.261 56.0203 51.3336C55.9477 51.4062 55.8616 51.4637 55.7668 51.5029C55.672 51.5422 55.5704 51.5623 55.4678 51.5623ZM3.91191 46.0941C3.80931 46.0941 3.70771 46.074 3.61291 46.0347C3.51811 45.9955 3.43198 45.9379 3.35944 45.8654C3.2869 45.7928 3.22938 45.7067 3.19015 45.6119C3.15093 45.5171 3.13078 45.4154 3.13086 45.3128V43.7505C3.13086 43.3187 3.48027 42.9693 3.91191 42.9693C4.34375 42.9693 4.69316 43.3187 4.69316 43.7505V45.3128C4.69316 45.7449 4.34375 46.0941 3.91191 46.0941ZM3.91191 41.0945C3.80931 41.0945 3.70771 41.0744 3.61291 41.0351C3.51811 40.9959 3.43198 40.9383 3.35944 40.8658C3.2869 40.7932 3.22938 40.7071 3.19015 40.6123C3.15093 40.5174 3.13078 40.4158 3.13086 40.3132V36.8759C3.13086 36.4441 3.48027 36.0947 3.91191 36.0947C4.34375 36.0947 4.69316 36.4441 4.69316 36.8759V40.3132C4.69316 40.7451 4.34375 41.0945 3.91191 41.0945ZM3.91191 34.2205C3.80931 34.2205 3.70771 34.2003 3.61291 34.1611C3.51811 34.1218 3.43198 34.0643 3.35944 33.9917C3.2869 33.9192 3.22938 33.833 3.19015 33.7382C3.15093 33.6434 3.13078 33.5418 3.13086 33.4392V30.0017C3.13081 29.8991 3.15098 29.7975 3.19021 29.7028C3.22944 29.608 3.28697 29.5218 3.35951 29.4493C3.43205 29.3768 3.51817 29.3192 3.61296 29.28C3.70774 29.2408 3.80933 29.2206 3.91191 29.2207C4.34375 29.2207 4.69316 29.5701 4.69316 30.0017V33.4392C4.69316 33.8712 4.34375 34.2205 3.91191 34.2205ZM3.91191 27.3466C3.80933 27.3467 3.70774 27.3265 3.61296 27.2873C3.51817 27.248 3.43205 27.1905 3.35951 27.118C3.28697 27.0454 3.22944 26.9593 3.19021 26.8645C3.15098 26.7697 3.13081 26.6682 3.13086 26.5656V25.0033C3.13086 24.5714 3.48027 24.222 3.91191 24.222C4.34375 24.222 4.69316 24.5714 4.69316 25.0033V26.5656C4.69322 26.6682 4.67304 26.7698 4.6338 26.8646C4.59455 26.9594 4.537 27.0455 4.46444 27.1181C4.39189 27.1906 4.30574 27.2481 4.21093 27.2873C4.11612 27.3266 4.01451 27.3467 3.91191 27.3466ZM96.0875 46.0941C95.9849 46.0941 95.8833 46.074 95.7885 46.0347C95.6937 45.9955 95.6076 45.9379 95.535 45.8654C95.4625 45.7928 95.4049 45.7067 95.3657 45.6119C95.3265 45.5171 95.3064 45.4154 95.3064 45.3128V42.1882C95.3064 41.7564 95.6558 41.407 96.0875 41.407C96.5193 41.407 96.8687 41.7564 96.8687 42.1882V45.3128C96.8687 45.7449 96.5193 46.0941 96.0875 46.0941ZM96.0875 39.8451C95.9849 39.8451 95.8833 39.8249 95.7885 39.7857C95.6937 39.7465 95.6076 39.6889 95.535 39.6163C95.4625 39.5438 95.4049 39.4576 95.3657 39.3628C95.3265 39.268 95.3064 39.1664 95.3064 39.0638V35.9392C95.3064 35.8366 95.3265 35.735 95.3658 35.6403C95.405 35.5455 95.4625 35.4593 95.5351 35.3868C95.6076 35.3143 95.6937 35.2567 95.7885 35.2175C95.8833 35.1783 95.9849 35.1581 96.0875 35.1582C96.5193 35.1582 96.8687 35.5076 96.8687 35.9392V39.0638C96.8687 39.4957 96.5193 39.8451 96.0875 39.8451ZM96.0875 33.5958C95.9849 33.5959 95.8833 33.5757 95.7885 33.5365C95.6937 33.4972 95.6076 33.4397 95.535 33.3671C95.4625 33.2946 95.4049 33.2084 95.3657 33.1136C95.3265 33.0188 95.3064 32.9172 95.3064 32.8146V29.69C95.3064 29.2583 95.6558 28.9087 96.0875 28.9087C96.5193 28.9087 96.8687 29.2582 96.8687 29.69V32.8146C96.8687 33.2464 96.5193 33.5958 96.0875 33.5958ZM96.0875 27.3466C95.9849 27.3467 95.8833 27.3265 95.7885 27.2873C95.6937 27.248 95.6076 27.1905 95.5351 27.118C95.4625 27.0454 95.405 26.9593 95.3658 26.8645C95.3265 26.7697 95.3064 26.6682 95.3064 26.5656V25.0033C95.3064 24.5714 95.6558 24.222 96.0875 24.222C96.5193 24.222 96.8687 24.5714 96.8687 25.0033V26.5656C96.8688 26.6682 96.8486 26.7698 96.8094 26.8646C96.7701 26.9594 96.7126 27.0455 96.64 27.1181C96.5675 27.1906 96.4813 27.2481 96.3865 27.2873C96.2917 27.3266 96.1901 27.3467 96.0875 27.3466ZM75.7775 24.222H24.2219C24.1193 24.2221 24.0177 24.2019 23.9229 24.1627C23.8281 24.1234 23.742 24.0659 23.6695 23.9934C23.5969 23.9208 23.5394 23.8347 23.5002 23.7399C23.4609 23.6451 23.4408 23.5436 23.4408 23.441C23.4408 23.0091 23.7902 22.6597 24.2219 22.6597H75.7777C75.9849 22.6597 76.1836 22.7421 76.33 22.8886C76.4765 23.0351 76.5588 23.2338 76.5588 23.441C76.5587 23.6481 76.4764 23.8468 76.3299 23.9933C76.1834 24.1398 75.9847 24.222 75.7775 24.222ZM64.8416 13.2859H35.158C34.7262 13.2859 34.3768 12.9365 34.3768 12.5046V9.38003C34.3768 9.17651 34.456 8.9812 34.598 8.8355C34.7316 8.69819 38.0035 5.47437 49.9998 5.47437C61.9961 5.47437 65.2687 8.69819 65.4014 8.8355C65.5433 8.9812 65.6227 9.17661 65.6226 9.38003V12.5046C65.6226 12.9365 65.2732 13.2859 64.8416 13.2859ZM35.9391 11.7236H64.0603V9.75093C63.1877 9.1269 59.5475 7.03687 49.9998 7.03687C40.4695 7.03687 36.8256 9.11948 35.9391 9.75249V11.7236Z" fill="white"/>
<path d="M35.1582 16.4105C34.7264 16.4105 34.377 16.0611 34.377 15.6293V12.5047C34.3769 12.4021 34.3971 12.3005 34.4363 12.2057C34.4756 12.1109 34.5331 12.0248 34.6057 11.9522C34.6782 11.8797 34.7644 11.8221 34.8592 11.7829C34.954 11.7437 35.0556 11.7236 35.1582 11.7236C35.2608 11.7236 35.3624 11.7437 35.4572 11.783C35.5519 11.8222 35.6381 11.8797 35.7106 11.9523C35.7831 12.0248 35.8407 12.1109 35.8799 12.2057C35.9191 12.3005 35.9393 12.4021 35.9393 12.5047V15.6293C35.9393 16.0611 35.5898 16.4105 35.1582 16.4105ZM38.2828 16.4105C37.851 16.4105 37.5016 16.0611 37.5016 15.6293V12.5047C37.5015 12.4021 37.5217 12.3005 37.5609 12.2057C37.6002 12.1109 37.6577 12.0248 37.7303 11.9522C37.8028 11.8797 37.889 11.8221 37.9838 11.7829C38.0786 11.7437 38.1802 11.7236 38.2828 11.7236C38.3854 11.7236 38.487 11.7437 38.5818 11.783C38.6766 11.8222 38.7627 11.8797 38.8352 11.9523C38.9078 12.0248 38.9653 12.1109 39.0045 12.2057C39.0438 12.3005 39.0639 12.4021 39.0639 12.5047V15.6293C39.0639 16.0611 38.7145 16.4105 38.2828 16.4105Z" fill="white"/>
<path d="M61.7173 16.4105C61.2854 16.4105 60.936 16.0611 60.936 15.6293V12.5047C60.936 12.073 61.2854 11.7236 61.7173 11.7236C62.1491 11.7236 62.4983 12.073 62.4983 12.5047V15.6293C62.4983 16.0611 62.1491 16.4105 61.7173 16.4105Z" fill="white"/>
<path d="M64.8418 16.4105C64.41 16.4105 64.0605 16.0611 64.0605 15.6293V12.5047C64.0605 12.4021 64.0807 12.3005 64.1199 12.2057C64.1592 12.1109 64.2167 12.0248 64.2893 11.9522C64.3618 11.8797 64.448 11.8221 64.5428 11.7829C64.6376 11.7437 64.7392 11.7236 64.8418 11.7236C64.9444 11.7236 65.046 11.7437 65.1408 11.783C65.2355 11.8222 65.3217 11.8797 65.3942 11.9523C65.4667 12.0248 65.5243 12.1109 65.5635 12.2057C65.6027 12.3005 65.6229 12.4021 65.6229 12.5047V15.6293C65.6229 16.0611 65.2734 16.4105 64.8418 16.4105Z" fill="white"/>
<path d="M53.9056 88.2764C53.803 88.2765 53.7014 88.2563 53.6066 88.217C53.5118 88.1778 53.4256 88.1203 53.3531 88.0477C53.2806 87.9751 53.223 87.889 53.1838 87.7942C53.1446 87.6994 53.1244 87.5978 53.1245 87.4952V84.3706C53.1245 84.268 53.1446 84.1664 53.1839 84.0716C53.2231 83.9768 53.2806 83.8907 53.3532 83.8182C53.4257 83.7456 53.5118 83.6881 53.6066 83.6489C53.7014 83.6096 53.803 83.5895 53.9056 83.5895C54.0082 83.5895 54.1097 83.6096 54.2045 83.6489C54.2993 83.6881 54.3854 83.7456 54.458 83.8182C54.5305 83.8907 54.588 83.9768 54.6273 84.0716C54.6665 84.1664 54.6867 84.268 54.6866 84.3706V87.4952C54.6866 87.927 54.3374 88.2764 53.9056 88.2764ZM53.9056 82.0272C53.803 82.0273 53.7014 82.0071 53.6066 81.9678C53.5118 81.9286 53.4256 81.871 53.3531 81.7985C53.2806 81.7259 53.223 81.6398 53.1838 81.545C53.1446 81.4502 53.1244 81.3486 53.1245 81.246V78.1215C53.1245 77.6897 53.4739 77.3403 53.9056 77.3403C54.0082 77.3402 54.1098 77.3604 54.2046 77.3997C54.2994 77.4389 54.3855 77.4964 54.458 77.569C54.5306 77.6416 54.5881 77.7277 54.6273 77.8225C54.6665 77.9173 54.6867 78.0189 54.6866 78.1215V81.246C54.6866 81.6776 54.3374 82.0272 53.9056 82.0272ZM53.9056 75.7778C53.803 75.7778 53.7014 75.7577 53.6066 75.7184C53.5118 75.6792 53.4257 75.6217 53.3532 75.5491C53.2806 75.4766 53.2231 75.3905 53.1839 75.2957C53.1446 75.2009 53.1245 75.0993 53.1245 74.9967V71.8721C53.1245 71.7695 53.1446 71.668 53.1839 71.5732C53.2231 71.4784 53.2806 71.3923 53.3532 71.3197C53.4257 71.2472 53.5118 71.1896 53.6066 71.1504C53.7014 71.1112 53.803 71.091 53.9056 71.0911C54.0082 71.091 54.1098 71.1111 54.2046 71.1504C54.2994 71.1896 54.3855 71.2471 54.458 71.3197C54.5306 71.3922 54.5881 71.4783 54.6273 71.5731C54.6665 71.6679 54.6867 71.7695 54.6866 71.8721V74.9967C54.6867 75.0993 54.6665 75.2009 54.6273 75.2957C54.588 75.3905 54.5305 75.4766 54.458 75.5491C54.3854 75.6217 54.2993 75.6792 54.2045 75.7184C54.1097 75.7577 54.0082 75.7778 53.9056 75.7778Z" fill="white"/>
<path d="M46.0942 88.2764C45.6626 88.2764 45.313 87.927 45.313 87.4952V84.3706C45.313 83.9389 45.6624 83.5895 46.0942 83.5895C46.5261 83.5895 46.8755 83.9389 46.8755 84.3706V87.4952C46.8755 87.927 46.5261 88.2764 46.0942 88.2764ZM46.0942 82.0272C45.6626 82.0272 45.313 81.6778 45.313 81.246V78.1215C45.313 77.6897 45.6624 77.3403 46.0942 77.3403C46.5261 77.3403 46.8755 77.6897 46.8755 78.1215V81.246C46.8755 81.6776 46.5261 82.0272 46.0942 82.0272ZM46.0942 75.7778C45.6626 75.7778 45.313 75.4284 45.313 74.9967V71.8721C45.313 71.4403 45.6624 71.0911 46.0942 71.0911C46.5261 71.0911 46.8755 71.4403 46.8755 71.8721V74.9967C46.8755 75.0993 46.8554 75.2009 46.8161 75.2957C46.7769 75.3905 46.7193 75.4767 46.6468 75.5492C46.5742 75.6217 46.4881 75.6793 46.3933 75.7185C46.2984 75.7577 46.1968 75.7779 46.0942 75.7778Z" fill="white"/>
<path d="M50 88.2765C49.5682 88.2765 49.2188 87.9271 49.2188 87.4952V71.8724C49.2188 71.4405 49.5682 71.0913 50 71.0913C50.4318 71.0913 50.7811 71.4405 50.7811 71.8724V87.4952C50.7811 87.9271 50.4318 88.2765 50 88.2765Z" fill="white"/>
</svg>
