<svg width="100" height="100" viewBox="0 0 100 100" fill="none" xmlns="http://www.w3.org/2000/svg">
<path d="M62.5 78.9062H37.5C36.2062 78.9062 35.1562 79.9562 35.1562 81.2499V87.4999C35.1562 88.1468 35.4187 88.7343 35.8438 89.1593L42.0938 95.4093C42.5156 95.8311 43.1 96.0937 43.7469 96.0937C43.75 96.0937 43.75 96.0937 43.7531 96.0937H56.2531C56.2531 96.0937 56.2563 96.0937 56.2594 96.0937C56.9063 96.0937 57.4906 95.8311 57.9156 95.4093L64.1656 89.1593C64.5875 88.7343 64.85 88.1499 64.85 87.503C64.85 87.4999 64.85 87.4999 64.85 87.4968V81.2468C64.85 79.953 63.8 78.903 62.5063 78.903L62.5 78.9062ZM60.1562 86.528L55.2781 91.4062H44.7188L39.8406 86.528V83.5937H60.1531L60.1562 86.528ZM77.9719 20.6937C72.2594 10.9718 62.0875 4.40303 50.3406 3.79365L50.2563 3.79053H50.0469C38.3 4.30615 28.1437 10.6718 22.3687 20.0311L22.2844 20.178C18.7844 25.2124 16.6938 31.4562 16.6938 38.1874C16.6938 38.2062 16.6938 38.2218 16.6938 38.2405V38.2374C17.2406 45.1343 19.475 51.4155 22.9813 56.7905L22.8875 56.6374C23.8844 58.353 24.9406 60.0436 26 61.7343C28.1437 64.8968 30.1906 68.5311 31.9375 72.3343L32.1344 72.8124C32.5 73.6655 33.3313 74.253 34.2969 74.253C34.3 74.253 34.3063 74.253 34.3094 74.253C34.6313 74.253 34.9375 74.1843 35.2156 74.0655L35.2 74.0718C36.0531 73.7093 36.6406 72.878 36.6406 71.9093C36.6406 71.5843 36.575 71.2749 36.4531 70.9905L36.4594 71.0061C34.4031 66.4624 32.2406 62.6062 29.7875 58.9593L29.9719 59.2499C28.9406 57.603 27.9125 55.9562 26.9375 54.2812C23.8688 49.7062 21.8625 44.1811 21.3844 38.2249L21.3781 38.1061C21.425 32.353 23.225 27.0312 26.2719 22.6374L26.2125 22.728C31.2219 14.5124 39.9344 8.9874 49.9719 8.47803L50.0438 8.4749H50.2188C60.3906 9.07178 69.1094 14.7655 73.9125 23.0218L73.9875 23.1624C76.8344 27.4468 78.5281 32.7093 78.5281 38.3655C78.5281 38.553 78.525 38.7405 78.5219 38.928V38.8999C77.825 44.9124 75.7625 50.3343 72.6531 54.9999L72.7375 54.8655C71.8344 56.3968 70.8875 57.9124 69.9406 59.4187C67.7406 62.6937 65.5938 66.4718 63.7344 70.4124L63.5063 70.9468C63.3844 71.2186 63.3156 71.5405 63.3156 71.8749C63.3156 73.1687 64.3656 74.2187 65.6594 74.2187C66.6125 74.2187 67.4344 73.6499 67.8 72.8311L67.8063 72.8155C69.7844 68.5843 71.8219 65.0093 74.1031 61.6124L73.9156 61.9093C74.8813 60.3655 75.85 58.8155 76.7781 57.2468C80.1844 52.1124 82.4812 45.9593 83.1844 39.3312L83.2 39.153C83.2094 38.8718 83.2156 38.5405 83.2156 38.2062C83.2156 31.6843 81.2562 25.6218 77.8969 20.5718L77.9688 20.6874L77.9719 20.6937ZM45.8875 18.4155C45.5063 17.5968 44.6906 17.0405 43.7469 17.0405C43.4 17.0405 43.0688 17.1155 42.7719 17.2499L42.7875 17.2437C35.55 21.4374 30.4094 28.5593 28.9625 36.9499L28.9375 37.1186C28.9187 37.2343 28.9062 37.3655 28.9062 37.4999C28.9062 38.6593 29.7469 39.6186 30.85 39.8124L30.8625 39.8155C30.9781 39.8343 31.1094 39.8468 31.2469 39.8468C31.25 39.8468 31.2531 39.8468 31.2531 39.8468C32.4094 39.8468 33.3688 39.0093 33.5594 37.9062L33.5625 37.8937C34.8031 30.9187 38.9187 25.0905 44.6125 21.5812L44.7156 21.5218C45.5344 21.1468 46.0969 20.3312 46.0969 19.3874C46.0969 19.0374 46.0187 18.7062 45.8844 18.4093L45.8906 18.4249L45.8875 18.4155ZM5.20312 8.34678L17.7031 14.5968C18.0094 14.753 18.3688 14.8437 18.75 14.8437C20.0438 14.8437 21.0938 13.7937 21.0938 12.4999C21.0938 11.5874 20.5719 10.7968 19.8094 10.4093L19.7969 10.403L7.29688 4.15303C6.99062 3.99678 6.63125 3.90615 6.25 3.90615C4.95625 3.90615 3.90625 4.95615 3.90625 6.2499C3.90625 7.1624 4.42813 7.95303 5.19063 8.34053L5.20312 8.34678ZM81.25 14.8437C81.6312 14.8437 81.9969 14.753 82.3156 14.5905L82.3031 14.5968L94.8031 8.34678C95.5781 7.95303 96.0969 7.1624 96.0969 6.2499C96.0969 4.95615 95.0469 3.90615 93.7531 3.90615C93.3719 3.90615 93.0094 3.99678 92.6906 4.15928L92.7031 4.15303L80.2031 10.403C79.4313 10.7968 78.9125 11.5874 78.9125 12.4968C78.9125 13.7905 79.9594 14.8405 81.2531 14.8405L81.25 14.8437ZM94.8 66.6562L82.3 60.4062C81.9969 60.253 81.6375 60.1624 81.2594 60.1624C79.9656 60.1624 78.9187 61.2124 78.9187 62.503C78.9187 63.4093 79.4344 64.1968 80.1875 64.5843L80.2 64.5905L92.7 70.8405C93.0031 70.9968 93.3625 71.0905 93.7437 71.0905C93.7469 71.0905 93.7469 71.0905 93.75 71.0905C95.0438 71.0905 96.0938 70.0405 96.0938 68.7468C96.0938 67.8374 95.575 67.0468 94.8156 66.6593L94.8031 66.653L94.8 66.6562ZM18.0375 60.3749L5.80937 66.0936C5.00312 66.4749 4.45625 67.2843 4.45625 68.2187C4.45625 69.5124 5.50625 70.5624 6.8 70.5624C7.15938 70.5624 7.5 70.4811 7.80625 70.3374L7.79063 70.3437L20.0188 64.6249C20.8313 64.2437 21.3813 63.4343 21.3813 62.4968C21.3813 61.203 20.3313 60.153 19.0375 60.153C18.6719 60.153 18.3281 60.2374 18.0219 60.3843L18.0375 60.3749ZM6.25 39.8436H9.375C10.6688 39.8436 11.7188 38.7936 11.7188 37.4999C11.7188 36.2061 10.6688 35.1561 9.375 35.1561H6.25C4.95625 35.1561 3.90625 36.2061 3.90625 37.4999C3.90625 38.7936 4.95625 39.8436 6.25 39.8436ZM93.75 35.1561H90.625C89.3312 35.1561 88.2812 36.2061 88.2812 37.4999C88.2812 38.7936 89.3312 39.8436 90.625 39.8436H93.75C95.0438 39.8436 96.0938 38.7936 96.0938 37.4999C96.0938 36.2061 95.0438 35.1561 93.75 35.1561Z" fill="white"/>
</svg>
