<svg width="100" height="100" viewBox="0 0 100 100" fill="none" xmlns="http://www.w3.org/2000/svg">
<path d="M58.3332 8.33326C65.9582 8.32961 73.3539 10.9402 79.287 15.7296C85.2199 20.519 89.3316 27.1978 90.9362 34.6518C92.5407 42.106 91.5412 49.8849 88.1043 56.6914C84.6676 63.4976 79.001 68.9201 72.0499 72.0541C69.8282 76.9662 66.448 81.2662 62.1995 84.5851C57.951 87.9039 52.9607 90.1428 47.6568 91.1097C42.353 92.0766 36.8937 91.7424 31.7474 90.1362C26.601 88.5297 21.921 85.6991 18.1088 81.887C14.2966 78.0747 11.466 73.3947 9.85966 68.2485C8.25333 63.102 7.91926 57.6428 8.8861 52.3389C9.85293 47.0351 12.0918 42.0449 15.4107 37.7964C18.7296 33.5478 23.0295 30.1676 27.9418 27.9458C30.5839 22.0995 34.8566 17.1395 40.2472 13.6608C45.638 10.1821 51.9176 8.33228 58.3332 8.33326ZM45.8332 37.4999H37.5001V41.6666C34.7922 41.6599 32.1882 42.708 30.2399 44.5889C28.2918 46.4695 27.1524 49.0349 27.0637 51.7414C26.9747 54.4478 27.9432 57.0824 29.7639 59.087C31.5845 61.0914 34.1143 62.308 36.8168 62.4791L37.5001 62.4999H45.8332L46.2082 62.5333C46.6887 62.6201 47.1232 62.873 47.4362 63.2478C47.7491 63.6224 47.9205 64.0951 47.9205 64.5833C47.9205 65.0714 47.7491 65.5441 47.4362 65.9187C47.1232 66.2935 46.6887 66.5464 46.2082 66.6333L45.8332 66.6666H29.1668V74.9999H37.5001V79.1666H45.8332V74.9999C48.5412 75.0066 51.1451 73.9585 53.0935 72.0776C55.0416 70.197 56.181 67.6316 56.2697 64.9251C56.3587 62.2187 55.3901 59.5841 53.5695 57.5797C51.7489 55.5751 49.2191 54.3585 46.5166 54.1874L45.8332 54.1666H37.5001L37.1251 54.1333C36.6447 54.0464 36.2101 53.7935 35.8972 53.4187C35.5843 53.0441 35.4128 52.5714 35.4128 52.0833C35.4128 51.5951 35.5843 51.1224 35.8972 50.7478C36.2101 50.373 36.6447 50.1201 37.1251 50.0333L37.5001 49.9999H54.1666V41.6666H45.8332V37.4999ZM58.3332 16.6666C54.8028 16.6625 51.3118 17.408 48.091 18.8539C44.8701 20.2998 41.993 22.4133 39.6501 25.0541C44.3595 24.7683 49.076 25.4853 53.4876 27.158C57.8991 28.8308 61.9055 31.421 65.2414 34.7574C68.5774 38.0937 71.1672 42.1003 72.8393 46.5122C74.5116 50.9239 75.228 55.6405 74.9416 60.3499C78.7301 56.9816 81.4051 52.5414 82.6118 47.6178C83.8185 42.6945 83.4999 37.5203 81.6985 32.782C79.897 28.0439 76.6976 23.9651 72.5247 21.087C68.3518 18.2088 63.4026 16.6672 58.3332 16.6666Z" fill="white"/>
</svg>
