<svg width="90" height="90" viewBox="0 0 90 90" fill="none" xmlns="http://www.w3.org/2000/svg">
<path d="M44.9998 83.4208C65.9805 83.4208 83.4208 66.0183 83.4208 44.9999C83.4208 24.0192 65.9429 6.5791 44.9622 6.5791C23.9436 6.5791 6.5791 24.0192 6.5791 44.9999C6.5791 66.0183 23.9814 83.4208 44.9998 83.4208ZM44.9998 77.0173C27.2208 77.0173 13.02 62.779 13.02 44.9999C13.02 27.2585 27.1832 12.9826 44.9622 12.9826C62.7034 12.9826 76.9794 27.2585 77.0173 44.9999C77.055 62.779 62.7412 77.0173 44.9998 77.0173ZM44.9622 26.9196C46.9586 26.9196 48.6535 25.2245 48.6535 23.2281C48.6535 21.1565 46.9586 19.4991 44.9622 19.4991C42.8904 19.4991 41.2707 21.1565 41.2707 23.2281C41.2707 25.2245 42.8904 26.9196 44.9622 26.9196ZM29.6315 33.549C31.7032 33.549 33.3605 31.854 33.3605 29.8576C33.3605 27.7858 31.7032 26.1662 29.6315 26.1662C27.6351 26.1662 25.94 27.7858 25.94 29.8576C25.94 31.854 27.6351 33.549 29.6315 33.549ZM60.2551 33.549C62.2515 33.549 63.9465 31.854 63.9465 29.8576C63.9465 27.7858 62.2515 26.1662 60.2551 26.1662C58.2211 26.1662 56.5637 27.7858 56.5637 29.8576C56.5637 31.854 58.2211 33.549 60.2551 33.549ZM44.9622 48.9173C47.0715 48.9173 48.8796 47.1469 48.8796 44.9999C48.8796 44.774 48.8418 44.5856 48.8042 44.3597L54.6426 37.0521C55.1699 36.3365 55.2829 35.4701 54.6426 34.9428C54.1529 34.4531 53.2489 34.3777 52.6086 34.9428L45.5647 41.1579C45.3765 41.1201 45.1504 41.0825 44.9622 41.0825C42.7774 41.0825 41.0448 42.853 41.0448 44.9999C41.0448 47.1469 42.7774 48.9173 44.9622 48.9173ZM23.2657 48.6912C25.3373 48.6912 26.957 47.0339 26.957 44.9999C26.957 42.9659 25.3373 41.3085 23.2657 41.3085C21.2693 41.3085 19.5743 42.9659 19.5743 44.9999C19.5743 47.0339 21.2693 48.6912 23.2657 48.6912ZM66.6208 48.6912C68.655 48.6912 70.3123 47.0339 70.3123 44.9999C70.3123 42.9659 68.655 41.3085 66.6208 41.3085C64.5868 41.3085 62.9295 42.9659 62.9295 44.9999C62.9295 47.0339 64.5868 48.6912 66.6208 48.6912ZM29.7069 63.8713C31.7785 63.8713 33.4359 62.1763 33.4359 60.1423C33.4359 58.1083 31.7785 56.4508 29.7069 56.4508C27.7105 56.4508 26.0154 58.1083 26.0154 60.1423C26.0154 62.1763 27.7105 63.8713 29.7069 63.8713ZM60.1797 63.8713C62.1761 63.8713 63.8712 62.1763 63.8712 60.1423C63.8712 58.1083 62.1761 56.4508 60.1797 56.4508C58.1457 56.4508 56.4883 58.1083 56.4883 60.1423C56.4883 62.1763 58.1457 63.8713 60.1797 63.8713Z" fill="white"/>
</svg>
