<svg width="445" height="313" viewBox="0 0 445 313" fill="none" xmlns="http://www.w3.org/2000/svg">
<g clip-path="url(#clip0_35_49)">
<path d="M227.271 312.337C240.655 312.337 251.505 301.508 251.505 288.149C251.505 274.791 240.655 263.961 227.271 263.961C213.886 263.961 203.036 274.791 203.036 288.149C203.036 301.508 213.886 312.337 227.271 312.337Z" fill="#9D1C21"/>
<path d="M372.047 310.978C385.604 306.914 400.018 302.676 410.77 293.015C420.379 284.382 426.865 271.199 422.885 258.252C418.912 245.332 407.014 236.717 394.73 232.432C387.763 230.002 380.474 228.653 373.187 227.594C365.266 226.443 357.311 225.499 349.359 224.592C317.16 220.916 284.84 218.671 252.399 217.855C236.391 217.453 220.387 217.463 204.377 217.695C190.079 217.902 175.021 217.897 161.757 211.831C151.443 207.115 142.081 198.534 139.207 187.258C135.889 174.242 142.009 160.986 150.787 151.559C155.414 146.59 160.821 142.408 166.4 138.562C172.452 134.39 178.715 130.514 185.113 126.895C197.716 119.772 210.891 113.71 224.503 108.771C231.217 106.334 238.032 104.232 244.906 102.292C250.71 100.655 256.532 99.0144 262.141 96.783C272.985 92.4693 283.299 85.1625 286.056 73.1835C288.67 61.8303 284.264 49.5055 276.539 41.0714C267.603 31.3138 254.128 27.0363 241.21 26.3443C226.707 25.5673 212.539 29.19 198.907 33.7877C184.369 38.6915 170.143 44.33 155.297 48.302C140.575 52.2369 125.569 55.0211 110.414 56.6292C102.995 57.4176 95.3515 58.308 87.8884 57.7043C81.6336 57.1984 75.4108 55.3625 70.8011 50.932C66.8486 47.133 64.494 41.9121 65.3035 36.4023C65.4505 35.4016 66.9737 35.827 66.8276 36.8217C65.8422 43.5286 70.41 49.7088 76.0387 52.8746C82.5441 56.5334 90.4602 56.5384 97.7029 56.1199C113.407 55.1733 129.005 52.9227 144.335 49.3918C159.398 45.9578 173.924 41.0489 188.433 35.8051C202.212 30.8247 216.3 25.9639 231.022 24.8852C243.795 23.9492 257.232 25.8066 268.36 32.4692C278.14 38.3247 285.332 48.0898 287.624 59.2955C289.863 70.2455 286.761 81.2669 278.457 88.9081C269.858 96.8198 258.068 100.202 247.081 103.318C233.145 107.269 219.508 111.887 206.308 117.884C192.928 123.946 180.096 131.146 167.955 139.405C156.235 147.399 144.668 157.457 140.962 171.717C139.235 178.36 139.554 185.406 142.443 191.68C145.012 197.259 149.243 201.952 154.171 205.571C165.93 214.208 180.751 215.981 194.955 216.157C210.908 216.355 226.862 215.818 242.82 216.079C275.343 216.612 307.799 218.588 340.188 222.007C348.304 222.864 356.41 223.812 364.505 224.85C371.787 225.784 379.093 226.712 386.252 228.37C398.982 231.319 411.368 236.989 419.28 247.761C422.792 252.43 424.967 257.964 425.574 263.77C426.128 269.83 424.642 275.9 421.897 281.291C415.821 293.222 404.441 300.811 392.356 305.797C385.883 308.467 379.168 310.49 372.467 312.499C371.491 312.791 371.074 311.269 372.047 310.978Z" fill="#F2F2F2"/>
<path d="M66.3241 49.1641C73.3071 49.1641 78.968 43.5141 78.968 36.5445C78.968 29.5748 73.3071 23.9248 66.3241 23.9248C59.341 23.9248 53.6801 29.5748 53.6801 36.5445C53.6801 43.5141 59.341 49.1641 66.3241 49.1641Z" fill="#F2F2F2"/>
<path d="M154.041 73.0889C161.024 73.0889 166.685 67.4389 166.685 60.4693C166.685 53.4996 161.024 47.8496 154.041 47.8496C147.058 47.8496 141.397 53.4996 141.397 60.4693C141.397 67.4389 147.058 73.0889 154.041 73.0889Z" fill="#F2F2F2"/>
<path d="M228.324 25.2393C235.307 25.2393 240.968 19.5893 240.968 12.6197C240.968 5.65002 235.307 0 228.324 0C221.341 0 215.68 5.65002 215.68 12.6197C215.68 19.5893 221.341 25.2393 228.324 25.2393Z" fill="#F2F2F2"/>
<path d="M274.685 78.8731C281.668 78.8731 287.329 73.2231 287.329 66.2535C287.329 59.2838 281.668 53.6338 274.685 53.6338C267.702 53.6338 262.041 59.2838 262.041 66.2535C262.041 73.2231 267.702 78.8731 274.685 78.8731Z" fill="#F2F2F2"/>
<path d="M211.992 140.92C218.976 140.92 224.636 135.269 224.636 128.3C224.636 121.33 218.976 115.68 211.992 115.68C205.009 115.68 199.349 121.33 199.349 128.3C199.349 135.269 205.009 140.92 211.992 140.92Z" fill="#F2F2F2"/>
<path d="M132.441 170.891C139.424 170.891 145.085 165.241 145.085 158.272C145.085 151.302 139.424 145.652 132.441 145.652C125.458 145.652 119.797 151.302 119.797 158.272C119.797 165.241 125.458 170.891 132.441 170.891Z" fill="#F2F2F2"/>
<path d="M216.734 217.689C223.717 217.689 229.378 212.039 229.378 205.069C229.378 198.1 223.717 192.45 216.734 192.45C209.751 192.45 204.09 198.1 204.09 205.069C204.09 212.039 209.751 217.689 216.734 217.689Z" fill="#F2F2F2"/>
<path d="M307.349 243.98C314.332 243.98 319.993 238.33 319.993 231.36C319.993 224.391 314.332 218.741 307.349 218.741C300.366 218.741 294.705 224.391 294.705 231.36C294.705 238.33 300.366 243.98 307.349 243.98Z" fill="#F2F2F2"/>
<path d="M413.241 238.196C420.224 238.196 425.885 232.546 425.885 225.577C425.885 218.607 420.224 212.957 413.241 212.957C406.258 212.957 400.597 218.607 400.597 225.577C400.597 232.546 406.258 238.196 413.241 238.196Z" fill="#F2F2F2"/>
<path d="M224.675 35.7577C186.8 36.0247 155.788 66.7441 155.25 104.543C155.245 104.892 155.243 107.346 155.243 110.556C155.244 115.262 157.117 119.775 160.45 123.102C163.784 126.43 168.306 128.3 173.021 128.3C175.358 128.3 177.672 127.839 179.831 126.946C181.99 126.052 183.951 124.743 185.603 123.093C187.255 121.442 188.565 119.483 189.458 117.327C190.351 115.172 190.809 112.861 190.807 110.529C190.805 108.345 190.804 106.834 190.804 106.741C190.803 100.9 192.325 95.1581 195.222 90.0817C198.118 85.0052 202.289 80.7687 207.323 77.7889C212.357 74.8091 218.082 73.1887 223.934 73.0869C229.786 72.9852 235.564 74.4057 240.7 77.2088C245.835 80.0118 250.151 84.1008 253.222 89.0735C256.294 94.0462 258.016 99.7313 258.219 105.57C258.421 111.408 257.097 117.198 254.378 122.371C251.658 127.544 247.636 131.921 242.708 135.072L242.714 135.08C242.714 135.08 217.411 151.338 209.697 173.641L209.703 173.643C208.347 178.212 207.66 182.952 207.663 187.718C207.663 189.677 207.778 206.816 208.001 220.727C208.079 225.527 210.045 230.104 213.474 233.471C216.902 236.837 221.52 238.723 226.33 238.722C228.746 238.722 231.139 238.245 233.371 237.318C235.602 236.392 237.628 235.034 239.331 233.323C241.035 231.612 242.383 229.582 243.297 227.349C244.212 225.116 244.675 222.725 244.66 220.313C244.583 207.573 244.541 192.738 244.541 191.661C244.541 177.966 257.777 164.321 268.65 155.423C281.171 145.177 290.181 131.213 293.8 115.461C294.6 112.218 295.042 108.898 295.116 105.558C295.116 96.3494 293.291 87.2313 289.744 78.7297C286.198 70.228 281.001 62.5108 274.453 56.0226C267.906 49.5344 260.136 44.4035 251.593 40.9255C243.049 37.4475 233.901 35.6912 224.675 35.7577Z" fill="#9D1C21"/>
<path d="M444.373 313H0.627289C0.461237 313 0.302154 312.934 0.184907 312.816C0.0676602 312.699 0.0018158 312.54 0.0018158 312.374C0.0018158 312.208 0.0676602 312.049 0.184907 311.932C0.302154 311.815 0.461237 311.749 0.627289 311.748H444.373C444.539 311.748 444.699 311.814 444.816 311.931C444.934 312.049 445 312.208 445 312.374C445 312.54 444.934 312.699 444.816 312.817C444.699 312.934 444.539 313 444.373 313Z" fill="#3F3D56"/>
<path d="M331.085 143.547C339.814 143.547 346.89 136.484 346.89 127.772C346.89 119.06 339.814 111.998 331.085 111.998C322.357 111.998 315.281 119.06 315.281 127.772C315.281 136.484 322.357 143.547 331.085 143.547Z" fill="#2F2E41"/>
<path d="M301.88 306.094H295.421L292.348 281.229H301.881L301.88 306.094Z" fill="#A0616A"/>
<path d="M290.808 304.252H303.264V312.08H282.965C282.965 311.052 283.168 310.034 283.562 309.085C283.956 308.135 284.534 307.272 285.262 306.545C285.99 305.818 286.855 305.242 287.806 304.848C288.758 304.455 289.778 304.252 290.808 304.252Z" fill="#2F2E41"/>
<path d="M351.929 306.094H345.47L342.397 281.229H351.93L351.929 306.094Z" fill="#A0616A"/>
<path d="M340.856 304.252H353.313V312.08H333.014C333.014 311.052 333.216 310.034 333.611 309.085C334.005 308.135 334.582 307.272 335.311 306.545C336.039 305.818 336.904 305.242 337.855 304.848C338.807 304.455 339.826 304.252 340.856 304.252Z" fill="#2F2E41"/>
<path d="M328.684 143.638C335.83 143.638 341.623 137.856 341.623 130.724C341.623 123.591 335.83 117.809 328.684 117.809C321.537 117.809 315.744 123.591 315.744 130.724C315.744 137.856 321.537 143.638 328.684 143.638Z" fill="#A0616A"/>
<path d="M336.396 185.302L342.186 172.025C343.592 168.91 343.995 165.437 343.339 162.084C342.683 158.731 341.001 155.664 338.524 153.306C338.016 152.804 337.475 152.335 336.907 151.902C334.05 149.671 330.53 148.456 326.902 148.447C324.464 148.457 322.056 148.991 319.843 150.014C319.653 150.098 319.469 150.188 319.279 150.277C318.916 150.451 318.558 150.64 318.21 150.834C315.942 152.134 314.012 153.948 312.575 156.129C311.138 158.31 310.235 160.798 309.938 163.391L307.383 184.76C306.741 186.438 283.813 247.012 291.832 293.258C291.917 293.752 292.158 294.205 292.52 294.553C292.882 294.9 293.346 295.122 293.844 295.188L301.973 296.292C302.567 296.373 303.169 296.226 303.659 295.882C304.148 295.538 304.489 295.021 304.612 294.436L318.252 229.544C318.337 229.141 318.555 228.778 318.871 228.513C319.187 228.248 319.583 228.097 319.996 228.083C320.408 228.069 320.814 228.193 321.147 228.436C321.48 228.679 321.722 229.027 321.834 229.423L341.106 297.664C341.243 298.16 341.54 298.597 341.95 298.909C342.36 299.22 342.861 299.389 343.376 299.389C343.53 299.388 343.684 299.374 343.835 299.347L353.765 297.438C354.343 297.33 354.859 297.011 355.213 296.544C355.567 296.076 355.732 295.493 355.678 294.909C354.219 278.666 346.464 197.306 336.396 185.302Z" fill="#2F2E41"/>
<path d="M278.398 141.472C278.308 142.24 278.388 143.018 278.632 143.751C278.876 144.485 279.278 145.156 279.81 145.718C280.342 146.279 280.991 146.718 281.712 147.002C282.432 147.286 283.206 147.409 283.979 147.363L291.212 164.711L296.683 156.616L288.976 141.383C288.811 140.092 288.178 138.906 287.196 138.05C286.214 137.194 284.951 136.727 283.647 136.738C282.343 136.749 281.089 137.237 280.121 138.109C279.154 138.982 278.54 140.178 278.398 141.472Z" fill="#A0616A"/>
<path d="M327.966 202.77C328.735 202.678 329.475 202.419 330.133 202.011C330.791 201.603 331.351 201.057 331.774 200.409C332.197 199.762 332.473 199.03 332.582 198.264C332.691 197.499 332.631 196.719 332.406 195.98L347.623 184.917L338.461 181.493L325.415 192.523C324.196 192.984 323.188 193.875 322.582 195.027C321.977 196.18 321.816 197.514 322.131 198.777C322.445 200.041 323.213 201.145 324.288 201.88C325.364 202.616 326.673 202.933 327.966 202.77Z" fill="#A0616A"/>
<path d="M303.159 176.276C302.575 176.276 301.993 176.218 301.421 176.105C300.037 175.842 298.739 175.244 297.641 174.362C296.543 173.48 295.68 172.342 295.127 171.049L284.993 158.717C284.779 158.456 284.623 158.153 284.536 157.827C284.449 157.501 284.432 157.161 284.488 156.828C284.543 156.495 284.669 156.178 284.857 155.898C285.046 155.618 285.292 155.381 285.579 155.204L292.788 150.75C293.054 150.585 293.35 150.475 293.659 150.426C293.969 150.376 294.284 150.388 294.589 150.461C294.893 150.534 295.18 150.666 295.433 150.85C295.686 151.034 295.9 151.266 296.062 151.534L303.204 163.277L316.882 153.188C317.971 152.619 319.229 152.459 320.426 152.738C321.623 153.018 322.68 153.718 323.403 154.71C324.126 155.703 324.467 156.922 324.363 158.145C324.26 159.368 323.719 160.513 322.84 161.371L309.189 173.8C307.585 175.387 305.417 176.277 303.159 176.276Z" fill="#2F2E41"/>
<path d="M340.116 194.823C340.097 194.823 340.079 194.823 340.06 194.823C339.728 194.815 339.401 194.737 339.1 194.595C338.8 194.452 338.532 194.249 338.316 193.997L331.906 186.534C331.688 186.28 331.526 185.982 331.432 185.661C331.337 185.34 331.312 185.002 331.358 184.671C331.404 184.339 331.519 184.021 331.698 183.737C331.876 183.453 332.112 183.211 332.391 183.025L344.393 175.039L333.52 161.992C332.888 160.94 332.656 159.695 332.867 158.486C333.077 157.277 333.717 156.184 334.669 155.407C335.62 154.63 336.82 154.22 338.049 154.253C339.279 154.286 340.455 154.759 341.363 155.586L354.578 168.476C355.618 169.424 356.412 170.61 356.892 171.932C357.371 173.254 357.523 174.672 357.332 176.065C357.142 177.459 356.616 178.785 355.799 179.93C354.982 181.076 353.898 182.006 352.642 182.641L341.841 194.08C341.619 194.315 341.352 194.501 341.055 194.629C340.759 194.757 340.439 194.823 340.116 194.823Z" fill="#2F2E41"/>
<path d="M325.394 167.323C325.291 167.323 325.188 167.317 325.086 167.304C324.64 167.25 324.218 167.069 323.872 166.783C323.525 166.497 323.268 166.118 323.131 165.69L318.315 150.952C318.194 150.579 318.213 150.176 318.367 149.816C318.521 149.456 318.801 149.164 319.154 148.993L319.311 148.92C319.452 148.853 319.593 148.786 319.736 148.722C321.982 147.683 324.427 147.141 326.903 147.133C330.116 147.139 333.259 148.081 335.944 149.844C336.304 150.083 336.555 150.454 336.644 150.876C336.733 151.299 336.652 151.739 336.419 152.102L327.383 166.23C327.172 166.565 326.878 166.842 326.53 167.033C326.182 167.224 325.791 167.324 325.394 167.323Z" fill="#E6E6E6"/>
<path d="M343.546 120.73C346.402 120.73 348.718 118.419 348.718 115.568C348.718 112.717 346.402 110.406 343.546 110.406C340.69 110.406 338.374 112.717 338.374 115.568C338.374 118.419 340.69 120.73 343.546 120.73Z" fill="#2F2E41"/>
<path d="M325.817 109.894C322.184 109.894 318.7 111.334 316.132 113.898C313.563 116.462 312.12 119.939 312.12 123.565V129.349H319.247L322.656 123.565L323.679 129.349H345.31L339.515 123.565C339.515 119.939 338.072 116.462 335.503 113.898C332.934 111.334 329.45 109.894 325.817 109.894Z" fill="#2F2E41"/>
<path d="M346.204 112.032C346.776 110.247 347.96 108.721 349.548 107.721C351.136 106.721 353.027 106.312 354.887 106.566C358.183 107.116 360.789 109.76 362.341 112.713C363.894 115.667 364.611 118.972 365.655 122.14C366.698 125.309 368.179 128.494 370.814 130.545C373.449 132.596 377.493 133.152 380.081 131.042C379.785 133.241 378.804 135.292 377.277 136.903C375.75 138.515 373.754 139.607 371.571 140.025C369.388 140.442 367.128 140.164 365.112 139.23C363.096 138.296 361.426 136.752 360.337 134.818C358.971 132.394 358.619 129.551 358.214 126.799C357.809 124.047 357.282 121.199 355.652 118.943C354.022 116.687 350.97 115.214 348.38 116.241L346.204 112.032Z" fill="#2F2E41"/>
<path d="M178.04 119.907C173.325 119.906 168.804 118.036 165.47 114.709C162.136 111.381 160.263 106.868 160.263 102.162C160.263 98.9529 160.265 96.4991 160.27 96.1501C160.42 85.157 163.193 74.358 168.361 64.6489C159.871 76.25 155.202 90.198 155.001 104.563C154.997 104.912 154.994 107.366 154.995 110.576C154.995 115.281 156.868 119.794 160.202 123.122C163.535 126.45 168.057 128.319 172.772 128.32C176.646 128.318 180.414 127.055 183.503 124.721C186.593 122.387 188.834 119.111 189.887 115.39C186.632 118.303 182.413 119.912 178.04 119.907Z" fill="#3F3D56"/>
<path d="M225.88 73.1461C231.33 73.406 236.636 74.9822 241.342 77.7396C246.048 80.497 250.013 84.3532 252.897 88.9769C255.781 93.6007 257.497 98.8539 257.899 104.286C258.3 109.717 257.375 115.165 255.203 120.161C258.345 116.478 260.655 112.161 261.974 107.506C263.294 102.851 263.592 97.9661 262.849 93.1853C262.106 88.4046 260.338 83.84 257.667 79.8027C254.996 75.7655 251.484 72.3506 247.371 69.7907C243.258 67.2309 238.64 65.5864 233.833 64.9692C229.025 64.3521 224.141 64.7769 219.512 66.2147C214.884 67.6524 210.621 70.0693 207.013 73.3006C203.406 76.5319 200.539 80.5016 198.607 84.9391C201.945 81.0203 206.14 77.9191 210.868 75.8744C215.597 73.8297 220.733 72.8963 225.88 73.1461Z" fill="#3F3D56"/>
<path d="M231.349 230.329C226.539 230.33 221.922 228.444 218.493 225.077C215.064 221.711 213.099 217.134 213.021 212.334C212.798 198.423 212.682 181.283 212.682 179.324C212.679 174.559 213.366 169.818 214.723 165.249L214.716 165.248C215.517 162.954 216.485 160.722 217.611 158.569C214.154 163.167 211.403 168.254 209.448 173.661L209.455 173.662C208.098 178.231 207.411 182.972 207.414 187.737C207.414 189.696 207.529 206.836 207.752 220.747C207.83 225.547 209.796 230.124 213.225 233.49C216.654 236.857 221.271 238.743 226.081 238.742C230.046 238.741 233.905 237.457 237.078 235.083C240.251 232.708 242.566 229.37 243.678 225.571C240.308 228.638 235.91 230.335 231.349 230.329Z" fill="#3F3D56"/>
<path d="M66.6656 306.334L73.124 306.334L76.1969 281.469L66.664 281.469L66.6656 306.334Z" fill="#FFB8B8"/>
<path d="M85.5807 312.319L65.2815 312.32L65.2812 304.492L77.7375 304.492C79.8175 304.492 81.8124 305.316 83.2833 306.784C84.7542 308.252 85.5806 310.243 85.5807 312.319Z" fill="#2F2E41"/>
<path d="M43.485 306.334L49.9434 306.334L53.0164 281.469L43.4835 281.469L43.485 306.334Z" fill="#FFB8B8"/>
<path d="M62.4001 312.319L42.101 312.32L42.1007 304.492L54.557 304.492C56.637 304.492 58.6319 305.316 60.1028 306.784C61.5737 308.252 62.4001 310.243 62.4001 312.319Z" fill="#2F2E41"/>
<path d="M49.1291 298.687L42.8203 298.356C42.495 298.339 42.1763 298.258 41.8828 298.117C41.5892 297.976 41.3265 297.778 41.11 297.535C40.8935 297.292 40.7274 297.009 40.6214 296.702C40.5154 296.394 40.4716 296.069 40.4925 295.744L48.0329 212.42L82.7567 221.772L86.1022 220.861L75.6403 294.625C75.5512 295.18 75.2751 295.688 74.8576 296.065C74.4402 296.443 73.9063 296.666 73.3443 296.7L66.5435 297.016C66.2034 297.035 65.8632 296.983 65.5442 296.864C65.2252 296.745 64.9344 296.561 64.6902 296.324C64.4461 296.087 64.2538 295.802 64.1256 295.487C63.9974 295.172 63.9361 294.834 63.9454 294.494L65.1777 250.222C65.1834 250.017 65.1122 249.818 64.9779 249.663C64.8437 249.508 64.6562 249.409 64.4524 249.385C64.2485 249.362 64.0432 249.415 63.8768 249.535C63.7104 249.655 63.595 249.832 63.5534 250.033L51.6697 296.732C51.5575 297.286 51.2563 297.784 50.8173 298.142C50.3784 298.499 49.8289 298.693 49.2625 298.691C49.2184 298.691 49.1739 298.69 49.1291 298.687Z" fill="#2F2E41"/>
<path d="M67.8251 144.243C74.9714 144.243 80.7646 138.461 80.7646 131.328C80.7646 124.196 74.9714 118.414 67.8251 118.414C60.6788 118.414 54.8856 124.196 54.8856 131.328C54.8856 138.461 60.6788 144.243 67.8251 144.243Z" fill="#FFB8B8"/>
<path d="M46.2818 169.27L47.7045 199.909L48.2188 211.055C48.2393 211.54 48.4044 212.009 48.6929 212.4C48.9814 212.791 49.3803 213.087 49.8385 213.251L83.2057 225.315C83.4753 225.415 83.7609 225.465 84.0484 225.462C84.3771 225.464 84.7027 225.399 85.0058 225.272C85.3089 225.146 85.5834 224.959 85.8127 224.724C86.042 224.489 86.2215 224.211 86.3406 223.905C86.4596 223.599 86.5156 223.272 86.5054 222.945L85.1374 167.856C85.0476 163.336 83.3806 158.989 80.424 155.565C77.4673 152.14 73.4062 149.853 68.9408 149.096C68.618 149.047 68.2896 148.998 67.9613 148.954C65.1923 148.611 62.3817 148.878 59.7271 149.736C57.0725 150.593 54.6385 152.021 52.5963 153.919C50.4816 155.86 48.82 158.241 47.7288 160.894C46.6377 163.547 46.1437 166.406 46.2818 169.27Z" fill="#CCCCCC"/>
<path d="M99.1452 219.201C98.356 218.957 97.635 218.532 97.0397 217.96C96.4444 217.388 95.9912 216.685 95.7165 215.907C95.4417 215.129 95.3529 214.298 95.4571 213.48C95.5613 212.662 95.8557 211.879 96.3168 211.195L85.0016 196.177L94.7659 195.574L104.014 209.927C105.004 210.691 105.693 211.779 105.96 212.999C106.227 214.22 106.055 215.495 105.474 216.601C104.893 217.708 103.941 218.574 102.783 219.05C101.626 219.525 100.338 219.579 99.1452 219.201Z" fill="#FFB8B8"/>
<path d="M91.1895 208.477C90.8897 208.356 90.617 208.176 90.3872 207.949C90.1575 207.722 89.9751 207.451 89.8508 207.153L72.8035 166.615C72.469 165.822 72.2945 164.97 72.2899 164.109C72.2854 163.248 72.4509 162.395 72.777 161.597C73.1031 160.8 73.5834 160.075 74.1904 159.463C74.7974 158.851 75.5193 158.365 76.3148 158.032C77.1103 157.698 77.9637 157.525 78.8264 157.521C79.6891 157.517 80.5441 157.683 81.3426 158.009C82.141 158.335 82.8672 158.815 83.4798 159.421C84.0923 160.028 84.5791 160.749 84.9123 161.543L101.96 202.081C102.212 202.682 102.214 203.358 101.967 203.962C101.72 204.565 101.244 205.045 100.642 205.298L93.0741 208.468C92.7762 208.594 92.4562 208.66 92.1327 208.661C91.8092 208.663 91.4886 208.6 91.1895 208.477Z" fill="#CCCCCC"/>
<path d="M63.665 207.047L80.0384 175.756C80.3542 175.155 80.8962 174.702 81.5456 174.499C82.195 174.296 82.8987 174.358 83.5023 174.671L107.268 187.06C107.871 187.375 108.324 187.916 108.528 188.564C108.732 189.212 108.67 189.915 108.355 190.517L91.982 221.808C91.6662 222.41 91.1242 222.862 90.4748 223.065C89.8255 223.269 89.1217 223.207 88.5181 222.893L64.752 210.505C64.1491 210.189 63.6961 209.648 63.4923 209C63.2885 208.352 63.3506 207.65 63.665 207.047Z" fill="#3F3D56"/>
<path d="M74.6456 192.751C74.3545 191.98 73.8867 191.286 73.2795 190.727C72.6723 190.168 71.9425 189.758 71.1483 189.53C70.3541 189.302 69.5176 189.263 68.7055 189.415C67.8934 189.567 67.1281 189.906 66.4708 190.406L50.7826 180.019L50.756 189.783L65.6578 198.15C66.4804 199.091 67.6088 199.714 68.8451 199.908C70.0814 200.102 71.3466 199.855 72.4189 199.211C73.4911 198.567 74.302 197.566 74.7091 196.385C75.1163 195.204 75.0938 193.918 74.6456 192.751Z" fill="#FFB8B8"/>
<path d="M54.8104 194.947L41.9891 184.811C40.6021 184.346 39.3488 183.552 38.3368 182.497C37.3249 181.442 36.5844 180.158 36.1791 178.755C35.7738 177.352 35.7157 175.872 36.0098 174.441C36.3038 173.011 36.9413 171.673 37.8675 170.542L49.5089 155.315C50.3179 154.328 51.4556 153.665 52.7142 153.447C53.9727 153.228 55.2679 153.469 56.363 154.125C57.4582 154.782 58.2802 155.809 58.6787 157.021C59.0772 158.232 59.0256 159.546 58.5333 160.723L49.3223 175.761L62.8587 182.169C63.1734 182.318 63.453 182.532 63.6787 182.797C63.9045 183.062 64.0714 183.371 64.1684 183.705C64.2654 184.039 64.2903 184.39 64.2415 184.734C64.1926 185.078 64.0711 185.408 63.885 185.702L58.4209 194.333C58.2362 194.624 57.9922 194.874 57.7048 195.065C57.4174 195.256 57.093 195.385 56.7526 195.443C56.739 195.446 56.7254 195.448 56.7118 195.45C56.3773 195.5 56.036 195.482 55.7089 195.395C55.3819 195.309 55.0761 195.156 54.8104 194.947Z" fill="#CCCCCC"/>
<path d="M58.0477 139.976C57.9922 139.814 57.9746 139.641 57.9962 139.471C58.0179 139.301 58.0782 139.138 58.1726 138.995C58.267 138.852 58.393 138.733 58.5408 138.646C58.6887 138.559 58.8545 138.507 59.0257 138.493C59.3761 138.512 59.7191 138.602 60.0339 138.757C60.3486 138.912 60.6286 139.129 60.857 139.395C61.3253 139.934 61.8704 140.401 62.475 140.782C63.1009 141.097 63.9498 141.052 64.3067 140.452C64.6418 139.888 64.4122 139.133 64.2093 138.478C63.6931 136.812 63.4043 135.084 63.3506 133.341C63.2922 131.395 63.5672 129.364 64.6465 127.847C66.0393 125.888 68.53 125.145 70.887 125.199C73.244 125.253 75.5629 125.979 77.8976 126.438C78.7036 126.596 79.651 126.677 80.1901 126.054C80.7633 125.391 80.5528 124.318 80.309 123.423C79.6763 121.1 79.0051 118.698 77.5351 116.823C75.9457 114.873 73.6752 113.597 71.1811 113.252C68.7866 112.956 66.3558 113.232 64.0887 114.056C60.3951 115.218 57.1449 117.478 54.7729 120.533C52.3277 123.783 51.2711 127.866 51.8342 131.891C52.3842 135.396 54.2453 138.563 57.0423 140.753L58.0477 139.976Z" fill="#2F2E41"/>
<path d="M221.931 306.437C218.489 304.94 215.442 302.666 213.031 299.793C210.62 296.919 208.911 293.526 208.039 289.881C207.166 286.236 207.155 282.438 208.005 278.788C208.856 275.137 210.544 271.734 212.938 268.847C210.163 270.869 207.85 273.458 206.154 276.441C204.457 279.423 203.416 282.732 203.098 286.147C202.781 289.563 203.195 293.006 204.313 296.249C205.431 299.493 207.228 302.461 209.583 304.959C211.939 307.456 214.8 309.425 217.976 310.734C221.152 312.044 224.571 312.664 228.005 312.554C231.44 312.444 234.812 311.606 237.897 310.096C240.983 308.586 243.711 306.438 245.901 303.795C242.485 306.287 238.475 307.842 234.269 308.305C230.064 308.769 225.81 308.125 221.931 306.437Z" fill="#3F3D56"/>
</g>
<defs>
<clipPath id="clip0_35_49">
<rect width="445" height="313" fill="white"/>
</clipPath>
</defs>
</svg>
